<?xml version="1.0" encoding="utf-8"?>
<!-- Generator: Adobe Illustrator 18.0.0, SVG Export Plug-In . SVG Version: 6.00 Build 0)  -->
<!DOCTYPE svg PUBLIC "-//W3C//DTD SVG 1.1//EN" "http://www.w3.org/Graphics/SVG/1.1/DTD/svg11.dtd">
<svg version="1.1" id="Capa_1" xmlns="http://www.w3.org/2000/svg" xmlns:xlink="http://www.w3.org/1999/xlink" x="0px" y="0px"
	 viewBox="0 0 125.5 110.4" enable-background="new 0 0 125.5 110.4" xml:space="preserve">
<g>
	<path fill="#FFFFFF" d="M64.4,25.7c0.9-0.9,1.5,1.1,1,1.4C64.8,27.5,63.8,26.3,64.4,25.7z"/>
	<path fill="#FFFFFF" d="M62.6,29.3C58,28.7,63.4,24.8,62.6,29.3L62.6,29.3z"/>
	<path d="M84.5,39.6c0.4-1,0.5-2.2,0.2-3.4C88.6,34.9,88.7,40.9,84.5,39.6z"/>
	<path fill="#FFFFFF" d="M62.2,42.2c0.4-0.7,1.9,0.8,1.2,1.4C62.9,44.1,61.8,43,62.2,42.2z"/>
	<path d="M29.8,58.7C37.9,63,28.1,69.5,29.8,58.7L29.8,58.7z"/>
	<path d="M51.9,60.9c2.2,0.9-2.5,2-1,0C51,60.9,52.1,61,51.9,60.9z"/>
	<path d="M40.9,64.8c1.4,1.2,4.2,0.1,4.4,2.6C43.2,66.7,41.9,66.5,40.9,64.8z"/>
	<path d="M33.4,66.4c0.4-0.1,0.6,0.1,0.6,0.2C35.2,69.1,29.6,66.9,33.4,66.4z"/>
	<path d="M70.2,75.4c-0.4,1.4,4.2,8.4,0.2,10.1C71.6,82.8,69.7,78,70.2,75.4z"/>
	<path d="M70,27.9c-7.1,3.7,4.1,8.2,2.2-0.2c1.1,1.9,2.9,4.8,3,6.6c0.1,1.4-1.6,2.8-1.6,3.4c-0.1,1.1,1.3,2.4,1.4,3.4
		c0.7,5.3,0.6,15.6-4.4,17.5c-1,0.4-3.2-0.1-4.2,0.8c-1.3,1.2-0.8,8.5-1,10.9c-0.4,5.5,3.2,11.2,4.2,14.9c-6.6-4.3-3.5-13.7-6-21.7
		c-2.1-6.5-11-10.2-19.1-8.9c0.9,3.5-2.3,5.5-4,7.6c-1.2-0.2-1.4-1.8-3-1c-0.1-0.7-0.5-2,0-2.6c4.4,1.7,4.5-2.9,5.8-4.8
		c-0.3-0.9-6.2-3.6-5.6-5.2c0.7-1.9,6.7-2.3,8.2-5.2c1.4-2.7,0.2-9,2-10.7c0.3-0.3,1.9-0.2,2-0.4c1.6-2.2-1.4-7,3.6-7.2
		c1.2-0.1,2.7,1.1,4.2,1C62.2,25.8,66.8,22.8,70,27.9z M65.4,27.1c0.5-0.3-0.1-2.3-1-1.4C63.8,26.3,64.8,27.5,65.4,27.1z M62.6,29.3
		C63.4,24.8,58,28.7,62.6,29.3L62.6,29.3z M63.4,43.6c0.6-0.6-0.8-2.1-1.2-1.4C61.8,43,62.9,44.1,63.4,43.6z"/>
</g>
</svg>
