<?xml version="1.0" encoding="utf-8"?>
<!-- Generator: Adobe Illustrator 18.0.0, SVG Export Plug-In . SVG Version: 6.00 Build 0)  -->
<!DOCTYPE svg PUBLIC "-//W3C//DTD SVG 1.1//EN" "http://www.w3.org/Graphics/SVG/1.1/DTD/svg11.dtd">
<svg version="1.1" id="Capa_1" xmlns="http://www.w3.org/2000/svg" xmlns:xlink="http://www.w3.org/1999/xlink" x="0px" y="0px"
	 viewBox="0 0 125.5 110.4" enable-background="new 0 0 125.5 110.4" xml:space="preserve">
<g>
	<path d="M78.6,25.6c-0.1-0.3-0.6-0.2-0.7-0.4C78.2,25.1,79,25.2,78.6,25.6z"/>
	<path d="M85.1,27.9c0.1,0.4-0.4,1-0.7,0.7C84,28.3,84.6,27.7,85.1,27.9z"/>
	<path d="M72.9,31.4c0.4-0.2,0.9-0.3,0.9,0.1C73.9,31.8,73.1,31.7,72.9,31.4z"/>
	<path d="M100.5,34c-0.2,0,0,0.3-0.1,0.4c0,0.1-0.2-0.1-0.2-0.1c-0.1,0.1,0,0.3-0.2,0.3c0.3,0-0.5-0.3-0.3-0.1
		c-0.2-0.2,0-0.5-0.2-0.7C99.9,33.8,100.1,34,100.5,34z"/>
	<path d="M86.7,34C87.6,34.3,86.2,35.1,86.7,34L86.7,34z"/>
	<path d="M66.8,36.4c0-0.3,0.1-0.2-0.4-0.2c0-0.1,0.1-0.1,0-0.1C66.8,35.9,67.5,36.2,66.8,36.4z"/>
	<path d="M96.1,39.4C96,39.6,96,40.1,95.5,40c0.2-0.1-0.1-0.4,0.1-0.6c0,0,0.4,0,0.3,0.1C96,39.4,95.9,39.2,96.1,39.4z"/>
	<path d="M84.6,44c0.2,0.2-0.4,0.5,0.1,0.5c-0.1,0.2-0.1,0.4-0.3,0.4C84.4,44.7,84.1,44.2,84.6,44z"/>
	<path d="M86.7,50.6c0.2,0,0.2,0.2,0.1,0.3c0.2,0.1,0-0.2,0.2-0.1c0.1,0.3-0.3,0.1-0.2,0.4c-0.2,0-0.4-0.2-0.2-0.4
		c0-0.2-0.1,0.1-0.2,0C86.4,50.6,86.7,50.8,86.7,50.6z"/>
	<path d="M64.1,17.6c0.2,0,0.5-0.1,0.6,0.2c0,0.2-0.2,0.1-0.3,0.1c0,0.2,0.3,0.1,0.3,0.2c0,0-0.4,0.5-0.3,0.4
		c-0.2,0.1-0.4-0.2-0.5-0.1c0.4,0.4,0.7-0.3,1.1-0.1c0-0.1-0.1-0.1-0.1-0.2c0.1-0.1,0.2,0,0.2-0.1c0,0.1,0.3,0.1,0.4,0.2
		c0.3-0.1,0.1-0.2,0.1-0.4c0.5,0.1,0.7,0.3,0.7,0.7c0.4-0.1,0.5,0.1,0.5,0.3c0.1-0.1,0.1-0.3,0.2-0.4c0.1,0.2,0.3,0.4,0.6,0.2
		c-0.2,0-0.3,0.4-0.1,0.5c0,0,0.2-0.2,0.1-0.2c0.3,0.1,0.8,0.7,1.1,0.2c0,0.1,0.1,0.1,0.1,0.2c0.1,0,0.1-0.1,0.1-0.1
		c0-0.2-0.1-0.1-0.2-0.2c0-0.2,0.2,0,0.2,0c0.1-0.6,0.7-0.6,0.9-0.2c0.1,0,0-0.3,0.1-0.3c0.4,0.4,0.3-0.4,0.6-0.1
		c-0.1,0.1-0.4,0.1-0.2,0.3c0.3-0.4,1.1-0.4,1.5-0.3c0.1,0,0.1-0.3,0.2-0.3c0.2-0.1,0.1,0.1,0.1,0.2c0.2,0.1,0.2-0.1,0.3-0.1
		c0-0.1-0.1-0.1-0.1-0.2c0.1,0.1,0.3,0.1,0.2,0.3c0.2-0.2,0.2-0.1,0.4-0.3c0-0.2-0.2,0.2-0.2-0.1c0-0.2,0.6,0.1,0.6-0.3
		c0.1,0,0.1,0,0.1,0.1c0,0.1,0,0.1,0.1,0.1c-0.1,0.1-0.2,0.1-0.3,0.2C73,18.5,73,18,73.3,18c0.3,0,0.7,0.3,0.8,0.6
		c0.1,0,0.1-0.2,0.2-0.1c0.1,0.2-0.2,0.1-0.2,0.2c0.1,0.2,0.4-0.2,0.4,0.2c0.1-0.3,0.1-0.1,0.4-0.1c0.1,0,0.1-0.2,0.2-0.2
		c0.1,0,0.2,0.2,0.3,0.2c0.1,0,0.2-0.1,0.2-0.1c0.1,0,0.1,0.2,0.1,0.2c0.3,0.1,0.5-0.2,0.7,0c0,0-0.1,0.2-0.1,0.2
		c0.2,0,0.3-0.5,0.4-0.1c0.1-0.1,0.2-0.2,0.4-0.2c0.1,0,0,0.3-0.1,0.2c0.4,0.2,0.8,0,1.1,0.4c0.2-0.1-0.1-0.2,0.1-0.3
		c0.2,0.1,0.5,0.1,0.5,0.1c0,0-0.1,0.2-0.1,0.2c0.5,0,0.1-0.6,0.7-0.1c-0.3-0.2,0.1,0.5,0.2,0c0.2,0,0.3,0.2,0.2,0.4
		c0.2-0.2,0.4-0.1,0.4-0.4c0.4,0.2,0.4,0.4,0.8,0.2c-0.3,0.3,0.1,0.1,0.3,0.1c-0.1,0,0,0.4-0.2,0.3c0.3-0.2,0.4-0.2,0.9,0
		c-0.2-0.1,0.3,0.7,0.3,0c0.2,0.1,0.4,0.1,0.4,0.2c0-0.3,0.1,0,0.4,0.1c0.1,0,0-0.1,0.1-0.1c0-0.2-0.1,0.1-0.2,0
		c0.1-0.2,0.8,0,0.6,0.4c0.1-0.3,0.5,0.2,0.1,0.2c0.2,0,0.2,0.3,0.4,0.4c0.2-0.1-0.2,0-0.1-0.2c0.5,0.2,1,0.3,1.6,0.2
		c-0.1,0,0.2,0.1,0.1,0c0.2,0.1,0.1,0.3,0.4,0.4c0,0,0.3-0.4,0.6-0.1c-0.3,0.2,0,0.2,0.1,0.5c-0.1-0.1,0.2-0.3,0.2-0.3
		c0.2-0.2-0.1,0.2,0.2,0.1c0.1-0.1,0.2-0.2,0-0.2c0-0.2,0.2,0.2,0.2-0.1c0.1,0,0,0.2-0.1,0.3c0,0.1,0.1,0.1,0.1,0.1
		c0.2-0.4,0.5,0,0.6,0.2c0.1,0,0-0.2,0.1-0.2c0.2,0.3,0,0.5,0.1,0.8c0.1,0,0.1-0.2,0.1-0.2c0.2-0.1,0,0.4,0.2,0.4
		c0.1,0,0.2-0.2,0.2-0.2c0.2,0.2,0.3,0.5-0.2,0.6c0,0.2,0.4,0.2,0.2,0.4c-0.1-0.2-0.3-0.3-0.5,0c0.1,0.1,0.4,0.1,0.4,0.2
		c-0.2,0.1-0.1,0.3-0.4,0.5c0.2,0.3,0.1-0.2,0.3-0.1c-0.4,0.4,0.8,0.5,0.9,0.4c0.2,0,0.2-0.2,0.4-0.2c0,0,0.2,0.3,0.4,0.1
		c0.1-0.1,0-0.3,0.3-0.4c0.1,0,0.1,0.1,0.1,0.2c0.2-0.1,0.2-0.2,0.3-0.2c0.2,0,0.2,0.2,0.3,0.2c0,0,0.4-0.1,0.5,0
		c0.1,0.1,0.1,0.5-0.1,0.6c0,0-0.1-0.1-0.1-0.1c0,0.2-0.1,0.3-0.1,0.4c0,0.1,0.7,0.2,0.9,0.1c0,0.2,0.1,0.2,0,0.3
		c0.2-0.2,0.6-0.1,0.5,0.2c0-0.1,0.4-0.1,0.2-0.1c0.5,0,0.1,0.6,0,0.3c0,0.2,0.3,0.2,0.3,0.2c0,0-0.1,0.3,0.2,0.4
		c0.4,0.1,0.9-0.3,0.9,0.3c0.1,0,0.1-0.1,0.1-0.1c0.1,0.3,0,0.4,0.1,0.7c0.2,0,0.2-0.1,0.3,0c-0.2,0.1-0.1,0.1-0.1,0.3
		c0.3-0.1,0.2,0,0.5-0.1c0,0.2-0.2,0.1-0.1,0.3c0.3-0.3,1.2,0.2,0.7-0.7c0.3,0.3,0.1,0.8,0.6,1c-0.4,0.2-0.5,0.3-0.5,0.6
		c0,0.1,0.1-0.1,0.1-0.1c0.1,0,0,0.2,0.1,0.2c0.1,0.1,0.3-0.1,0.2-0.1c0,0,0.1,0.4-0.2,0.2c0.1,0.3,0.4,0.3,0.4,0.4
		c0.1,0.2-0.1,0.4-0.4,0.6c0.1,0,0.4-0.1,0.6,0.1c0.1-0.2-0.2-0.2-0.1-0.4c0.3,0.3,0.3,0.3,0.3,0.6c0.2-0.1,0-0.3,0.1-0.6
		c0.1,0,0.1,0,0.1-0.1c0.1,0,0.1,0.2,0.2,0.2c0.2-0.1-0.1-0.3,0.2-0.2c0,0.3,0.2,0.4,0.4,0.6c0.2-0.1,0-0.1,0.1-0.2
		c0.2,0,0.1,0.3,0.2,0.4c0,0.2-0.2,0-0.1-0.1c-0.2,0.2-0.1,0.4,0.2,0.4c0.1,0.2-0.2,0.1-0.2,0.2c0.2,0.2,0.3-0.1,0.6,0
		c-0.1,0.2-0.1,0-0.2,0.1c-0.1,0.2,0.3,0.1,0.2,0.4c-0.1,0-0.2,0-0.2,0c0.4-0.2-0.7-0.3-0.7,0.1c0.2,0.3,0.3-0.1,0.2-0.1
		c0.3,0,0.5,0.4,0.5,0.6c0.2-0.4,0.3,0,0.5,0.1c-0.1,0.3-0.3-0.1-0.4,0.2c0,0.1,0.1,0,0.1,0.1c0.2-0.2,0.3-0.1,0.4,0.1
		c-0.1,0-0.1-0.1-0.2-0.1c0.2,0.3,0.4,0.3,0.6,0.4c0,0.1,0,0.1,0.1,0.1c-0.3,0-0.1,0.4-0.5,0.5c-0.2,0-1.2-0.7-1.2-0.1
		c0-0.2,0.4,0.5,0.3,0.5c0.1,0,0.4-0.1,0.6-0.1c0,0.1,0.1,0.3-0.1,0.3c0.1,0.1,0.3-0.1,0.2,0.2c-0.3,0-0.3,0-0.5-0.1
		c0,0.1,0,0.2,0,0.2c0.3-0.2,0.4,0.2,0.7,0c0,0.1,0,0.1,0.1,0.1c-0.2,0.4-0.5,0.1-0.8,0.1c0.2,0.3-0.7,0.3-0.7-0.1
		c-0.1,0.3-0.2,0.1-0.4,0.2c0.2-0.4-0.5-0.3-0.8-0.4c0.1,0.2,0,0.2,0.1,0.4c-0.1,0.1-0.1,0-0.2,0c0.2,0.4,0.3,0.5,0.7,0.6
		c0,0.1-0.2,0.1-0.1,0.2c0.1,0.2,0.5-0.2,0.4,0.2c-0.2,0-0.2-0.1-0.4-0.1c0.1,0.1,0.3,0.4,0.5,0.4c0.2,0,0.6-0.4,0.9-0.4
		c0.2,0,0.2,0.1,0.2,0.1c0.3-0.1,0.5-0.5,0.9-0.5c0,0,0.1,0.1,0.1,0.1c0.2-0.1,0.2-0.3,0.4-0.3c-0.2,0.2,0,0.3,0.1,0.4
		c0,0.1-0.1,0.2-0.1,0.2c0.2,0.2,0.6-0.1,0.7,0.3c0.5-0.5,0.7,0.6,1.4,0.5c-0.2,0.3-0.6,0.5-0.9,0.2c-0.1,0.7,0.5,0.5,0.6,1.2
		c-0.1,0-0.1,0-0.1,0.1c-0.4-0.8-0.5-0.2-0.9,0.2c0.4,0.2,0.3,0.5,0.3,0.9c0,0.1,0.1,0.1,0.2,0.1c0,0.1-0.1,0.1-0.2,0.1
		c0.1,0,0.4,0.2,0.6,0.2c0.1,0,0.1-0.2,0.2-0.2c0.4,0.1,0.6,0.5,0.2,1c0.3,0,0.5-0.4,0.6-0.4c0.1,0,0.2,0.3,0.3,0.4
		c-0.2-0.1-0.2,0-0.4-0.1c0.1,0.3,0.4,0,0.4,0.4c0-0.3,0.1-0.2,0.4-0.2c-0.1,0.3,0.1,0.2,0.2,0.4c-0.4-0.3-0.9,0.4-0.2,0.2
		c-0.3,0.3-0.4,0.4-0.3,0.8c0.2,0-0.2-0.2,0.1-0.2c0,0.4-0.1,0.6-0.4,0.8c0,0.1,0.2,0.1,0.2,0.1c0.1,0.3-0.4,0.6,0,0.7
		c-0.4,0.3,0.1,0.5,0.1,0.5c0.2,0.4,0.3,0.8-0.2,1.2c0.2,0.2-0.1,0.4,0.1,0.7c-0.1,0-0.1,0-0.1,0.1c-0.1,0-0.1-0.2-0.1-0.2
		c0,0-0.1,0.1-0.2,0.1c0.1,0.1,0.1,0.2,0.1,0.3c-0.1-0.3-0.4-0.3-0.7-0.1c0.2-0.1,0.2,0.2,0.3,0.3c0.1,0.1,0.4,0.1,0.4,0.2
		c0,0-0.1,0.1-0.1,0.1c0,0.2,0.3,0.3,0.4,0.5c0,0.1-0.3,0.4,0.1,0.3c-1.2,0.7,1.2,1,0.1,1.8c0.1,0.2,0.3-0.1,0.4,0.1
		c0,0.1-0.1,0-0.1,0.1c0.1,0.1,0.2,0.1,0.3,0.1c0,0.2-0.1,0.3-0.1,0.4c0-0.3-0.3-0.2-0.2,0.2c-0.1-0.2-0.1-0.4-0.2-0.5
		c-0.1,0.1,0,0.3,0,0.6c-0.2-0.2-0.6-0.5-0.8-0.1c0.4,0.2,0.6,0.1,1,0.2c0,0.1,0,0.2-0.1,0.2c-0.1-0.3-0.1,0.2-0.1,0.2
		c0,0,0.2-0.1,0.3-0.1c0.3,0.1,0.1,0.7,0.3,0.7c0,0.1-0.1,0-0.1,0.1c0-0.7-0.6-0.2-0.7,0.1c0,0.1,0.1,0,0.1,0.1
		c0.1-0.1,0.2-0.3,0.2-0.1c-0.1,0.2-0.1,0.1,0.1,0.2c-0.4,0-0.9,0.9-0.7,1.2c0.1,0.2,0.4-0.1,0.4,0.3c0.2,0,0.3-0.1,0.3-0.3
		c0.2,0,0,0.2,0.2,0.2c0,0.3-0.3-0.2-0.3,0.1c0,0,0.2,0,0.2,0c0.1,0.1-0.4,0.6-0.4,0.1c0,0-0.1,0.1-0.2,0.1c0.2,0.2,0.6,1-0.1,0.8
		c0.2,0.2,0.3,0.2,0.3,0.3c-0.1,0.1-0.4,0.2-0.5,0.1c0.1,0.3,0,0.5,0.4,0.7c-0.2,0-0.4,0.2-0.4,0.4c-0.1,0-0.1-0.1-0.2-0.1
		c0,0.1,0.1,0.5-0.1,0.6c0,0.1,0.2,0,0.2,0.1c-0.3,0-1.3,0.6-0.6,0.9c-0.4,0.3,0.5,0.2,0.1,0.5c-0.2,0.2-0.3,0-0.4,0.2
		c-0.2,0.3,0.1,0.5,0.1,1c0,0.2-0.3,0.6-0.3,0.8c0,0.2,0.1,0.3,0.1,0.4c-0.2-0.2-0.4,0-0.5-0.1c0,0,0,0.1,0,0.1
		c0.1,0.1,0.2,0,0.4,0.1c-0.4,0.2,0.1,0.2,0.1,0.5c-0.1,0-0.1-0.1-0.1-0.2c-0.1,0.2-0.3,0.3-0.5,0.1c0,0.3,0.4,0,0.3,0.4
		c-0.2-0.1-0.2,0-0.4-0.1c-0.1,0,0,0.1,0.1,0.1c-0.2,0.2-0.2-0.2-0.5-0.1c-0.1,0.2,0.2,0.7,0,0.8c-0.2,0.1,0.1,0-0.1,0.1
		c-0.1,0.1-0.5,0-0.6,0.2c-0.2,0.2,0,0.6-0.4,0.6c0.1,0.2,0.2,0.5,0.2,0.7c-0.4-0.1-0.8,0.7-0.2,0.6c-0.2,0.2-0.2,0-0.4,0.1
		c0.4,0.4-0.5,0.6-0.6,1c0,0.1,0.2-0.1,0.3,0.1c-0.5,0.2,0,0.4-0.1,0.7c-0.2-0.2-0.3,0.1-0.4,0.4c-0.1-0.2-0.4-0.1-0.4,0.1
		c0,0,0.4,0.2,0.2,0.5c0.1-0.1-0.4,0.1,0,0.1c-0.3,0.2-0.6,1.1-0.2,0.9c-0.2,0.1-0.3,0.3-0.1,0.5c-0.2,0-0.3,0-0.2-0.2
		c0,0-0.1,0-0.1,0c-0.1,0.3-0.3,0.5-0.4,0.7c-0.1,0.1-0.3,0.1-0.4,0.2c0,0.1,0.1,0.2,0,0.4c0,0-0.2,0-0.2,0.1c0,0,0.1,0.1,0.1,0.2
		c-0.1,0.1-0.3,0-0.4,0.1c-0.1,0.1-0.2,0.8-0.6,0.7c0.2-0.2,0.3-0.4,0.1-0.7c-0.1,0.2-0.1,0.6-0.4,0.7c0,0.1,0.2,0.1,0.2,0
		c0.1,0-0.1,0.2-0.1,0.3c-0.1-0.1-0.2-0.2-0.2-0.4c-0.5,0-0.3,0.8-0.1,0.2c0.1,0,0,0.6-0.5,0.6c0.1,0.2,0.2,0,0.4,0
		c-0.2,0.2-0.3,0.4-0.7,0.4c0.4,0.5-0.9,0.7-0.8,1.4c-0.6-0.4-0.9,0.8-0.6,0.8c-0.1,0-0.2,0-0.2,0.1c0.2,0,0.1,0.1,0.2,0.2
		c0,0.1-0.1,0-0.1,0.1c-0.1-0.3-0.6-0.1-0.5,0.2c0.1-0.1-0.7,0.2-0.5-0.1c0,0-0.1,0-0.1,0c-0.3,0.2,0.2,0.3,0.1,0.6
		c-0.3-0.2-0.5,0.4-0.8,0.2c0.4,0.2-0.3,0.4-0.4,0.2c-0.2,0.1,0.1,0.1,0.1,0.2c-0.7-0.1-0.6,0-0.9,0.2c0.4,0.1-0.4,0.4-0.7,0.3
		c0.4,0.3-0.4,0.8-0.6,0.4c-0.4,0.2-0.1,0.7,0.2,0.4c0.2,0.3-0.4,0.3-0.5,0.2c0.1,0.2,0.1,0.6-0.1,0.8c0,0-0.4-0.1-0.4-0.1
		c-0.1,0.1-0.1,0.5-0.4,0.2c0,0.2,0.1,0.2,0,0.3c-0.1-0.2-0.5-0.1-0.4-0.4c-0.2,0-0.1,0.2-0.2,0.2c0.1,0.2,0.2,0,0.4,0.1
		c-0.2,0.4-0.5,0.3-0.5,0.9c-0.4-0.4-1,0.5-0.6,0.4c-0.1,0.2-0.5,0-0.6,0.2c0,0.1,0,0.2,0,0.2c-0.1,0.2-0.2,0-0.6,0.1
		c-0.1,0-0.1,0.1-0.2,0.1c-0.2,0,0,0.2,0,0.4c-0.3-0.3-0.4,0.2-0.4,0.2c-0.4,0.1-1-0.3-1.1,0.1c0,0,0.3,0.2-0.1,0.2
		c0-0.1,0.1-0.1,0.1-0.2c-0.2,0.1-0.6,0.1-0.7,0.5c-0.2-0.2-0.3-0.2-0.3-0.2c0,0,0-0.1,0.1-0.1c-0.4-0.3,0,0.2-0.1,0.3
		c-0.3,0.4-0.9,0.3-1.3,0.3c-0.1,0.3,0,0.2,0.1,0.4c-0.1-0.1-0.3-0.2-0.5-0.2c0,0.2,0.1,0.2,0.1,0.4c-0.2,0-0.1,0-0.3,0
		c0,0.2,0,0.3-0.2,0.4c0-0.1-0.1-0.2-0.2-0.4c-0.4,0.1-0.8,0.1-0.7,0.6c-0.3,0-0.3-0.3-0.6-0.2c0,0.2,0.2,0.2,0.1,0.3
		c-0.1,0.2-0.2-0.2-0.3-0.2c-0.2,0,0,0.2-0.2,0.3c-0.1,0-0.2,0-0.3,0c-0.1,0-0.2,0.2-0.2,0.2c-0.5,0-0.5-0.6-0.8-0.2
		c-0.2,0.2,0.1,0.1,0.3,0.2c-0.1,0.3-0.6,0.1-0.4,0.5c-0.1,0-0.1-0.1-0.1-0.2c-0.3,0-0.4,0.1-0.4,0.4c-0.1-0.3-1-0.3-1.2,0.1
		c-0.1,0.2-0.4,0.1-0.6,0.4c0,0-0.1,0.2-0.1,0.2c0,0-0.2-0.1-0.2-0.1c-0.1,0-0.3,0.4-0.6,0.4c-0.1,0-0.6-0.2-0.7,0
		c0,0.1,0.1,0.1,0.2,0.1c-0.4,0.1-0.2-0.1-0.5-0.1c-0.1,0-0.1,0.1-0.2,0.1c-0.2,0-0.2-0.2-0.2-0.2c-0.2-0.1-0.6,0.3-0.6-0.2
		c-0.1,0.3-0.6,0.1-0.6,0.4c-0.2,0,0-0.2,0-0.2c-0.2,0.2-0.7,0.4-0.9,0.4c-0.2,0.1-0.7,0-0.8,0.2c-0.2-0.2-0.9-0.2-0.8,0.1
		c-0.4-0.2-0.7,0-0.9,0.2c0.3-0.5-0.3,0.1-0.6-0.1c-0.2,0,0,0.2,0.1,0.2c-0.5-0.2-0.5,0.3-1.1,0.4c0,0.1,0.1,0.1,0.1,0.2
		c-0.7-0.6-0.3,0.5-0.8,0.4c-0.1,0,0-0.1,0-0.2c-0.2,0-0.3,0.3-0.5,0.3c-0.1,0-0.1-0.1-0.2-0.1c-0.2,0.1-0.3,0.3-0.6,0.4
		c-0.1,0-0.2-0.1-0.2-0.1c-0.3,0.1-0.4,0.3-0.8,0.2c-0.3-0.1-0.3-0.1-0.4,0.2c-0.1-0.3-0.4,0-0.6,0.1c0-0.2,0.1-0.1,0-0.2
		c0,0.4-0.6,0.6-1.1,0.7c0.1-0.1,0.2-0.2,0.3-0.2c-0.3-0.3-0.5,0.2-0.7,0.2c-0.1,0-0.4-0.2-0.5-0.2c-0.3,0-0.2,0.2-0.5-0.1
		c0.3,0.5-0.2,0.3-0.6,0.6c-0.1,0.1-0.5,0.3-0.7,0.2c0,0-0.1-0.2-0.1-0.2c-0.1-0.1-0.5,0.2-0.4,0.3c-0.1-0.4-0.3-0.1-0.4-0.4
		c-0.2,0.1,0.1,0.2-0.1,0.2c-0.2-0.1-0.3-0.2-0.5-0.1c0-0.3-0.5-0.3-0.7-0.1c-0.2-0.2,0.1,0,0.1-0.2c-0.2,0-0.9,0.1-1.2-0.2
		c-0.1,0,0.1,0.1,0.1,0.1c-0.1,0.4-0.2-0.2-0.4-0.3c-0.2-0.1-0.3,0.1-0.5,0c0,0,0.2-0.2,0-0.3c-0.1,0-0.2,0.1-0.2,0.1
		c0,0,0-0.2-0.1-0.2c-0.1,0-1,0.5-0.8-0.1c-0.6,0.4-0.5-0.5-0.8-0.7c-0.2-0.1-0.5,0.1-0.7,0c0.1,0-0.4-0.3,0-0.2
		c-0.2-0.2-0.4,0.1-0.6,0c-0.1,0-0.1-0.3-0.2-0.3c-0.1,0-0.3,0.1-0.5,0.1c-0.2,0-0.5-0.3-0.8-0.3c-0.2,0-0.4,0-0.5,0
		c-0.2-0.1-0.3-0.3-0.5-0.2c-0.1,0-0.2,0.2-0.3,0.2c-0.3,0-0.5-0.3-0.8-0.2c-0.2,0-0.2,0.1-0.3,0.1c0,0-0.1-0.2-0.1-0.2
		c-0.2,0-0.7,0.1-0.7,0.1c-0.2,0-0.3-0.3-0.4,0.1c-0.2,0-0.2-0.1-0.2-0.2c-0.2,0.1,0,0.1-0.1,0.2c-0.2-0.1-0.6-0.2-0.7-0.1
		c-0.1,0.1-0.1,0.2-0.1,0.2c-0.5,0.1-1.8-0.4-1.8-0.7c0-0.3-0.2,0-0.3-0.1c-0.6-0.4-0.8-0.9-1.3-1c0.1-0.3-0.1-0.5,0.1-0.8
		c-0.1,0.4-0.8-0.2-0.9-0.4c0-0.1,0.1-0.2,0.1-0.2c-0.2-0.2-0.1,0.1-0.3-0.2c-0.1-0.2-0.4-0.3-0.4-0.6c-0.1,0-0.2,0-0.2,0.1
		c-0.2,0,0-0.3,0-0.3c-0.1-0.1-0.5,0-0.5-0.3c0-0.2,0.1-0.4,0-0.6c-0.1-0.4-0.5-0.5-0.2-0.8c-0.4,0.4-0.6-0.6-1-1
		c-0.2-0.2-0.4-0.3-0.5-0.4c0,0,0.1-0.1,0.1-0.1c0-0.1-0.2-0.1-0.1-0.1c-0.1-0.2-0.1-0.4-0.4-0.4c0.3-0.3-0.3-0.5-0.4-0.7
		c0,0,0.2-0.1,0.1-0.1c-0.1-0.2-0.4-0.2-0.6-0.5c-0.1-0.2-0.4-0.2-0.4-0.2c-0.1-0.2,0-0.4-0.1-0.4c-0.1-0.1-0.2,0.1-0.3,0.1
		c0,0,0-0.2,0-0.2c-0.1-0.1-0.6,0-0.3-0.2c-0.8,0-0.8-0.6-1.4-0.4c0-0.1,0.3,0,0.2-0.2c-0.3-0.1-0.4-0.4-0.5-0.7
		c0,0-0.1,0.1-0.1,0.1c0,0.2,0.3,0.1,0.2,0.4c-0.5,0.1-0.2-0.2-0.3-0.4c-0.1-0.1-0.3-0.1-0.3-0.2c0,0.1,0-0.3-0.1-0.5
		c-0.1-0.2-0.3-0.5-0.2-0.5c-0.1-0.1-0.1,0-0.2-0.2c-0.2-0.3-0.6-0.2-0.5-0.4c0.1-0.1-0.2-0.6,0.1-0.7c-0.3,0-0.3-0.4-0.3-0.4
		c-0.5,0.1,0.4-0.3-0.1-0.4c-0.2,0,0.1,0.1,0-0.1c-0.1-0.1-0.5-0.3-0.6-0.6c0-0.1-0.2-0.3-0.2-0.4c0,0,0.1-0.1,0.1-0.2
		c-0.1-0.1-0.2-0.1-0.2-0.2c0-0.1,0-0.2,0.1-0.2c-0.1-0.1-0.1-0.3-0.4-0.2c0-0.2,0.2,0,0.2-0.2c-0.2,0-0.3-0.5-0.1-0.5
		c0-0.3-0.6-0.1-0.4-0.6c0,0,0.2-0.1,0.2-0.1c0-0.3-0.6-0.7-0.1-0.7c0-0.3-0.4,0-0.4-0.1c0.7-0.3,0.1-0.6-0.1-1.1
		c0,0.1,0.2-0.1,0.2-0.1c0-0.2-0.4-0.3-0.2-0.4c-0.2,0-0.1,0.2-0.3,0.1c0-0.1,0.1-0.1,0.1-0.2c-0.4,0.3-0.2-0.4-0.2-0.7
		c-0.2,0-0.1,0.3-0.2,0.3c-0.2-0.1,0-0.5-0.2-0.6c0.5-0.1-0.1-0.5-0.1-0.6c0.1,0.1,0-0.4-0.1-0.4c0.2,0.1,0.4-0.6,0.3-0.8
		c0-0.1-0.8-1-0.9-1c-0.1-0.1,0,0.3-0.1,0.2c-0.4-0.3-0.2-0.4-0.2-0.7c-0.1-0.1-0.1,0.2-0.2,0.2c-0.2,0-0.2-0.2-0.3-0.4
		c-0.1-0.1-0.4,0-0.5-0.4c0-0.1,0-0.4-0.1-0.6c-0.2-0.2-0.4,0-0.5-0.1c0,0-0.3-0.6-0.4-0.7c-0.3-0.3,0,0.2,0-0.2
		c0-0.1-0.2,0-0.2-0.1c0-0.1,0.1-0.1,0.1-0.1c-0.1-0.3-0.6-0.3-0.4-0.9c0,0,0.1,0,0.1,0c0-0.1,0-0.7-0.1-0.7
		c-0.2-0.1-0.2,0.1-0.1-0.1c0.2-0.2,0.2-0.4,0.3-0.6c0-0.1,0.2,0,0.2-0.1c0.1-0.1,0-0.2,0.1-0.3c0-0.1,0.2-0.1,0.3-0.2
		c0.4-0.5,0.2-0.6,0.7-0.6c0.2,0,0.3-0.2,0.4-0.2c0.4-0.1,0.9,0.3,0.9-0.2c0.2,0,0,0.1,0.1,0.2c0.3-0.1,0.3-0.6,0.6-0.6
		c0.3,0,0.3-0.4,0.6-0.6c0,0.2-0.2,0.2-0.2,0.3c0.3-0.3,0.6-1.3,1.2-0.8c0-0.2-0.3-0.3-0.1-0.5c0.3,0.2,0.1-0.3,0.2-0.6
		c1.1,0.2-0.1-1.5,0.7-1.5c-0.1-0.5-0.1-0.5-0.3-0.8c0.2-0.1,0.1,0.2,0.2,0.2c0-0.1,0-0.1,0.1-0.1c-0.2-0.4-0.2-0.5-0.1-0.8
		c0.1,0,0.1,0.1,0.2,0.1c-0.2-0.3,0-0.2,0.1-0.4c0.1-0.2,0-0.6-0.3-0.7c0,0,0.1-0.1,0.1-0.2c0.1,0,0.2,0,0.4,0
		c-0.2-0.3-0.3-0.5,0.1-0.6c-0.3-0.1,0-0.2,0-0.4c0-0.1-0.2-0.4,0.4-0.2c0.1-0.2-0.3,0-0.2-0.2c0.1,0,0.2,0,0.4,0
		c-0.2,0-0.2-0.2-0.3-0.3c0-0.2,0.2-0.1,0.3-0.1c-0.3-0.3,0.1-0.2,0.3-0.3c0-0.1,0-0.1-0.1-0.1c0.1-0.2,0.2,0,0.4-0.1
		c-0.1-0.4-0.1-0.7,0-0.5c-0.1-0.2-0.4,0-0.2-0.4c0,0.1,0.3,0.2,0.3,0c-0.3-0.3,0.3-0.5,0.2-0.7c0.5,0.2,0.5-0.4,0.6-0.7
		c-0.1,0.1-0.5,0.1-0.2-0.2c0,0,0.1,0.1,0.1,0.1c0.4-0.2-0.1-0.4,0.1-0.7c0.3,0.3,0.1-0.2,0.1-0.4c0.2,0,0.4,0.1,0.2,0.2
		c0.1,0,0.1-0.1,0.2-0.1c0-0.2-0.1-0.2-0.1-0.4c0.1,0,0.1-0.1,0.1-0.1c0.1,0,0.3,0.2,0.4,0c-0.1-0.1-0.3-0.1-0.4-0.2
		c0.4-0.1,0.4-0.4,0.2-0.2c-0.1-0.1-0.2-0.2-0.1-0.3c0-0.2-0.1,0.1-0.2,0c0-0.1,0-0.1-0.1-0.1c0.5-0.1-0.4-0.5,0.2-0.7
		c-0.1-0.2-0.3-0.2-0.4-0.4c0-0.1,0.1-0.1,0.2-0.1c-0.2-0.1-0.6-0.6-0.1-0.6c-0.1-0.2-0.4-0.6-0.1-0.6c-0.2-0.3,0-0.7-0.2-1
		c0.2,0,0.2,0.1,0.2,0.2c-0.1-0.4-0.2-0.6-0.1-1.1c0.1,0,0.2,0,0.3,0c-0.1-0.2-0.2-0.2-0.1-0.4c0.1,0,0,0.1,0.1,0.1
		c0.3,0-0.1-0.2-0.1-0.3c0,0.1,0.2-0.3,0.2-0.3c0,0,0.3,0,0.3-0.1c0.1-0.1,0.2-0.3,0.3-0.3c0,0,0.1,0.1,0.1,0.1
		c0.2-0.1,0.1-0.3,0.2-0.3c0.1,0,0.5,0.3,0.5-0.1c0.1,0,0.1,0.1,0.1,0.2c0.2-0.1,0.5-0.3,0.6,0.1c0.2,0,0.1-0.3,0.3-0.2
		c0.2,0.2,0,0.2,0.1,0.4c0.1,0,0.2-0.3,0-0.3c0.3,0.1,0.4-0.1,0.4,0.3c0.3-0.1,0.3-0.2,0.4-0.1c0.1,0,0.2-0.1,0.2-0.1
		c0.3,0.1,0.2,0.6,0.7,0.2c0.2,0.7,0.7,0.1,1.2,0.2c0.1,0.2-0.2,0.1-0.2,0.2c0,0.1,0.3,0,0.3-0.1c0.1,0.3,0.3,0.1,0.4,0.2
		c0.1,0.1,0,0.2,0,0.2c0.2,0.2,0.7-0.4,0.9-0.5c0.3-0.1,0.4,0.1,0.6-0.1c0.1-0.1-0.1-0.2,0-0.4c0.1-0.1,0.2,0,0.4-0.1
		c0.2-0.2,0.1-0.6,0.6-0.4c0-0.1,0-0.1,0-0.2c-0.2-0.1-0.2,0.2-0.4,0.1c0-0.1,0-0.1,0-0.2c0.1-0.1,0.1,0,0.2,0.1
		c0-0.1,0-0.2,0.1-0.3c0.2-0.1,0.1,0.2,0.2,0.2c0-0.1,0-0.1,0.1-0.1c-0.1-0.1-0.5-0.3-0.1-0.4c-0.1-0.2-0.3,0.1-0.4-0.1
		c0.1-0.2,0.1-0.2,0.3-0.1c-0.1-0.1,0-0.2-0.1-0.2c0.5,0.1-0.1-0.3-0.5-0.3c0.4-0.3,0.3-0.7-0.1-0.9c0.5-0.7-0.5-0.7-0.6-1.3
		c0.1,0,0.1,0.1,0.2,0.1c-0.5-0.1-0.2-0.6-0.6-0.8c0.1-0.4,0.6-0.7,0.2-1c0.1,0,0.2,0,0.2,0.1c0-0.2-0.2-0.2-0.2-0.4
		c0.1-0.1,0.1,0.1,0.2,0.1c-0.2-0.4,0.2-1.2,0.7-1.1c0-0.1-0.1-0.1-0.2-0.1c0.1-0.2,0.1-0.1,0.2-0.1c-0.2-0.8,0.7-0.5,0.7-1.2
		c0.2-0.1,0.1,0.1,0.1,0.2c0.3,0.2,0.3-0.2,0.5-0.2c0.8-0.1,1.1,0.7,2.1,0.6c0,0.1,0,0.2-0.1,0.2c0.1-0.1,0.3,0.1,0.3-0.1
		c0.2,0,0.2,0.2,0.3,0.2c0-0.5,1,0.1,0.4,0.4c0.3,0,0.6,0.1,0.7-0.1c0,0.2-0.1,0.2,0,0.3c0.2-0.4,0.8,0,0.6,0.3
		c0.4-0.1,0.3-0.4,0.7-0.2c0.2-0.4,0.5-0.2,0.5,0c0,0.1,0.1,0.2,0.2,0.2c0,0,0.1-0.2,0.1-0.2c0,0,0.4,0.3,0.3,0
		c0.2,0.2,0.6,0.5,0.8,0.1c-0.2-0.2-0.2,0.2-0.4,0.1c0.4-0.5-0.3-1.1-0.2-0.4c-0.5-0.6,0-0.3,0-0.9c0.1,0,0.1,0,0.1,0.1
		c0.1-0.2,0.1-0.4,0.2-0.5c0.7,0.1,0.8-0.5,0.4-0.6c-0.1-0.4,0.9-1.2,0.2-1.5c0.1-0.2,0.2,0.1,0.3-0.1c-0.1-0.2-0.2-0.7,0.1-0.7
		c0-0.1-0.2-0.1-0.2-0.2c0-0.2,0.1-0.2,0.2-0.4c0.2,0.1,0,0.2-0.1,0.3c0,0,0.7-0.4,0.7-0.4c0-0.1-0.2-0.3-0.1-0.4
		c-0.7,0.1,0.1-0.6-0.1-0.9c0.5,0.4,1.1-0.2,0.8-0.5c0-0.2,0.6,0.1,0.4-0.3c0.1,0,0.8,0,0.9-0.1c0.3-0.3-0.1,0.1,0.2,0.1
		c0.1,0,0-0.2,0.1-0.2c0.2,0,0.1,0.3,0.3,0.1c0.3-0.3,0.3,0.2,0,0.4c0.3,0,0.1-0.1,0.1,0.2c0.1,0.5,1.4,0.1,1.3,1
		c0.1,0,0.1-0.1,0.1-0.2c0.1,0.2,0.2,0.5,0.6,0.2c0.2,0.5,0.3,0.3,0.7,0.2c0.1,0,0,0.2,0.1,0.2c0,0.1-0.1,0.1-0.2,0.1
		c0.3,0,0.5,0.5,0.7,0.3c0.1,0.1,0,0.4,0.3,0.3c0-0.1,0-0.1-0.1-0.1c0-0.2,0.2,0,0.2,0c0,0.1-0.1,0.2-0.2,0.2
		c0.1,0.2,0.1,0.1,0.2,0.1c-0.1,0.1-0.2,0.2-0.3,0.1c-0.2,0.1,0.1,0.1,0.1,0.2c-0.1,0-0.2,0.1-0.4,0.1c0.4,0.3,1-0.3,0.7-0.6
		c0.2-0.1,0.4,0.1,0.4,0c0.2,0.1-0.2,0.2-0.3,0.3c0.1,0.3,0.4,0,0.6,0c0,0.4,0.5,0.1,0.6,0.4c0-0.1,0-0.1,0.1-0.1
		c0-0.1-0.2,0-0.2-0.2c0.7,0.2,0.2-0.4,0.2-0.8c0-0.3,0.5-0.3,0.4-0.6c0.2,0,0.2,0.1,0.2,0.2c-0.3,0-0.4,0.4-0.2,0.5
		c0-0.5,0.4-0.4,0.2-0.7c0.5-0.1,0-0.2,0.4-0.4c0.1-0.2-0.3-0.1-0.2-0.4c0.8,0.4,0.3-1.3,1-1.1c-0.1-0.2-0.3-0.2,0.1-0.3
		c-0.4-0.2,0.2-0.8,0.5-0.7c-0.2-0.5,0.2-0.4,0.5-0.5c-0.3-0.1,0-0.4,0.3-0.2c-0.2-0.2-0.2-0.2-0.5-0.1c0.5-0.7,1.3-0.5,1.9-0.8
		C64.2,17.1,64.3,17.5,64.1,17.6z M91.9,29.6c-0.2-0.1-0.4,0-0.6-0.1c0.1,0,0.1-0.2,0.1-0.1c0,0-0.2,0-0.2-0.1
		c0-0.1,0.1-0.1,0.1-0.2c0-0.3-0.4-0.2,0.1-0.6c-0.1-0.1-0.1,0.1-0.2-0.1c0-0.1,0.1-0.1,0.1-0.1c0.1,0,0.3,0.4,0.2,0.2
		c0.1-0.1-0.2-0.2,0-0.2c0.1,0.3,0.3-0.2,0.6,0.2c-0.1,0.2-0.3,0.1-0.4,0.1c0.2,0.4,0.6,0,0.6,0.6c-0.1-0.5,0.3-0.7,0.3-0.9
		c0.3,0,0.1,0.3,0.4,0.2c0-0.5,0.7,0,0.7,0.3c0.2-0.2-0.1-0.9-0.4-0.5c-0.1-0.5,0.2-0.3,0.6-0.6c-0.3-0.2-0.4-0.4-0.6-0.4
		c0.1,0-0.5,0-0.1-0.1c-0.3,0-0.4-0.1-0.7-0.2c0.3,0.6-1,0.4-0.4,0.7c-0.1,0-0.3-0.1-0.2,0.1c0.5,0.5-1,0.3-1.2,0.2
		c0.2,0.1-0.2,0.1-0.4,0c0,0.1,0.1,0.2,0,0.2c-0.5,0-0.1-0.4,0-0.5c-0.2,0.1,0.9,0.1,0.4-0.2c0.1,0,0.1,0.1,0.3,0.1
		c0-0.3-0.2-0.7,0.1-0.8c-0.3,0-0.5,0.2-0.4,0.4c-0.2,0.1-0.1-0.3-0.2-0.2c0,0.1,0.1,0.3-0.1,0.2c0-0.1,0-0.3-0.2-0.4
		c0,0-0.2,0.1-0.4-0.1c-0.1-0.1,0-0.6-0.2-0.2c0,0-0.1-0.3,0-0.4c0.2,0.3,0.2-0.6,0-0.7c0.1,0.2-0.2,0.1-0.2,0c0-0.1,0.2-0.5,0-0.4
		c-0.2,0.7-0.9,0.7-1.2,0.4c0.1,0,0.2,0,0.2-0.1c-0.4-0.2-1.3-0.2-0.7-0.6c0,0.1-0.1,0.1,0,0.1c0.1-0.3,0.6-0.3,0.7-0.2
		c-0.1-0.3-0.8-0.5-1.1,0.1c0.1,0,0.2-0.1,0.2,0c-0.1,0.1-0.2,0.2-0.4,0.2c0,0.2,0.3,0.2,0.1,0.4c-0.2-0.1-0.1-0.4-0.2-0.5
		c-0.4,0.2-0.8,0.1-1.2-0.1c0-0.2,0.3,0,0.3-0.2c-0.1-0.1-0.3,0.1-0.4-0.2c0.3-0.1,0.4-0.2,0.3-0.6c-0.3,0.2-0.3,0.2-0.5-0.1
		c0.1,0.3-0.2,0.1-0.2,0.2c-0.1,0.2,0.2,0.6-0.1,0.7c0-0.1-0.1,0-0.1-0.1c0-0.1,0.3-0.2,0.1-0.2c-0.3,0-0.2,0.2-0.4,0.3
		c0-0.2,0-0.1,0.1-0.3c-0.1,0-0.1-0.1-0.2-0.1c-0.1,0.5-0.4-0.4-0.4-0.4c-0.3-0.1-0.5,0-0.6,0.4c0-0.1-0.2-0.2-0.2-0.1
		c0.1,0,0,0.1,0,0.1c0-0.1,0-0.1-0.1-0.1c-0.1,0.3,0.4,0.3,0.3,0.6c-0.1,0.3-0.4,0-0.4,0c0,0-0.2,0.4-0.5,0c-0.1-0.1,0-0.3-0.2-0.4
		c0.1,0.1-0.8-0.1-0.7,0.2c0.1,0,0,0.1,0.2,0.2c-0.2,0-0.3-0.1-0.4,0.3c0.4,0.1,0.1-0.1,0.3-0.2c-0.2,0.3,0.2,0.1,0.3,0.2
		c0,0-0.1,0.1,0,0.2c-0.1,0,0.6,0.1,0.6,0.1c0.1,0,0.4-0.1,0.4,0.2c0,0-0.1,0.1-0.1,0.1c0,0.1,0.3-0.1,0.2,0.2
		c0-0.1-0.4,0.4-0.4,0.1c-0.2,0.2,0.1,0.5-0.1,0.6c0.2-0.6-0.5,0.1-0.4,0.2c0.1,0.4,0.6-0.1,0.7,0.2c-0.1,0.1-0.2,0.1-0.2,0
		c0,0.1-0.1,0.4,0.1,0.4c0.2-0.1,0.1-0.1,0-0.2c0.6,0,0.1,0.4-0.1,0.6c-0.1,0-0.4,0-0.6,0.2c0,0,0,0.2,0,0.2
		c-0.3,0.2-0.5,0.2-0.6,0.7c-0.1-0.2,0.1-0.2,0.1-0.3c-0.2,0.1-0.3,0-0.4,0.1c0,0.2,0.3,0.1,0.3,0.2c-0.1,0-0.1,0.2-0.3,0.2
		c0-0.3-0.2-0.4-0.2-0.7c-0.2,0.1-0.3,0-0.6,0c-0.3,0-0.8,0.2-1.1,0c-0.1-0.1,0-0.4,0-0.4c-0.1-0.2-0.4-0.1-0.6-0.1
		c-0.3-0.1-0.5-0.3-0.7-0.2c-0.3,0-0.3,0.1-0.6,0.1c0.3-0.4-0.4-0.3-0.4,0.1c0-0.2,0.4,0.2,0.4,0.3c0,0.4-0.4,0.2-0.4,0
		c-0.1,0.1,0,0.2-0.2,0.2c-0.1-0.3-0.2-0.2-0.4-0.4c0,0.7-0.7,0.1-0.9,0c0,0,0-0.1,0-0.1c0.4,0.1,0.6,0,0.7-0.1
		c-0.3,0.1,0.2-0.1,0.4-0.2c-0.2,0.2,0.2-0.7,0.2-0.6c0-0.1-0.4-0.4-0.6-0.6c-0.2-0.1-0.7-0.3-0.7-0.4c0-0.2,0.6-0.2,0.7,0.3
		c0.1-0.4,1.1-0.1,1.5,0.1c-0.2-0.4,0.8-0.2,0.8-0.2c0,0,0.2-0.4,0.3-0.2c0.1,0.2-0.1,0.3,0.1,0.4c0.2-0.2,0.2,0.1,0.3-0.2
		c0.3,0.1,0.7,0.3,1,0.1c-0.3,0.2,0.4-0.7,0.4-0.6c0,0,0-0.4-0.2-0.5c-0.4-0.1-0.6-1.4,0.1-1.3c0.1,0-0.1,0.1,0.1,0.3
		c0.1,0.1,0.4,0,0.3,0.2c0.1-0.1,0.2-0.2,0.3-0.3c0,0.1,0,0.2,0.1,0.2c0.5-0.3,0.4-0.7,0.5-1c0.2,0.4,0.6,0.1,0.8,0.2
		c-0.1-0.4-0.1-0.6-0.4-0.8c0,0,0.1-0.1,0.1-0.1c-0.1,0.4-1-0.2-1.1-0.4c0,0,0.2-0.1,0.1-0.1c0,0-0.2,0-0.2-0.1
		c-0.2-0.2-0.2-0.4-0.6-0.1c0.1-0.4-0.1-0.1-0.3-0.1c0,0,0-0.1-0.1-0.1c-0.1,0-0.2,0.2-0.4,0.2c-0.1,0-0.3-0.2-0.4,0
		c0-0.2,0-0.4-0.1-0.6c0.2,0.2-0.3-0.1-0.2-0.1c-0.2,0-0.6,0.2-0.9,0.2c-0.2,0-0.3-0.2-0.2,0.1c0.1,0,0.2,0,0.2,0.1
		c-0.3,0.1-0.6,0.2-0.6-0.4c-0.3,0.2-0.2-0.2-0.6-0.3c0,0-0.3-0.4-0.2-0.4c-0.5-0.3-0.9-0.1-1.2,0.2c0.4,0,0.6,0.2,0.8,0
		c0.1,0.5-0.4,0.1-0.6,0.2c-0.1,0.1,0,0.1-0.1,0.2c0,0-0.1-0.1-0.2-0.1c0,0-0.2,0.3-0.3,0.3c-0.1,0-0.2,0-0.2,0.2
		c-0.2-0.4-0.6,0-1-0.3c0,0.1,0.1,0.1,0.1,0.2c-0.3-0.3-1.3,0.5-0.9,0.8c0,0,0.2,0,0.2,0c0,0-0.1,0.1,0,0.1c0.1,0,0.8-0.3,0.6,0.1
		c0.1-0.1,0.1-0.1,0.2-0.2c0.1,0.2,0.1,0.3-0.1,0.5c-0.1,0-0.1-0.3-0.2-0.2c0.1,0.2-0.2,0.4-0.3,0.3c0-0.1,0.2,0,0.2-0.1
		c-0.1-0.1-0.4-0.1-0.6-0.1c-0.1,0,0,0.3-0.1,0.4c0.1,0-0.7-0.1-0.5-0.6c-0.4,0.2-0.4-0.1-0.5-0.2c-0.1-0.1-0.2-0.2-0.4-0.5
		c-0.1,0.3-0.7-0.1-0.5-0.3c-0.4,0,0,0.2-0.1,0.2c-0.3,0-0.4-0.1-0.7,0.1c0,0-0.1-0.1-0.1-0.2c0.4,0.2-0.2-0.6-0.2-0.8
		c0-0.2,0.2,0,0.1-0.3c0,0.1-0.1,0.1-0.2,0.1c0-0.1,0-0.2,0.1-0.2c0.1,0,0.3,0,0.4-0.1c-0.3-0.2-0.3-0.6,0.1-0.5
		c-0.2-0.1-0.1-0.2-0.2-0.4c-0.1,0.5-0.4,0-0.6,0c-0.2,0-0.1,0.4-0.4,0.2c0.1,0.3,0.1,0.4,0,0.6c-0.1,0-0.1-0.1-0.1-0.2
		c-0.5,0.2-0.3,1.1-1.1,0.8c0,0.3-0.1,1.3,0.4,1c0.1,0.1,0.1,0.2,0.1,0.3c0.1,0,0.2,0,0.3,0c-0.1-0.6,0.9,0.2,1.1,0.5
		c0.2-0.1,0.2-0.3,0.3-0.6c0.3,0,0.7,0.6,0.5,0.6c-0.1,0-0.4-0.3-0.4-0.2c-0.1,0,0.1,0.4-0.1,0.4c0.1,0.2,0.5,0.1,0.4,0.5
		c-0.2,0.1-0.2-0.1-0.2,0c0.1,0.1,0.3,0.2,0.6,0.3c0,0.1-0.3,0.2-0.1,0.2c0-0.2,0.4-0.2,0.4,0c-0.1,0-0.2-0.1-0.2,0
		c0.5,0,0.9,0.3,1.2,0c-0.1,0.1,0,0.5-0.2,0.4c0,0.2,0.2,0.1,0.2,0.3c-0.4-0.2-0.3,0.2-0.6,0.1c0.1,0.2,0.9,0.3,0.2,0.6
		c-0.1-0.3-0.3-0.4-0.6-0.5c-0.1,0.1,0.1,0.4,0,0.4c-0.3,0,0.1-0.2-0.1,0.1c-0.1,0.2-0.3,0-0.4-0.2c-0.4,0.7,0.4,0.4,0.6,0.7
		c0.2,0,0.1-0.2,0.3-0.2c-0.2,0.4,0.2,0.2,0.4,0.3c0.1,0.1,0.2,0.5,0.3,0.5c0.2,0.1,0.3-0.1,0.4,0.1c0.1,0.5-0.5,0.4-0.8,0.7
		c0.2,0,0.1,0.3,0.2,0.4c-0.2,0.1-0.4,0.2-0.6,0.3l-0.2-0.2l0,0.2c-0.1,0-0.6-0.1-0.7-0.2c-0.1,0.1-0.2,0.3-0.1,0.6
		c-0.1,0-0.1-0.2-0.3-0.1c0,0.5-0.4,0.1-0.6,0.2c-0.2,0.6,0.6,0.9,0.2,1.4c0.1,0,0.2,0,0.2,0.1c0-0.1,0-0.2,0.1-0.2
		c-0.2,0.7-0.5,0.1-0.9,0.5c0-0.4,0.3-0.4,0.4-0.3c0.2-0.1,0-0.2,0-0.3c-0.5,0.1-0.5,0-0.9-0.2l0-0.1l0-0.1c0.3,0,0-0.3,0-0.4
		c0.1,0,0.1,0.1,0.2,0.1c0-0.3-0.2-0.3-0.2-0.6c0.2,0,0.4,0.4,0.5,0.1c-0.7-0.2-1.1-0.4-1.7-0.3c0.2,0.2,0.4,0,0.4,0.2
		c-0.8-0.1-0.7-0.8-1.5-0.6c0-0.2,0.3,0,0.2-0.1c-0.2,0-0.1-0.2-0.2-0.3c0.1,0,0.2,0,0.2-0.1c-0.1,0,0-0.1,0-0.1
		c-0.4,0.1-0.5-0.4-0.6-0.1c-0.1-0.3-0.8-0.3-1.1-0.2c0.1,0.4,0.6,0.3,0.7,0.7c-0.1,0-0.1-0.1-0.2-0.1c0.1,0.3,0.1,0.6-0.2,0.8
		c0.1-0.2-0.2-0.4,0.1-0.6c-0.3,0.1-0.5,0.7-1,0.6c0.2,0,0.3,0.3,0.4,0.3c0,0,0.1-0.2,0.2-0.1c0.1,0,0.3,0.6,0.2,0.7
		c0,0-0.3,0-0.3,0.1c0.1,0,0.2,0.2-0.2,0.1c0,0.5,0.4,0.3,0.5,0.7c0.1-0.2,0.4-0.3,0.6,0c-0.4-0.3-0.7,0.3-1,0c0,0,0.1-0.1,0-0.2
		c0,0-0.2,0.2-0.2,0c-0.2,0.3,0.2,0.1,0.2,0.4C65,30,65,30.1,64.9,30.2c0.6,0,1.1,0.2,0.9,0.7c-0.1-0.1-0.1-0.3-0.3-0.2
		c0.3,0.5,0,0.4-0.2,0.8c0.4-0.2,0.3,0,0.6,0.1c-0.2,0-0.3,0-0.4,0.1c0.3,0,0.7,0,0.5-0.3c0,0,0.1-0.1,0.2-0.1c0,0.2,0,0.3,0.1,0.3
		c0-0.1,0-0.2,0.1-0.2c0.3,0.1-0.1,1.3,0.6,1.1c0.1,0,0.2-0.4,0.2-0.4c0-0.1-0.5-0.1-0.6-0.3c0-0.1,0.1-0.2,0.1-0.4
		c0,0-0.2-0.1-0.1-0.4c0.1-0.2,0.3,0,0.3-0.1c0,0.1-0.4-0.4-0.1-0.4c0,0.6,1-0.1,1,0.7c-0.1,0-0.2-0.1-0.2-0.1
		c-0.1,0.1-0.1,0.2-0.1,0.4c0.7,0.2,1.2-0.2,1.1-0.7c0.2,0.2,0.1,0.3,0.4,0.4c-0.2,0.1-0.2,0.3-0.3,0c0,0.1-0.1,0.1-0.1,0.2
		c0.2,0.3,0.3-0.1,0.5-0.2c0,0,0.1,0.1,0.2,0.1c0,0,0-0.2,0.1-0.2c0.3-0.2,0.2,0,0.4-0.3c-0.1,0.1,0.3-0.1,0.2-0.1
		c0.1,0,0.3,0.2,0.6,0.2c0.2,0,1.1,0,1.1,0.4c0-0.1-0.3,0.2-0.4,0.4c0,0.1-0.2,0-0.2,0.1c-0.1,0.1,0.1,0.1,0.1,0.2
		c-0.1,0.2-0.3,0-0.2,0.3c0.1,0.2,0.6,0.1,0.6,0.6c0.3-0.1,0.3-0.2,0.5-0.2c0.2,0,0.2,0.2,0.4,0.3c0.1,0,0.3,0,0.4,0
		c0,0,0,0.2,0.1,0.2c0,0,0.5,0.1,0.4,0.4c-0.2,0.4-0.8,0-0.9,0.1c-0.2,0.1,0,0.6-0.1,0.5c0.1,0.1,0.7-0.1,0.6-0.1
		c0.4,0.2-0.1,0.6,0.2,0.8c-0.1,0-0.1-0.1,0-0.1c0.2,0.1,0.2,0.2,0.1,0.4c-0.1,0-0.1-0.2-0.2-0.2c0,0.1-0.1,0-0.1,0.1
		c0,0.5,0.8,0.4,0.9,0.2c-0.8-0.5,0.6-0.6,0.6-1.2c-0.1,0.1-0.4,0.2-0.4,0.1c0-0.1,0.1,0,0.1,0c-0.3-0.1,0-0.7,0.2-0.3
		c0.1-0.4,0.4,0,0.4,0c0.1-0.1-0.1-0.4,0.2-0.6c-0.1-0.2-0.4-0.1-0.5-0.2c-0.1-0.1,0.2-0.8,0.3-0.8c-0.1,0,0.3,0.1,0.4,0.1
		c-0.2,0.1,0.2-0.2,0.2-0.2c-0.5,0-0.2-0.5-0.6-0.7c0-0.2,0.2,0,0.2-0.2c-0.6-0.1-1.1,0-1.1-0.7c0.4,0,0.4,0.1,0.7,0
		c0,0.1-0.1,0.3,0.1,0.3c0.2,0-0.1-0.1,0-0.2c0.2,0,0.3-0.1,0.5-0.1c-0.5-0.6-0.2-1.3,0.4-0.7c0-0.1,0.1-0.1,0.2-0.1
		c0.1-0.2-0.2,0-0.1-0.2c0.5-0.2,0,0.4,0.2,0.6c0.4-0.2,0.6,0.6,0.7,0.7c0.2,0.1,0.3-0.2,0.3,0.1c0,0.1-0.4,0.1-0.2,0.3
		c0.1-0.1,0.2-0.2,0.2-0.3c0.2,0.2,0.7,0.2,0.7,0.6c-0.1,0-0.4,0.1-0.4,0.1c-0.1,0.3,0.6,0.3,0.8,0.6c0,0,0.3,0.1-0.1,0.4
		c0.3,0,0.3,0.2,0.4,0.4c-0.2-0.1-0.7,0-0.7,0.1c-0.2,0.2,0.3,0.4,0,0.6c0.3-0.3,1.1,0.1,0.7,0.2c0.5,0,0.6,0.2,0.8-0.2
		c-0.1,0.2,0.1,0.3-0.1,0.4l-0.2,0.2l0.2,0.2c0,0.1-0.2,0.1-0.2,0.1c0.1,0.2,0.5,0.3,0.6,0.3c-0.1,0,0.1-0.2,0.1-0.2
		c0.1,0.1,0.2,0.2,0.3,0.2l0.2,0.1l0-0.2c0.5-0.2,0.8,0.2,1.3-0.2c0,0.2-0.1,0.2,0.1,0.2c0-0.2,0.2-0.2,0.2-0.4
		c-0.4,0,0-0.3,0.1-0.3l0.1,0.2l0.3,0c0.4-0.1,0.9,0.2,0.7,0.6c0.2-0.1,0.1-0.2,0.2,0.1c-0.3,0.1-0.3-0.2-0.5-0.2
		c-0.1,0.2,0.1,0.5-0.1,0.5c-0.1,0-0.1-0.2-0.2-0.1c-0.2,0.1-0.2,0.4-0.5,0.2c0.2,0,0.1,0.6,0.1,0.6c0,0,0.5,0.2,0.6,0.3
		c0,0-0.1,0.1,0,0.1c0,0,0.3,0,0.3-0.1c0-0.1-0.3,0-0.2-0.2c0.3,0.1,0.6,0,0.7,0.1c-0.1-0.1-0.1-0.2-0.1-0.3c0.1,0,0.1-0.1,0.1-0.1
		c0.1,0.2,0.1,0,0.4,0.1c0.1-0.2,0.1-0.4,0.1-0.6c0.2-0.1,0.2,0.1,0.4,0c-0.3-0.4,0.1-0.5,0.4-0.7l0.2,0l0-0.2
		c0.2-0.2,0.1-0.1,0.4,0c-0.8-0.7-0.1-0.7-0.6-1.5c0.1,0,0.4,0.1,0.3-0.1c-0.3,0.1-0.3-0.2-0.2-0.3c0.1-0.1,1,0.1,0.9-0.3
		c0.2,0.2,0.8,0,0.9-0.2c0.2,0.5,0.4,0.2,0.9,0.2c-0.1,0.3-0.4,0.2-0.5,0.6c0,0,0.2,0,0.1,0.1c-0.3,0.3-0.5,0-0.6,0.2
		c0.1-0.1-0.1,0.5-0.1,0.4c0,0,0.2,0,0.2,0.1c0,0.1-0.2,0.3,0.1,0.2c-0.3,0-0.1,0.2-0.4,0.4c0.2-0.2-0.3,0.2-0.4,0.2
		c-0.2,0-0.3-0.2-0.4-0.1c-0.1,0.1-0.1,0.3,0.1,0.4c0.1-0.1-0.1-0.3,0.1-0.4c0.3,0.2-0.1,0.5,0.5,0.4c0,0.6,0.2,0.6,0.4,0.9
		c-0.3-0.1-0.2,0.1-0.4,0.2c0,0-0.2-0.1-0.2,0c-0.3,0.2-0.3,0.6-0.6,0.7c0,0-0.3-0.2-0.1,0.1c0.2-0.3,0.2,0.2,0.4,0.2
		c0-0.1,0.1-0.2,0.2-0.2c0,0,0.1,0.1,0.1,0.1c-0.5,0-0.8,0.3-1,0.9c0.6-0.2,0.4,0.4,0.4,0.4c0,0,0.5,0.1,0.2,0.3
		c0.4,0,0.5,0.4,0.8,0.3c0.1,0.2-0.1,0.1-0.1,0.2c0.1,0.1,0.4,0.1,0.4,0c-0.1,0.4,0.4,0.2,0.4,0.4c0-0.2-0.2-0.2-0.2-0.4
		c0.2-0.2,0.2,0.1,0.2,0.1c0.1,0.1,0.1-0.2,0.2-0.1c0.2,0.2,0,0.6,0.3,0.7c-0.2-0.1-0.4,0.1-0.6-0.1c0-0.1,0.4-0.1,0.2-0.3
		c-0.6,0.2-0.2,0.6,0.2,0.8c0.1-0.1,0.1-0.3,0.2-0.2c0.2,0.2-0.1,0-0.1,0.2c0.2-0.1,0.3,0.3,0.4,0.2c-0.4-0.3-0.3-1,0-0.5
		c0-0.6,0.8-0.2,1.1-0.3c0.2-0.1,0-0.2,0.2-0.2c0.1,0,0.4,0.2,0.4-0.1c0,0,0.1,0.1,0.1,0.2c-0.1,0-0.2,0-0.2,0.1
		c0.3-0.2,0.5,0.2,0.6,0.5c-0.3,0-0.6,0-0.9-0.1c0,0.2,0.2,0.4,0.2,0.5c0.4-0.2,0.8,0.3,1.2,0.1c0,0.5-0.3,0.2-0.5,0.3
		c0.1,0.1,0.2,0,0.2,0.1c-0.2,0.3-0.7,0.6-0.1,0.8c0.2-0.3-0.2-0.1-0.3-0.2c0.2-0.2,1.6-0.4,1.1,0.2c0,0.2,0.2,0.1,0.2,0.2
		c-0.1,0.1-0.2,0.2-0.3,0.3c0.4,0.2,0.3,0,0.6-0.1c-0.1,0.1,0,0.3,0.1,0.3c0.2-0.1-0.1-0.3,0.1-0.4c0.5,0.3-0.3,0.5-0.5,0.7
		c0-0.1,0.2-0.1,0.2-0.2c-0.8,0.3,0.3,0.9,0.6,0.5c-0.1,0.2,0.1,0.2,0.2,0.2c-0.1-0.1-0.2,0-0.2-0.2c0.1,0,0.2-0.1,0.4,0
		c-0.1,0-0.2,0.1-0.1,0.1c0.1,0.1,0.6,0.1,0.7,0.4c0.2,0.1,0-0.2,0.2-0.1c-0.1,0.5,0.8,0.1,1-0.2c-0.5,0.2-0.5-0.2-0.7-0.4
		c0,0.2,0.2,0.3-0.1,0.4c0.2-0.6-0.8-0.4-0.9-0.6c-0.2-0.7,1.4-0.4,1.6-0.1c0.1-0.2-0.2-0.3,0-0.3c0.4,0.7,0.5-0.6,0.9-0.7
		c0-0.2-0.2-0.1-0.2-0.4c0.3-0.1,0.5,0,0.6,0.2c-0.1,0-0.1-0.2-0.2-0.1c-0.3,0.3,1.2,0.9,0.7,1.1c-0.2,0.1-0.2-0.1-0.4-0.1
		c0,0.5,0.6,0.3,0.7,0.1c-0.5,0,0.1-0.5,0.2-0.5c0.1,0.1-0.1,0.3,0.1,0.2c0.3-0.2,0.4-0.9,0.1-0.8c0.2-0.2,0.5-0.4,0.2-0.7
		c0.1,0,0.1,0.2,0.2,0.1c-0.1,0-0.1-0.1-0.1-0.2c-0.2-0.1-0.3,0.2-0.5,0.1c0.2,0.1,0.1-0.5,0.4-0.6c0,0.1-0.2,0.3-0.1,0.4
		c0.4-0.1,0.6-0.1,1.1,0c0.1-0.2-0.3,0-0.2-0.2c0.4,0.1,0.2-0.2,0.4-0.3c0.2-0.2,0.4-0.1,0.4-0.5c0,0-0.2-0.1,0-0.2
		c0.4,0.6,0.6,0.1,0.6-0.2c0.4,0.2,0.5-0.2,0.7-0.4c-0.2,0.3-0.1,0.4,0.2,0.4c-0.1-0.4,0-0.3,0-0.7c-0.2-0.1-0.2-0.2-0.4,0.1
		c0,0-0.1-0.1-0.1-0.1c0.2-0.2,0.4-0.7,0.4-0.8c-0.1-0.2-0.4-0.1-0.6-0.1c-0.3-0.1,0-0.2-0.3,0c-0.1,0.1-0.5,0.4-0.3,0.7
		c0.2-0.5,0.5,0.3-0.2,0.1c0,0.3,0,0.3,0.1,0.6c0.2,0.1,0.1-0.2,0.2-0.2c-0.1,0.3,0.1,0.2,0.1,0.4c-0.2-0.1-0.4-0.1-0.6,0.1
		c0-0.1,0.2-0.2,0.1-0.2c-0.2,0.4-0.6,0.8-1,0.8c0-0.1,0.2-0.1,0.2-0.2c-0.2-0.2-0.1-0.2-0.4-0.1c0.1-0.5-0.5-0.5-0.9-0.6
		c0,0.3,0,0.5-0.2,0.6c-0.1,0-0.3-0.3-0.4,0.1c-0.2,0.1-0.2-0.5-0.4-0.1c0.1,0,0.2-0.1,0.2,0c-0.2,0.1-0.4,0.2-0.6,0.2
		c0,0.2,0.2,0.1,0.1,0.3c-0.3,0-0.1-0.2-0.4-0.1c0.4-0.3-0.2-0.3-0.2-0.4c0-0.2,0.3-0.3,0.4-0.7c-0.6-0.2-0.8-0.1-1,0.4
		c0.2-0.5-0.5-0.2-0.2-0.6c-0.4-0.1-0.1,0.5-0.4,0.3c0.1,0,0-0.3,0.1-0.3c-0.1-0.1-0.1,0-0.2,0.1c-0.2-0.3,0.3-0.3,0.3-0.6
		c-0.6-0.1-0.3,0.7-0.9,0.8c0.1,0,0.1,0.2,0.2,0.4c-0.4,0-1,0.2-1.2,0.2L91,38.3l-0.2,0.2c-0.7,0,0-0.3-0.2-0.7
		c-0.6,0.2-0.9,0.5-1.1-0.3c0-0.1-0.1-0.4-0.2-0.5c0,0-0.2-0.2,0.2-0.2c-0.3,0.3,0.3,0.4,0.4,0.3c0.1-0.1-0.2-0.5,0.1-0.4
		c-0.3,0.3,0.7,0.5,0.8,0.6c0-0.1,0.3-0.3,0.5-0.2c0-0.1-0.2-0.3-0.1-0.4c0,0.1,0.3,0,0.3-0.1c0.1-0.1,0-0.3,0-0.4
		c0-0.1,0.7-0.3,0.7-0.3c0,0,0.4,0.4,0.6,0.1c-0.3-0.3-0.6-0.6-0.7-0.1c-0.3-0.2-0.1-0.7-0.4-0.9c-0.3-0.2-0.8,0.3-1.2-0.1
		c-0.1-0.1,0-0.3-0.2-0.6c0.3,0.2,0.2-0.3,0.6-0.3c0.2,0,0.2,0.4,0.4,0.4c-0.1,0,0.1-0.1,0.1-0.1c-0.1,0,0.4,0.1,0.5,0
		c0.1-0.1,0-0.5,0.2-0.5c0.2,0.5,1.1,0.1,0.6-0.2c0.5-0.2,0.1-0.3,0.3-0.7c0.1,0.1,0.2,0.2,0.3,0.2c0-0.1-0.1-0.2,0-0.2
		c0.2,0.2,1.1,0.5,0.9,1c0-0.2,0.4-0.3,0.4-0.1c-0.1,0-0.1-0.1-0.2-0.1c0.1,0.4,0.5,0.1,0.5,0.6c-0.4-0.1-0.5,0.4-0.9,0.6
		c0.4,0.6,0.9-0.5,1.4-0.3c0.2,0.1,0.1,0.2,0.3,0.2c0,0,0.8-0.2,0.4,0.2c0.4-0.2,0.5-0.5,0.2-0.9C96.3,34,96.1,34,96,34
		c-0.1-0.5-0.6,0.1-0.7-0.4c0.2-0.1,0.2,0,0.3,0.1c-0.1-0.5-0.5,0.2-0.6-0.2c-0.2,0.4,0.1,0,0.1,0.3c-0.4,0.2-0.4-0.3-0.2-0.5
		c-0.4-0.1-0.6-0.5-0.8-0.7c0,0-0.1,0.1-0.1,0.1c0,0-0.1-0.3-0.1-0.3c-0.3-0.2-0.7,0-1-0.2c-0.1-0.1,0-0.3-0.1-0.4
		c-0.1-0.1-0.3-0.1-0.4-0.3c0.2,0.1,0.1-0.1,0.2-0.2c0,0,0.1,0.1,0.2,0.1c0.2-0.1-0.1-0.7-0.2-0.9c0,0-0.4-0.1-0.4-0.4
		c0.3,0.4,0.3,0.1,0.6-0.1c0,0.1-0.1,0.2,0,0.2c0.1-0.3,0.5,0,0.4-0.4c-0.1,0.2-0.2,0-0.4,0.1c0-0.2-0.1-0.3-0.2-0.2l-0.2-0.2
		L91.9,29.6z M64.8,19.9c-0.1,0-0.2,0-0.2-0.1c-0.1,0.5,0.4,0.1,0.2,0.5c0.2,0.1,0.2-0.2,0.4-0.1c0.1,0.2,0,0.3,0.1,0.4
		c0.3-0.3,0.2-0.7,0.1-1c0.1,0.1,0.5-0.1,0.4-0.1C65.3,19.5,64.5,19.4,64.8,19.9z M64,21.6c0.3,0.2,0.7-0.3,1.1-0.2
		C65,21.8,65.2,22,65.2,22c0.6,0.1,0.3-0.7,0.3-0.9c0.1,0.1,0.2,0.3,0.3,0.4c0.1-0.2-0.3-0.4,0-0.4c0,0.2,0,0.2,0.2,0.2
		c0-0.7-0.5-0.5-0.9-0.5c0.1,0.4,0.2,0.2,0.3,0.6c-0.4-0.1-1.4,0.2-0.7-0.3c-0.2-0.2-0.3-0.3-0.4-0.3c0,0-0.3,0.2-0.4,0.2
		c0-0.6-0.9-0.3-0.9-0.2c-0.4,0.5,0.5,0.4,0.5,0.4c0.4,0.1,0.3,0.7,0.5,0.7c-0.2-0.1,0-0.3,0.2-0.3c0,0.1,0,0.1,0.1,0.1
		C64,21.6,64,21.5,64,21.6z M52.5,22.7c0,0.4,0.6,0.4,0.9,0.3c-0.5-0.1-0.3-0.8,0-1c-0.2-0.1-0.2-0.1-0.4,0c0-0.3-0.1-0.3-0.2-0.4
		c0.1,0.3,0.3,0.3,0.1,0.5c0.1,0,0.4-0.1,0.4,0.1c-0.1,0.1-0.4,0-0.4,0.2c0.2,0,0.1-0.2,0.4-0.1c0,0,0,0.1,0,0.1
		C52.7,22.5,52.8,22.7,52.5,22.7z M67.7,24.8c0-0.1-0.1-0.4,0.1-0.4c0.1,0.1-0.1,0.3,0.2,0.2c-0.3-0.2,0.2-0.4-0.1-0.7
		c0,0.1,0.1,0.4-0.1,0.4c0.1-0.7,0-0.7,0-1.3c0.1,0.1,0,0.4,0.2,0.4c0-0.2-0.2-0.4,0-0.5c0.3,0.4,0.5,0.2,0.9,0.2
		c-0.4,0-0.1-0.6-0.4-0.5c0-0.1,0.3,0,0.2-0.2c-0.6,0-1.1-0.3-1.2,0.2c0-0.4,0.4,0.1,0.1,0.2c-0.1-0.1-0.3-0.3-0.4-0.1
		c0.2,0-0.5,0.5-0.7,0.6c-0.4,0.2,0-0.1-0.1,0.1c-0.2,0.3-0.1,0.2,0.1,0.6c0,0-0.1,0.1-0.1,0.2c0.1,0.4,0.6,0.4,1.1,0.2
		c0,0.2-0.3,0.6-0.5,0.2C67.1,24.9,67.5,25,67.7,24.8z M70.1,23.9c-0.1,0.2-0.1-0.5,0-0.3c-0.2-0.3-0.7-0.3-0.9-0.1
		c0.4,0-0.1,0.5,0.3,0.6c0-0.1-0.1-0.4,0.1-0.3C69.6,24.3,70,24.1,70.1,23.9z M64.3,23.7c-0.1,0.4-0.5,0-0.6,0.4
		c-0.1-0.4-0.6,0.1-0.3,0.2C63,24,62.7,24,62.2,24c0.3,0.2-0.1,0.1-0.1,0.4c0.2-0.2,0.6,0.2,0.3,0.3c-0.1,0-0.1-0.2-0.2-0.1
		c0.1,0.4-0.1,0.3,0.1,0.6c-0.2,0.1-0.3-0.2-0.3,0c0.4,0.1,0.4,0.7,0.7,0.5c-0.4-0.3,0.1-0.3,0.4-0.1c-0.1-0.3,0.3-0.3,0.3-0.1
		c0.1-0.2-0.1-0.5-0.2-0.7c0.3,0.1,0.4,0.1,0.6-0.1c0.1,0.2,0.2,0.5,0.3,0.1c0,0.2,0.4-0.1,0.3,0.2c0.4-0.2,0.5-0.2,0.9-0.4
		c0,0.3,0.5,0.3,0.6,0.1c-0.2-0.1-0.2,0.2-0.4-0.1c0.2,0,0.3-0.1,0.4-0.2c-0.4-0.1-0.5,0-0.7-0.3c0,0.1-0.1,0.1-0.1,0.2
		c-0.2,0-0.2-0.1-0.1-0.3c-0.2,0-0.4-0.1-0.5,0.1C64.2,23.8,64.4,23.7,64.3,23.7z M60.8,25.3c0.6,0,0.4-0.3,0.3-0.8
		c0,0.1-0.1,0.1-0.1,0.1c0.2,0.4,0,0.7-0.3,0.4c0,0.1-0.1,0.1-0.1,0.2C60.8,25.2,60.8,25.3,60.8,25.3z M61.4,24.2
		c-0.2-0.1-0.2,0.1-0.4,0c0.1-0.1,0.1-0.2-0.1-0.2C60.3,24.4,61.2,25,61.4,24.2z M58.1,26.9c0.1-0.4-0.6-0.4-0.6-0.7
		c0-0.1,0.3,0,0.2-0.2c-0.2-0.6-0.4,0-0.8-0.1c-0.3,0-0.2-0.5-0.6-0.3c0,0.7,0.7,0.1,0.9,0.6c-0.1,0.1-0.3,0-0.5,0
		c0.1,0.3,0.3,0.1,0.4,0.3l0,0.2l0.1,0.1c-0.1,0.5,0.1,0.9,0.4,0.3c0.1,0.3,0.1,0.2,0.4,0.4c-0.3,0-0.4-0.2-0.6,0.1
		c0.5,0.1,0.4,1-0.2,0.7c0.9-0.2-0.1-0.9-0.6-0.7c-0.1,0.1,0,0.4-0.2,0.5c0.1,0.1,0.2-0.2,0.2,0c-0.5,0.3,0.5,0.5,1,0.5
		c0.2,0,0,0,0.2,0.1c-0.1,0,0.5,0,0.2,0.4c0.1-0.1-0.2,0-0.2,0.1c0-0.1-0.1,0-0.1,0.1c0.2,0.1,0.3-0.2,0.3,0c-0.3,0-0.4,0.6-0.1,0.6
		c0,0,0,0.1,0,0.1c-0.4-0.2-0.3,0-0.6-0.1c0,0.1,0,0.2,0,0.2c0.2,0.1,0-0.2,0.2-0.1c-0.3,0.4,0.1,0.9,0.3,0.9
		c-0.3-0.3,0.4-0.2,0.5-0.4c-0.2-0.1-0.7,0-0.7-0.2c0-0.2,0.4-0.4,0.5-0.1c0.2-0.1-0.1-0.2,0.1-0.2c0.4,0.2,0,0.5,0.5,0.6
		c-0.1,0,0-0.2,0-0.2c0,0,0.4,0.2,0.4-0.1c-0.4,0-0.3-0.1-0.6-0.3c0.8-0.1,0.1-0.4,0.1-0.9c0-0.3,0.1-0.3-0.2-0.5
		c0.1,0,0.2,0.1,0.4,0.1c0.1-0.9-1-0.2-1-0.7c0,0,0.2,0,0.2-0.1c0-0.1-0.2-0.1-0.1-0.3c0.1,0,0.7,0,0.6,0.3c-0.1-0.2-0.3,0-0.4,0.1
		c0.3-0.1,0.3-0.1,0.2,0.1c0.5,0,0.5-0.3,0.3-0.6c0.3,0.1,0.2-0.2,0.4,0c-0.1,0.1-0.3,0.2-0.3,0.3c0.3,0.4,0.5-0.3,0.4-0.2
		c0.2-0.1,0.6-0.3,0.9-0.2c-0.2-0.2,0.3-0.2,0.3,0c-0.1,0.1-0.1,0.2-0.2,0.2c0.2-0.1,0.2,0.1,0.4,0.2c-0.2-0.5,0.2-1.4,0.8-0.9
		c0-0.1-0.1-0.2,0-0.2c0.3,0.1,0.1,0.3,0.3,0.5c0.2,0.2,0.8-0.1,0.7,0.6c0.3-0.2,0.4-0.1,0.4-0.5c-0.2,0-0.3,0.1-0.4,0.2
		c-0.1-0.2,0.1-0.2,0.1-0.3l0.1-0.1l0.1-0.2c0.2-0.1-0.1-0.2-0.1-0.3c0.2-0.1,0.1,0.1,0.3,0.1c0.1-0.2,0-0.2-0.1-0.4
		c-0.1,0.1,0,0.2-0.2,0.2c-0.2-0.6-0.1-0.8-0.9-0.6c0,0-0.3,0.2-0.5,0.1l-0.1-0.1l-0.1,0c0-0.3-0.6,0.2-0.8-0.2
		c-0.2,0.1,0.2,0.1,0,0.2c-0.2-0.1-0.1-0.3-0.4-0.2c-0.2,0.1,0.1,0.1,0.1,0.4c-0.5,0-0.7,0.3-0.9,0.6c0.7-0.2,0.6,0.3,0.9,0.5
		c0-0.2-0.6,0-0.5,0.1c0,0,0-0.3-0.1-0.2c-0.1,0.1,0,0.3-0.2,0.5c-0.1-0.3,0-0.4-0.1-0.6c-0.3,0-0.8,0.6-1,0.1l0-0.3L58.1,26.9z
		 M69,27.3c0.2,0.1,0.3,0.2,0.3,0.4c0.4-0.1,0.3-0.3,0.7-0.2c-0.1-0.4-0.9,0.1-0.8-0.4C69,27.2,69.3,27.3,69,27.3z M53.6,28
		c0-0.2,0.1-0.2,0.1-0.4c-0.6,0.1-0.3,0.2-0.6,0.5c0,0.1,0.2-0.1,0.2,0.1c-0.5,0.1,0,0.5-0.4,0.7c-0.3,0.1,0.1-0.1-0.1,0.2
		c0,0-0.2,0-0.2,0.1c0.1,0.1,0.8,0.2,1,0.1c0.2-0.2-0.1-0.6,0.1-0.8c0.2,0.1,0.1,0.4,0.2,0.6c0-0.6,0.8-0.1,1-0.4
		c0,0-0.1-0.1-0.1-0.1c-0.3,0-0.4-0.1-0.6-0.1c-0.1-0.2,0.2-0.2,0.1-0.6c-0.3,0.2-0.4-0.2-0.5-0.1C54.1,28,53.8,28,53.6,28z
		 M61.8,29c-0.4,0.2-0.6-0.3-0.9-0.6c0.3-0.3-0.2,0.2-0.2-0.1C61,28.3,61,28,61,27.7c-0.5,0.2,0.1,0.5-0.7,0.3
		c0.2,0.5-0.4,0.4-0.2,0.9c0,0,0.2,0,0.2,0.1c0,0.1,0.4,0.6,0.5,0.6c0.1,0,0.3-0.2,0.2,0.2c0.1,0,0.1,0,0.1,0.1
		c0.4-0.3,0.6-0.1,1.1,0c-0.1-0.3,0.1-0.7,0.2-0.5c-0.2,0.4,0.3,0.6,0.2,1.1c0.2-0.1,0-0.3,0.1-0.4c0,0.1,0,0.2,0.1,0.2
		c0.1-0.3,0.5,0.1,0.4-0.4c-0.2-0.1-0.2-0.3-0.6-0.4c0.4-0.3,1.2,0.1,1.3-0.5c0.2,0,0.1,0.3,0.3,0.2c0-0.3,0-0.5-0.3-0.5
		c0.1-0.1,0.2-0.1,0.1-0.3c0.1,0.3,0.4-0.3,0.2-0.2c0,0,0,0.1-0.1,0.1c-0.5-0.2-0.9-0.1-1,0.2c0,0.1,0.2,0,0.2,0.1
		c-0.1,0-0.1,0.1-0.2,0.1l-0.1-0.1l-0.2,0c-0.1,0-0.1-0.2-0.1-0.2c-0.2-0.1-0.2,0.1-0.3,0.1c-0.1-0.6-0.5-0.1-0.7-0.4
		c-0.2,0.2,0.2,0.3,0.3,0.4c0,0.2-0.3,0-0.2,0.3l-0.2,0L61.8,29z M95.6,28.7c-0.4,0-0.8,0.1-0.4-0.3c-1,0.2,0.1,0.5,0,0.9
		c-0.1,0.6-1.3-0.1-1.1,0.6c0.2-0.2,0.9,0.1,1.2-0.1c-0.1-0.1-0.2-0.3-0.3-0.3c0.1,0,0.3,0,0.3-0.1c-0.3-0.1,0-0.4,0.2-0.5
		c-0.1-0.1-0.2,0.1-0.2-0.1C95.6,28.7,95.7,29,95.6,28.7z M52.2,30.2c0-0.2-0.2-0.3-0.3-0.1c0-0.3,0-0.3-0.4-0.4
		C51.2,30.1,52.2,30.4,52.2,30.2C52.2,30.2,52.2,30.2,52.2,30.2z M53,31.9c0.2,0,0.3,0.2,0.5,0.1c0.1,0,0.3-0.3,0.2-0.3
		c-0.3,0.1-0.4-0.2-0.5,0.1c0.2-0.3-0.3-0.3-0.4-0.6c0.2,0,0.3,0.1,0.3-0.1c-0.1-0.1-0.3-0.2-0.4-0.2c0.2,0,0.1-0.1,0.2-0.2
		c-0.3-0.1-0.4,0-0.6,0.2c0,0,0.2,0,0.2,0.1c0,0-0.4,0.6,0.1,0.6c0.1-0.3,0.3-0.1,0.5,0.1c-0.2,0.1-0.6,0-0.7,0.2
		C52.9,32.2,52.7,32,53,31.9z M96.5,31.1c0-0.2,0.1-0.1,0-0.2c-0.2,0.2-0.5-0.1-0.7,0c0,0-0.1,0.3-0.2,0.3c-0.4,0-0.5,0.2-0.9,0.3
		c0.1,0.2,0.3,0.4,0.1,0.6c0-0.1-0.2-0.4-0.2-0.1c0.5,0,0.9,0.9,1.3,0.1c0.1,0.1,0.1,0.4,0.2,0.4c-0.4-0.6,0.1-0.5,0.2-0.7
		c0,0,0-0.2,0-0.2c0.2-0.3,0.7-0.2,0.7-0.6c-0.1,0.1-0.2-0.2-0.2,0C96.8,30.9,96.6,31.1,96.5,31.1z M56.2,32.5
		C56.2,32.5,56.2,32.4,56.2,32.5c0,0.2,0.1-0.1,0.2-0.1c0.2,0,0.5,0.3,0.8,0.4c0.5,0.1,0.8-0.5,1.5-0.3c-0.2-0.5-1.1-0.4-0.6-1
		c-0.3,0-0.2,0.3-0.4,0.4c-0.2,0.1-0.7,0-1,0.1c0.3-0.1-0.3,0.2-0.2,0.1c-0.1,0.1,0.4,0.4-0.1,0.3C56.5,32.1,56.2,32.4,56.2,32.5z
		 M96.9,32.6c0.2,0,0.3,0,0.5-0.1c-0.1,0.1,0,0.3,0.2,0.2c-0.1-0.4,0.3-0.2,0.4-0.5c-0.2,0-0.3,0-0.3-0.1c0.3-0.1,0.4-0.4,0.2-0.7
		c-0.4,0.2,0.1,0.1-0.2,0.4c0-0.2,0.1-0.2-0.1-0.3c0.1,0.4-0.4,0.4-0.7,0.4C97,32.4,96.4,32.4,96.9,32.6
		C96.9,32.4,97.1,32.4,96.9,32.6z M69.3,31.7c0.1,0.5-0.6,1.4,0,1.1c0,0.1-0.1,0.1-0.1,0.2c0.4-0.5,0.4,0.1,0.5,0.1
		c0.1,0-0.2-0.4,0.2-0.2c-0.2,0.3,0.4,0.4,0.1,0.6c-0.1,0.1-0.6-0.1-0.8-0.1c-0.1,0.2,0.2,0.5,0.3,0.4c-0.2-0.1,0-0.2,0.1-0.2
		c0,0.2,0.5,0.4,0.6,0.1c0,0.3,0.9-0.2,0.6-0.5c0,0.2-0.2,0.1-0.2,0c0.1,0,0.1-0.1,0.1-0.2c-0.2,0-0.1,0.2-0.3,0.2
		c0.1-0.3-0.3-0.6-0.4-0.3C70.4,32.3,70.4,31.4,69.3,31.7z M65.6,32.3c0.3-0.3-0.4-0.5-0.7-0.4C64.8,32.2,65.5,32.5,65.6,32.3z
		 M61.9,32.3c0.1,0.5,0.2,0.3,0.6,0.5c0-0.1,0-0.2,0.1-0.2c0,0.1,0.1,0.3,0.2,0.3c0-0.1,0-0.2,0.1-0.2c-0.1,0.2,0.1,0.2,0.2,0.4
		c0.1,0,0-0.2,0.1-0.2c0,0.2,0,0.8,0.5,0.6c0.1,0.1,0.2,0.2,0.1,0.4c0.4-0.1,0.2-0.1,0.1-0.3c0.1,0.2,0.1-0.5,0-0.6c0,0-0.2,0-0.2,0
		c-0.3-0.1-0.9-0.6-0.5-0.6c0,0-0.1,0-0.1-0.1c-0.1,0-0.1-0.1-0.1-0.1c-0.1,0.5-0.4-0.1-0.6-0.1C62.3,32.4,61.8,32.1,61.9,32.3z
		 M60.4,32.6c-0.1,0-0.1-0.1-0.1-0.1c-0.1,0.1-0.3,0-0.5,0.1c-0.1-0.2,0.1-0.2-0.1-0.3c-0.4,0.2-0.1,0.3-0.5,0.6
		c0.1,0,0.1,0.1,0.1,0.2c0.3-0.2,0.5,0,0.7,0.3c-0.4-0.1-0.7,0-0.4,0.3c0-0.4,0.6-0.1,0.7-0.3c0,0.1,0.1,0.1,0.1,0.1
		C59.7,33,60,32.8,60.4,32.6z M50.7,33.7c-0.2-0.2-0.4,0-0.6-0.3c-0.1,0,0,0.2-0.1,0.2c0-0.2,0-0.4-0.3-0.4
		C49.6,33.8,50.3,34,50.7,33.7z M76.9,33.9c0-0.2,0.2-0.1,0.1-0.5c-0.2,0.2-0.6,0.1-0.4,0.3c0.3,0,0.7,0.6,0.9,0.1
		c0,0.1,0,0.2,0.1,0.2c0-0.1,0.1-0.3,0.2-0.1C77.6,33.7,77.1,33.7,76.9,33.9z M75.9,34.1c0,0.2-0.1,0.2-0.2,0.3
		c-0.1-0.2-0.2-0.4-0.4-0.6c-0.1,0.6,0.2,0.6,0.6,0.7c-0.1,0.1-0.2,0.1-0.2,0.2c0.3,0.3,0.5-0.1,0.8,0.1c0.1-0.2-0.2,0-0.1-0.2
		c0.6,0,0-0.7-0.2-0.3C76,34.4,76,34.2,75.9,34.1z M47.6,34.8c0.1-0.2,0.4-0.1,0.5,0.1c0-0.2-0.2-0.3-0.1-0.6
		c-0.2,0.1-0.3,0.2-0.4,0.1c0.3,0,0-0.3,0.2-0.5C47.2,34,47.7,34.4,47.6,34.8z M67.1,36.9c0.2-0.1,0.6-0.5,0.6,0
		c0.1,0,0.3,0.1,0.3-0.1c-0.3-0.4-0.1-0.2,0.1-0.2c0.2-0.1,0-0.4,0.1-0.7c-0.3,0.1-0.2,0-0.4-0.1c-0.1,0.1-0.1,0.1-0.1,0.2
		c0,0.4-0.2,0-0.6,0.4c0,0-0.1-0.1-0.1-0.2c0.1,0,0.2,0,0.2-0.1c-0.6,0.1-0.6-0.7-0.1-0.6c-0.2,0-0.2,0.2-0.1,0.3
		c0.2-0.5,0.8-0.6,0.5-0.9c0.1,0.2-0.3-0.2-0.2-0.4c0,0-0.1-0.4-0.3-0.2c0.2,0.3-0.6,0.2-0.6,0.9c0,0,0.4,0.6,0.2,0.7
		c-0.2,0.2-0.6,0.1-0.7-0.1c0.1,0.1,0.4-0.1,0.2-0.1c-0.2,0.1-0.6-0.1-0.7-0.1c0.1,0.3-0.2,0.2-0.3,0.4c-0.1,0.2,0.3,0.5-0.1,0.5
		c0,0.1,0.2,0.1,0.2,0.2c-0.5,0-0.9-0.6-1.3,0.1c0.1,0,0.1-0.1,0.2-0.1c-0.3,0.2,0.1,0.2,0.1,0.3c-0.1,0.4-0.6,0.2-0.5,0.7
		c-0.2-0.5-0.2,0-0.3,0.1c-0.3,0.3-0.3-0.5-0.2-0.7C63.3,37.2,63,37,63,37.3c-0.2,0-0.1-0.2-0.3-0.1c-0.2,0.3,0.2,0.1,0.2,0.1
		c0.1,0.1,0.2,0.6-0.1,0.7c0.3,0,0,0.3,0.2,0.4c-0.1-0.4,0.3-0.1,0.3-0.2C63.3,38,63.1,38,63,37.9c0.3-0.1,0.5-0.1,0.8,0
		c0.1-0.2-0.1-0.2-0.1-0.3c0.3,0.2,0.8-0.3,0.3-0.4c0.5-0.2,0.2,0.2,0.3,0.4c0.1,0.1,0.4-0.1,0.3,0.1c-0.1,0.2,0,0,0.2,0.2
		c0.1-0.1,0.1-0.3,0.2-0.3c-0.2,0.5,1,0,0.4-0.2c-0.1,0.1,0.2,0.2,0,0.2c-0.5-0.2,0.2-0.5,0-0.9c0.5,0,1.1,0.9,1.5,0.3l0.2,0
		L67.1,36.9z M52.9,35.3c-0.1-0.1-0.4,0-0.5-0.3c0.2-0.1,0.4-0.2,0.4-0.6c-0.3,0-0.3,0.5-0.6,0.2c-0.1-0.2,0.2-0.1,0.1-0.3
		c-0.1,0.3-1.1,0.2-1.1,0.4c0.3-0.1,0.3,0.3,0.5,0.6c0-0.1,0.1-0.1,0.2-0.1c0,0.2,0,0.3,0.1,0.4c0.2,0.1,0.2-0.1,0.3-0.1
		c0,0.3,0.2,0.3,0.6,0.1c-0.1,0-0.1,0-0.1-0.1C52.6,36,52.5,35.4,52.9,35.3z M64,35.8c-0.2-0.1-0.2-0.1-0.2,0.2
		c0.3-0.3,0.6-0.1,1-0.4c-0.4-0.1-0.7-0.4-0.7-0.7c-0.2,0.2-0.5,0.1-0.7,0.2c-0.1,0.1,0.1,0.6-0.3,0.4C63.2,35.8,63.7,35.4,64,35.8z
		 M57.8,34.8c-0.2,0.1-0.2,0.3-0.6,0.2c0.1,0.4,0.1,0.5,0.6,0.4c-0.1,0.2,0.1,0.4,0.2,0.2c-0.1-0.1-0.2-0.2-0.2-0.4
		c0.2,0,0.2,0.1,0.3,0c-0.1-0.3-0.2-0.4-0.4-0.2c0-0.1-0.1-0.1-0.1-0.1C57.8,35,57.9,35.1,57.8,34.8z M59.3,35.8
		c-0.3-0.1,0-0.4-0.3-0.3c0.2,0.3-0.2,0.3-0.2,0.6c0.4-0.3,0.5,0.2,0.3,0.5c0.2-0.1,0.4,0,0.6,0.1c0.1-0.1-0.1-0.3,0.1-0.4
		c0.2,0.2,0.3,0,0.5-0.2c-0.2,0.2-0.5,0.1-0.5-0.1c0-0.3,0.7,0,0.8-0.4c-0.4-0.1-0.4-0.1-0.8-0.3c-0.1,0.1,0,0.4-0.2,0.4
		c0-0.1-0.2-0.1-0.1-0.2c0.1,0,0.2,0,0.2-0.1c-0.1,0-0.3-0.2-0.4-0.1C59.3,35.3,59.3,35.6,59.3,35.8z M55.1,35.5
		c0.4-0.2,0.3,0.5,0.3,0.5c0.4,0.3,0.2-0.1,0.7-0.2c0,0.1-0.1,0.1-0.1,0.3c0.1,0,0.5,0.2,0.5-0.1c-0.5,0.1-0.2-0.4-0.7-0.6
		c-0.2,0.1,0,0.2-0.1,0.2C55.7,35.6,55.2,35.3,55.1,35.5z M94.2,35.9c0.1,0,0.2-0.1,0.1-0.1c-0.1-0.1-0.5,0-0.4-0.1
		c0,0.3,0.1,0.4-0.1,0.6c0-0.2-0.4-0.3-0.4-0.2c0.1,0,0,0.2,0.1,0.2c-0.1,0-0.2,0-0.2,0.1c-0.2,0.5,0.8,0.1,0.8,0.1
		c0.2,0,0.9,0.4,1.1,0.2C94.9,36.1,94.6,36.1,94.2,35.9z M75.8,36.3c-0.2,0-0.4-0.1-0.4,0.1c0.3,0,0.2,0.4,0.6,0.4
		c-0.1-0.3-0.3-0.4,0-0.6c-0.1,0.1-0.2-0.2-0.2,0C75.7,36.2,75.7,36.2,75.8,36.3z M75.6,40c0.1-0.1,0.2-0.5,0.1-0.7
		c0.1,0.2,0.2-0.2,0.2-0.5c0-0.1-0.2-0.2-0.2-0.2c0-0.2,0.1-0.5,0.1-0.6c0,0-0.2,0-0.2-0.1c0,0,0.2-0.4,0.4-0.4
		c0.4,0.1,0.5,0.9,0.6,1.2c-0.1-0.3,0-0.4,0.2-0.6c0.1,0,0.1,0.2,0.3,0.2c0.5-0.3,0.4-0.5,0.1-1c-0.2-0.2-0.6,0.2-0.7-0.2
		c0,0.1,0.1,0.3-0.1,0.3c-0.3-0.1-0.2-0.4-0.2-0.6c0,0.1-0.1,0.2-0.2,0.2c-0.3-0.3-0.3-0.3-0.5-0.1c-0.1-0.2,0.2-0.3,0.1-0.4
		c0,0,0,0.1,0,0.1c-0.1-0.1-0.2,0.1-0.4,0.1c0.1-0.2,0-0.7,0.1-0.4c-0.1,0-0.2-0.3-0.2-0.1c0.1,0,0,0.1,0,0.1c0.2,0,0.1,0.1,0.2,0.2
		c-0.1,0-0.4,0.2-0.2,0.3c0.1-0.3,0.4,0.1,0.5,0c-0.3,0.1-0.5,0.2-0.4,0.5c0.2,0.1,0.2-0.3,0.3-0.1c-0.3,0.1,0.1,0.4,0.1,0.6
		c-0.3-0.1-0.3-0.5-0.6-0.6c-0.1,0.2,0.2,0.4,0.1,0.7c0,0-0.2,0-0.2,0.1c0,0.3-0.4,0.5,0.2,0.9c0.1-0.1,0-0.5,0.1-0.5
		c0.1,0.3,0.2,0.4,0.1,0.6c0.5,0,0.9,0.9,0.2,0.7c0.2,0.1,0.1-0.2,0.2-0.2c-0.2,0-0.3-0.1-0.4-0.4c0,0.2-0.2-0.2-0.2,0.1
		c0.2,0.1,0.3,0.6,0.1,0.8l-0.2,0.1l0,0.2c-0.1,0-0.1,0.2-0.3,0.1c0-0.1-0.1,0-0.1,0c0.3,0.1,0.5,0.8,0.6,1.2l0,0.2l0.2-0.2
		c0.6,0.3,0,0.3,0,0.6c0.3-0.1,0.9-0.6,0.9-0.1c0.5-0.1,0.4-0.5,0.8-0.2c0,0.1-0.1,0.3-0.3,0.2c0,0.2,0.3,0.3,0.1,0.5
		c-0.1-0.3-0.3,0.3-0.2,0.4c0.3,0.2,0.7-0.8,1-0.3c0.1,0.1-0.3,0.1,0,0.2c0.1-0.3-0.1-0.5,0.3-0.9c-0.3-0.1-1,0-0.8-0.4
		c0-0.1,0.3,0.4,0.2,0c0-0.1-0.6-0.2-0.2-0.4c-0.3,0-0.3,0.4-0.5,0.4c-0.1-0.2,0.1-0.4-0.1-0.7c0,0-0.7,0.2-0.6-0.6l0-0.3L75.6,40z
		 M54.8,36.9c0.2,0.4-0.4,0-0.4,0.2c0.2,0,0.3,0.3,0.5,0.3c0,0,0.1-0.3,0.2-0.2c0.1,0,0,0.2,0.1,0.2c0.3,0.2,1.2,0,0.9,0.3
		c0.5-0.2,0.3-0.8,0-1c0.2,0.5-0.4,0.4-0.4,0.7c-0.2,0,0.1-0.2-0.2-0.2C55.4,37.7,55,36.7,54.8,36.9z M81.6,37.1c0,0,0-0.1,0-0.1
		c0-0.1,0.3-0.1,0.1-0.2c-0.1,0.1-0.3,0.1-0.3,0.4c0.2,0.1,0.3,0,0.4,0.1c0,0,0,0.1,0,0.1c-0.1,0.1-0.2-0.2-0.2,0
		c0.3,0,0.3,0.5,0.4,0.4C82.1,37.3,82,36.5,81.6,37.1z M53,37.4c-0.1,0,0.4-0.3,0.4-0.2c0.2-0.5-0.5-0.5-0.8-0.2
		C52.7,37,52.9,37.4,53,37.4z M79.2,37.6c0-0.2-0.2-0.2-0.1-0.4c-0.2,0.1-0.3,0.2-0.4-0.1c0.2,0.2,0.7,0.8,0.2,0.8
		c0.3,0-0.3-0.3,0.1-0.5c-0.3,0.1-0.2,0-0.3-0.1c-0.1,0,0,0.2-0.1,0.2c0-0.1-0.1-0.1-0.1-0.1c0-0.1,0.1-0.1,0.1-0.1
		c-0.2,0-0.7,0.1-0.7,0.2c0.1,0.1,0.3-0.1,0.4,0.2c-0.3,0-0.1-0.2-0.4,0.2c0.3,0.2,0.8,0.1,0.6,0.5c-0.1-0.1-0.3-0.1-0.1-0.2
		c-0.3,0.2-0.2,0.6,0,0.7c0.1-0.1,0.1-0.2,0.2-0.3c0.1,0,0,0.3,0.2,0.2c0.1-0.1,0.2-0.1,0.2-0.2c0.4,0.6,0.2,0,0.4-0.1
		c-0.1,0.3,0.2,0.3,0.3,0.2c0.1-0.3-0.4-0.6-0.3-0.9c0.1,0.1,0.3,0.2,0.2,0.4c0.4,0.1,1.1,0.2,0.6-0.3c0,0.1,0.1,0.3-0.1,0.3
		c-0.2-0.1-0.3-0.3-0.1-0.4c0,0-0.1,0-0.1-0.1c0,0,0-0.1-0.1-0.1c-0.1,0.1-0.3,0.1-0.4,0.1c0.4-0.1,0-0.4-0.2-0.5
		C79.4,37.4,79.3,37.5,79.2,37.6z M70.1,37.3c0.3,0.4-0.3,0.7-0.5,0.4c0.3,0.2,0.4,0.5,0.1,0.7c0.4-0.2,0.9,0.1,0.4,0.5
		c0,0-0.1-0.1-0.1,0c0,0-0.1,0.4-0.1,0.5c-0.1-0.1,0.4,0.1,0.3,0.1c0.1,0,0.2-0.5,0.2-0.3c0-0.1-0.2-0.2-0.1-0.3
		c0.2,0.2,0.4,0.3,0.1,0.6c0.2,0,0.3-0.1,0.3,0.1c-0.2,0.1-0.1,0.2-0.2,0.4c0-0.1,0-0.2-0.1-0.2c-0.2,0.2-0.1,0.6,0.1,0.7
		c0-0.1,0-0.2,0.1-0.2c0,0.4,0.3-0.3,0.4,0.2c0.1-0.1,0.2-0.3,0.3-0.4c-0.1,0.2,0.2,0.3,0.2,0.1c-0.5-0.3-0.3-0.4-0.1-0.6
		c0.1,0.2,0.1,0.2-0.1,0.3c0.1,0.1,0.1,0.2,0.2,0c0,0.2-0.1,0.1-0.1,0.2c0.1,0,0.2,0,0.3,0c-0.1-0.9-0.7-0.3-0.8-0.9
		c0.1,0,0.1,0,0.1-0.1c0.1,0.1,0.2,0.3,0.4,0.2c0-0.1-0.1-0.2-0.1-0.4c-0.2,0-0.5,0.2-0.5-0.1c0.4,0.3,0.4-0.5,0.7-0.2
		c-0.1-0.2-0.2-0.6-0.4-0.3c0-0.1,0-0.1,0-0.2c0.5,0.2,0.1-0.7-0.1-0.8c0,0-0.1,0.1-0.1,0.1c-0.2,0-0.3-0.1-0.4,0.2
		C70.5,37.4,70.3,37.2,70.1,37.3z M54.7,37.7c-0.2-0.2-0.2-0.1-0.4,0.1c-0.2-0.1,0.1-0.1,0.1-0.3c-0.3-0.1-0.3,0.1-0.4,0.2
		c0-0.1-0.1-0.2-0.2-0.2C53.9,37.9,54.3,37.9,54.7,37.7C54.6,37.7,54.7,37.8,54.7,37.7z M57.8,37.9c0.7,0.3,0.5,0.9,1.2,0.7
		c-0.7-0.1-0.7-0.5-1.2-0.9C57.9,37.7,57.8,37.8,57.8,37.9z M84.1,38.4c-0.5-0.1-0.4,0.1-0.7-0.1C83.4,38.8,83.9,38.8,84.1,38.4z
		 M66.4,39.5c0-0.1,0.4,0.4,0.1,0.4c0.2,0.1,0.5,0,0.4-0.5c0.1,0.1,0.4,0,0.4-0.1c-0.2,0-0.3-0.1-0.4-0.2c0.2-0.2,0.5-0.1,0.5-0.2
		c0.2-0.4-0.8-0.5-0.7,0.1c0-0.2,0-0.4,0.1-0.5c-0.3,0-0.4,0.3-0.2,0.2c0,0.1-0.1,0.1-0.2,0.1c-0.1-0.6-0.5-0.2-0.6,0.1
		c0.1-0.1,0.4,0,0.2,0.2c0-0.1-0.1,0-0.1,0.1c0.2,0.1,0.2-0.3,0.3-0.1c-0.1,0-0.3,0.2-0.2,0.2c0-0.1,0.1-0.1,0.2-0.1
		C66.8,39.2,66.4,39.4,66.4,39.5z M81.9,38.9c0.1,0.1,0.4,0.2,0.7,0.2c-0.1-0.3,0-0.5-0.4-0.6C82.1,38.6,82.1,38.8,81.9,38.9z
		 M73.1,38.9c0-0.2-0.3-0.2-0.4-0.3c0.1,0.3-0.3,0.5,0.1,0.7c-0.2-0.1-0.2,0.1-0.3,0.1c-0.1-0.1,0-0.4-0.3-0.4c0,0.1,0,0.2-0.1,0.2
		c-0.2-0.3,0.3,0.1,0-0.2c-0.2-0.2-0.5,1-0.1,0.2c0,0.1-0.1,0.1-0.1,0.2c0.2,0,0.3-0.3,0.4-0.1c-0.1,0.2-0.1,0.5-0.4,0.2
		c0.1,0.2,0.5,0.3,0.2,0.6c0.2-0.4,0.3-0.4,0.7-0.2c0-0.1,0-0.1,0.1-0.1l0.1,0.1l0.1-0.1c0.3,0.3,1-0.1,0.7-0.4
		c-0.3,0.1-0.2,0.2-0.4,0.1c0.1-0.2,0.1-0.1,0.4-0.1c-0.1-0.3-0.3-0.2-0.4-0.1c0-0.4,0.3-0.2,0.5-0.6c-0.1-0.1-0.3-0.1-0.4-0.1
		c0,0.1-0.1,0.1-0.1,0.2c0.3,0-0.1,0.2-0.1,0.2c0-0.1,0-0.1-0.1-0.1l0-0.2L73.1,38.9z M59.1,40.1c-0.1-0.2-0.2,0-0.2-0.2
		c0-0.2,0.3-0.1,0.4,0c0-0.4-0.1-0.4-0.4-0.4c0-0.2-0.3-0.4-0.4-0.3c0.3,0.1,0.1,0.3-0.1,0.4c0.2,0.2,0.3-0.1,0.4-0.1
		C58.6,39.7,58.6,40.2,59.1,40.1z M79.3,41c0,0.2-0.2,0-0.2,0.1c0.2,0.1,0.4,0.2,0.5-0.1C79.4,41,79.3,41,79.3,41
		c0.4-0.3,0.4,0.2,0.6,0.2c0,0,0.4-0.3,0.6,0.1c0-0.3,0.2-0.6,0.5-0.3c0-0.1,0-0.2,0.1-0.2c0.2,0.2-0.1,0.1-0.1,0.3
		c0.1,0.1,0.2-0.2,0.2,0c-0.5-0.1-0.9,0.7-0.4,0.7c-0.1,0-0.1-0.4,0-0.4c0.2,0.4,0,0.7,0.3,0.9c-0.1-0.1,0.7,0,0.7,0.1
		c-0.1-0.2,0-0.6-0.3-0.7c0.5,0.1,0.4-0.4,0.6-0.6c0.3-0.2,0.3,0.2,0.6,0.1c-0.3-0.2,0.1-0.6,0.2-0.9c-0.3-0.1-0.5,0.2-0.7,0.2
		c-0.1,0-0.4-0.4-0.4,0c0.2,0.2,0.4,0.1,0.3,0c0.6,0.6-0.6,0.1-0.1,0.4c-0.3-0.1-0.3,0.5-0.4,0.6c-0.4-0.5,0-0.5,0.1-0.9
		c-0.1,0.1-0.2,0.1-0.3-0.1c0.1,0,0.5,0,0.3-0.2c-0.2,0.1-0.6-0.4-0.9,0c0.1-0.1,0.3-0.4,0.1-0.3c0,0.1-0.1,0.1-0.2,0.1
		c-0.1-0.2-0.1-0.2,0-0.4c-0.2,0-0.2,0.1-0.2,0.2c-0.3-0.1,0.1-0.6-0.4-0.5c-0.3,0.5-1.2-0.1-0.8,0.9c-0.2,0.1-0.2-0.1-0.4-0.1
		C79,40.6,79,40.9,79.3,41z M87.3,40.6c0-0.1,0-0.2-0.1-0.2c-0.2,0.3,0.3,0.2,0.4,0.3c0,0.1-0.2,0.1-0.2,0.2c0.1-0.1,0.2,0.2,0.2,0
		c-0.2-0.1,0.2-0.6-0.2-0.5c0.2-0.2,0.3-0.1,0.2-0.4c-0.1,0-0.3,0.1-0.5-0.1C87.3,40.2,87.6,40.4,87.3,40.6z M58.7,41.1
		c0,0.3,0.2-0.2,0.3,0.1c0,0.3-0.5,0-0.2,0.3c0.3-0.1,0.4-0.4,0.6-0.3c-0.2,0-0.4-0.8-0.4-0.6C58.8,40.8,59,40.9,58.7,41.1z
		 M67.8,41c-0.2,0-0.2-0.3-0.3-0.4c0,0-0.1,0.1-0.2,0.1c0,0,0-0.4-0.2-0.1c0.1,0.1,0.2,0.4,0.4,0.2c0,0.4,0.8,0.7,0.9,0.2
		c-0.5,0.3-0.1-0.5,0.2-0.2c-0.1-0.2-0.4-0.2-0.6-0.1C68.1,41,68.1,41.1,67.8,41z M97,41.9c0.1,0.1,0.1,0.2,0.2,0.4
		c0.2,0.2-0.1,0.3,0,0.5c0.5-0.3,1-0.1,1.5-0.4c-0.6-0.2,0-0.8,0.4-0.3c0.1,0.1,0.7,0.1,0.9,0c0.1,0,0.1-0.2,0.1-0.2
		c0.1,0,0.5,0.1,0.6,0.2c0.1,0.2-0.3,0.1-0.1,0.2c0.1,0.1,0.5,0,0.6,0c0-0.2-0.1-0.4-0.3-0.2c0-0.1,0-0.1-0.1-0.2
		c0.4,0.4,0.8-0.4,0.7-0.5c-0.2-0.4-1.1,0.2-1.5,0.1c-0.2,0-0.6-0.3-0.6-0.4c0-0.2,0.3-0.1,0.4-0.1c0-0.3-0.2,0-0.2-0.2
		c0.2-0.3,0.2,0,0.4,0.1c0-0.4-0.4-0.5-0.6-0.4c-0.1,0.1,0.1,0.3,0.1,0.3c0-0.1-0.4,0.3-0.4,0.3c0,0-0.2-0.3-0.2-0.3
		c-0.1-0.2-0.1-0.4-0.4-0.4c-0.1,0.2-0.3,0.4-0.1,0.6c-0.5,0.1-0.7,0.2-1.2,0.2c0-0.1,0.2,0,0.2-0.1c-0.1-0.1-0.3-0.1-0.3-0.3
		c0,0.3-0.6,0.3-0.6,0.3C97.3,41.3,97,41.8,97,41.9z M62.3,42.9c0-0.1,0.1-0.1,0.1-0.1c-0.1,0.1,0,0.1-0.1,0.3
		c0.4,0-0.1-0.5,0.1-0.7c0.1-0.1,0.7,0,0.4,0.2c0.4-0.3-0.3-0.3-0.2-0.7c0.3,0.2,0.5-0.2,0.7,0c0-0.2-0.4-0.1-0.4-0.3
		c0.2-0.1,0.4,0.1,0.4,0.1c-0.1,0,0-0.4,0.1-0.3c-0.1-0.1-1-0.3-0.7-0.7c-0.4,0-0.1,0.5-0.1,0.4c0,0-0.3,0.2-0.4,0.4
		c-0.1,0.2,0,0.3,0,0.4c-0.1,0.1-0.4,0.1-0.1,0.3c-0.1-0.2,0.2-0.2,0.3-0.2c0.2,0.6-0.8,0.1-0.6,0.5C62.3,42.2,62.2,42.8,62.3,42.9z
		 M72.9,41.9c0.1-0.3-0.1-0.3-0.1-0.5c0.1-0.1,0.2,0.1,0.2-0.1c-0.4,0.1-0.3-0.2-0.4-0.4c0,0.1-0.1,0-0.2,0
		C72.6,41.6,72.6,41.4,72.9,41.9z M85.9,41.5c-0.2,0-0.1-0.2-0.2-0.2c-0.3,0.3-0.2,0.6-0.3,0.9c0.4-0.5,0.7-0.1,1.2-0.6
		c-0.5-0.1,0-0.5-0.6-0.6C85.7,41.1,86,41.4,85.9,41.5z M45.2,41.1c0,0.4-0.5,0.4-0.4,0.7c-0.1,0-0.2-0.1-0.3-0.1
		c0,0.4,0.1,0.4,0.1,0.2c0.1,0,0,0.3,0.2,0.2c0-0.1,0-0.2,0.1-0.2c0.1,0,0.1,0.1,0.1,0.1c-0.4,0.1,0.1,0.5,0.1,0.1
		c0.1,0.2,0.5,0.1,0.6,0c0.2-0.2-0.1-0.1-0.1-0.3c0,0,0.3,0.1,0.2-0.1c-0.2-0.3-0.5,0.2-0.6-0.3C45.4,41.7,45.6,41.3,45.2,41.1z
		 M46.7,41.6c0.1,0.3,0.9,0,0.7-0.4c-0.2,0,0.1,0.2-0.2,0.2C47.2,41.1,46.4,41.1,46.7,41.6z M84.3,42.5c0.1,0,0.3-0.1,0.4-0.2
		c-0.4,0.1-0.1-0.3-0.1-0.4c-0.1-0.3-0.5-0.1-0.7-0.5c0,0.4-0.4,0.3-0.5,0.6c0.3,0,0,0.3-0.3,0.4c0.2-0.1,0.8,0,0.6,0.3l-0.3,0
		l0,0.3c-0.2,0,0,0.2-0.2,0.3l-0.2,0l-0.1,0.2c-0.5,0-0.7-0.7-1.2-0.8c0.6,0.4-0.6,0.1-0.2,0.5c-0.2-0.2-0.3-0.1-0.4,0.1
		c0.1,0.1,0.5,0,0.4,0.2c-0.2-0.2-0.1,0.1-0.2,0.2c0.1,0,0.3-0.1,0.3,0.1c-0.2,0-0.4-0.1-0.5-0.2c0.2,0.2,0.7,0.8,0.8,0.5
		c0,0.2,0.1,0.3,0.2,0.3c-0.1-0.3,0.3-0.3,0.3-0.1l0,0.3l0.3,0c0,0,0,0,0,0.1c0.3,0.3,0.4-0.1,0.6,0.2c0,0-0.3,0.4,0.1,0.4
		c0-0.2,0-0.2,0.2-0.2c0,0.3,0,0.4,0.2,0.5c0.1-0.1,0.1-0.2,0.2-0.2c0.2,0.2-0.2,0.3,0.1,0.5c-0.3-0.1-0.2,0.1-0.3,0.3
		c0,0-0.1,0-0.1,0c0-0.3,0.4-0.5,0-0.6c0,0.4-0.1,0.6-0.4,0.7l-0.1-0.1L82.7,46c-0.1,0,0,0.2-0.1,0.2c0.1-0.4-0.4-0.3-0.2,0.1
		l-0.3,0l-0.3,0c0-0.1-0.1-0.4,0.1-0.6c-0.2-0.1-0.3,0.2-0.3,0c0.1,0,0.3-0.3,0.2-0.4c-0.5,0.5-0.1,0.3-0.8,0.4
		c0.1-0.2,0-0.5-0.2-0.6c0,0.2,0,0.4-0.1,0.5c0.1,0,0.2,0,0.2,0c0.1-0.1-0.2-0.2,0-0.2c0.1,0.1,0.1,0.4,0.1,0.5
		c0.1,0,0.1,0.1,0.2,0.1c0-0.3,0.6-0.2,0.6,0.2c-0.3,0.2-0.4-0.2-0.6,0l-0.3-0.1l-0.1,0.3c-0.1,0.1,0.5,0.7,0,0.6
		c-0.1,0-0.4,0.3,0.1,0.8l0,0.1l0,0.1c-0.2,0.2-0.1,0-0.4-0.1c-0.1,0.3-1.1,0.2-0.4,0.8c0-0.1,0-0.2,0.1-0.2
		c-0.1,0.4,0.2,0.1,0.4,0.2c0,0-0.1,0.5,0.3,0.2l0.3,0.1l0-0.3c0.1-0.1,0-0.3,0.2-0.3c-0.1,0.4,0.3,0.5,0.4,0.4
		c-0.2-0.1-0.3-0.1-0.4-0.3c0.1,0,0.1,0.1,0.2,0.1c0.1-0.3-0.2-0.4-0.2-0.6c0.5,0.3,0.3-0.1,0.9,0.1c-0.3-0.2-0.2,0.3-0.4,0.4
		c0-0.1,0.2-0.2-0.1-0.2c-0.2,0.2,0,0.4,0.1,0.6c-0.1,0-0.2,0.3-0.3,0.1c0,0.2,0.2,0.2,0.3,0.1c-0.1,0.1-0.1,0.3,0,0.3
		c0.2-0.2,0.3-0.3,0.1-0.6c0.1,0.2,0.4,0.2,0.6,0.5c-0.3,0.1-0.3,0-0.1-0.1c-0.5,0-0.1,0.5-0.4,0.6l-0.3,0l-0.3,0.1
		c-0.2,0.1-0.2,0.1-0.4,0c0,0.2-0.1,0.3-0.1,0.5c0.4,0,1,0,0.7,0.5c0.2-0.2,0.3,0,0.5,0c-0.1,0-0.2,0-0.2,0.1
		c0.1,0.1,0.2-0.1,0.4-0.1c0,0,0.1,0.1,0.1,0.2c-0.4-0.2-0.3,0.2-0.5,0.4c0.1-0.3-0.1-0.3-0.2-0.4c0.1,0,0.1-0.1,0-0.1
		c-0.1,0.2,0,0.3-0.2,0.4c0.1,0,0.1,0,0.1,0.1c0.1,0,0.1-0.1,0.2-0.1c-0.1,0.3,0.3,0.5,0.4,0.2c-0.1,0.3,0,0.3,0.1,0.4
		c0.3-0.1-0.1-0.8,0.3-0.8c-0.2-0.1-0.1,0.1-0.1,0.2c0.1,0,0.1,0,0.2,0c-0.3-0.5,0.9-0.7,0.5-0.2c0,0,0.1,0,0.1,0l0.1,0.3l0.3,0
		c0,0.1,0,0.1,0.1,0.1c0-0.3,0.3,0.1,0.3-0.2c-0.2-0.3-0.4-0.5-0.4-0.6c0-0.3,0.4-0.3,0.2-0.6c0,0.1-0.3,0.3-0.4,0.1
		c0.2-0.1,0.2-0.3,0.4-0.3c0.1,0.2,0.3,0.9,0.6,0.6c0.3,0.3-0.4,0.7-0.1,1c-0.2,0.1,0-0.3-0.2-0.2c-0.2,0.1,0.2,0.2,0,0.3
		c0-0.1-0.3,0-0.5,0c0.1,0-0.1,0.1,0.1,0.1C83.9,51.7,84,52,84,52c-0.1,0.3-0.4-0.1-0.6-0.3c0,0.3,0.1,0.4,0.3,0.6
		c-0.2,0-0.2,0-0.4,0.1l-0.2-0.2l-0.3,0c0,0,0-0.1,0-0.1c-0.4-0.2-0.1,0.1-0.4,0.1c0-0.1,0-0.1-0.1-0.1c-0.1,0.4,0.2,0,0.2,0.2
		c0,0.3-0.6,0-0.5,0.4l-0.2,0l0,0.2c0,0.2-0.2,0.2-0.4,0.3c0,0.1,0.2,0,0.2,0.1c-0.3-0.1-0.2,0.2-0.4,0.2c0,0-0.1-0.1-0.1-0.1
		c0.3-0.2,0-0.2,0.1-0.5c-0.3,0-0.1,0.3-0.1,0.4c-0.2-0.2-0.3,0.1-0.2-0.3c-0.2,0-0.1,0.2-0.4,0.1c0,0-0.1-0.1-0.1-0.1
		c0.2-0.2,0-0.3-0.2-0.3v-0.3l-0.2,0.2c-0.2,0-0.1-0.2-0.2-0.2c-0.1,0.1,0.1,0.4-0.2,0.3c-0.1-0.3,0.1-0.3,0.3-0.4
		c-0.2-0.1-0.2-0.1-0.4-0.1c0.4-0.1-0.1,0.1-0.1,0.1c0,0,0.2,0.3-0.1,0.2c-0.4-0.3,0.3-1,0.6-0.6c-0.1-0.1-0.2-0.1-0.2,0.1
		c0.1,0.1,0.3,0,0.4,0.1c-0.1-0.3,0-0.5,0-0.7c-0.1,0.1-0.2,0.2-0.3,0.2c-0.2-0.3,0-0.2,0.3-0.2c-0.2-0.1,0-0.2,0.1-0.5
		c-0.1,0-0.1-0.1-0.2-0.1c-0.2,0.1-0.1,0.5-0.5,0.4c0.2-0.5-0.7-0.5-0.9-0.4c0.1,0,0.1,0.1,0.1,0.2c-0.3,0-0.4,0.2-0.5,0.4
		c0.2,0.2,0.2,0,0.4,0c0,0.6,0.7,0.6,0.7,1c0,0.2-0.5,0.3-0.2,0.5c-0.3,0-0.5-0.5-0.7-0.4c0.1,0,0.1,0.2,0,0.2
		c-0.1-0.1-0.5-0.3-0.2-0.5l0.3,0l-0.1-0.2c0.2-0.5-0.3-0.3-0.4-0.7c0-0.1,0.1-0.1,0.1-0.2c0-0.2-0.3-0.2-0.4-0.4
		c0.1,0.1,0.3-0.3,0.2-0.4c-0.1,0-0.2,0.1-0.4,0.1c-0.2-0.2,0-0.2,0.1-0.2c-0.1-0.1-0.3,0.1-0.2-0.1c-0.2,0-0.1,0.4-0.1,0.6
		c0-0.2-0.2,0.5-0.6,0.2h-0.2l0.1,0.1c-0.1,0.1-0.2,0.2-0.3,0.2c-0.1-0.2,0.2-0.4-0.1-0.4c-0.2,0.3,0,0-0.4,0.1
		c0,0.2,0.2,0.3,0.3,0.1c0,0.1,0.1,0.1,0.1,0.2c-0.4,0-0.1,0.8,0.1,0.6c0,0-0.2-0.2-0.1-0.2c0.2-0.1,0.4,0.2,0.2,0.2
		c-0.1,0,0-0.2-0.2-0.2c0,0.2,0,0.7,0.4,0.5c-0.3-0.1,0.1-0.4,0.2-0.6l0.2-0.1l-0.2-0.1c0.1-0.2,0.2-0.2,0.1-0.4
		c0.1,0,0.1-0.1,0.2-0.1c-0.2,0.4,0.5-0.1,0.6,0c-0.2,0.2,0.1,0.4,0.1,0.6l-0.2,0.1l0,0.2c0,0.2-0.1,0.4-0.3,0.4
		c0.1,0.5-0.2,0.4-0.4,0.7c0.3,0.2,0.6,0.2,0.9,0.4c0.4-0.7,0.4,0.4,0.6,0.6c-0.2-0.1,0.6,0.1,0.7-0.1c-0.2-0.1-0.3-0.1-0.4-0.3
		c0.1,0.1,0.2,0,0.2-0.1c-0.1,0-0.2,0-0.2-0.1c0.3,0,0.4-0.5,0.6-0.3c-0.1,0.1-0.1,0-0.2,0.2c0.3,0.1,0.4-0.1,0.6-0.1
		c-0.1,0.1-0.1,0.2,0.1,0.3c-0.1-0.2,0-0.2,0.1-0.3l0.2,0.2l0,0.3c-0.2-0.2-0.1,0.4-0.1,0.5c0.1,0.1,0.2,0,0.3,0.1
		c0.3,0.2,0.1,0.6,0.3,1c0-0.1,0-0.2,0.1-0.2l0.2,0.1l0.1,0.1c0,0.2,0,0.1-0.1,0.1c0,0.3,0,0.5-0.2,0.6c0.1,0,0.2,0.3,0.3,0.1
		c-0.1,0-0.1-0.2,0-0.2c0.2,0.1,0.2,0.2,0.1,0.2c0.1,0,0,0.2,0.1,0.2c0-0.3,0.2-0.3,0.2-0.1c0.6-0.2,0.7,0.4,1.1,0
		c0-0.1-0.3,0-0.2-0.2c0.1,0,0.4,0,0.6-0.1c-0.2-0.2-0.2-0.4,0.1-0.6c0,0.1-0.1,0.1-0.1,0.2c0.1,0,0.1,0,0.2,0
		c0-0.3-0.2-0.4-0.4-0.4c0.2,0.4-0.5,0.3-0.6,0.5c0-0.5-0.7,0.1-0.6-0.5c0.2,0,0.2,0.1,0.2-0.1c-0.1,0-0.2,0-0.2-0.1l0.2-0.1
		l-0.1-0.2c-0.1-0.2-0.4-1,0-0.6c0.1,0.1,0.4,0.1,0.5,0.3c0-0.5-0.1-0.7,0.4-0.9c-0.2,0.2,0.1,0.1,0.2,0.1l0.2,0.1l0-0.2
		c0.2,0,0.1-0.1,0.1-0.2c0.8-0.2,0.1,0.7,0.1,0.6c0,0.3,0.3,0.5,0.1,0.8c0.5-0.1,0.4,0.4,0.5,0.5c0.2,0,0-0.3,0.1-0.2
		c0.1,0,0,0.3,0.2,0.2c0.1,0,0-0.2,0.1-0.2c0.5,0.6,0.8-0.5,0.2-0.4c0-0.1-0.1-0.1-0.1-0.2c0.2-0.3,0.4,0,0.6-0.2l0.2-0.1l-0.2-0.1
		c0-0.4,0.2-0.1,0.2-0.3c-0.1,0-0.2,0-0.2-0.1c0.2-0.1,0.4,0.1,0.7,0.2c0.3-0.6,1.2,0,1.1-0.4c0.1,0.1,0.1,0.3,0.3,0.3
		c-0.3-0.2-0.1-0.3-0.1-0.6c-0.2,0-0.1,0.2-0.3,0.1c0.2-0.4,0.8,0,0.9,0.2c0-0.1,0.2-0.1,0.1-0.2c-0.2,0-0.2-0.1-0.3-0.2
		c0.1-0.1,0.3-0.3,0.3-0.1c-0.1,0-0.2,0-0.2,0.1c0.6,0,0.2-0.2,0.2-0.6c-0.2,0.1-0.1,0.3-0.4,0.2c-0.1-0.3,0.4-0.3,0.1-0.6
		c-0.3,0.1-0.1,0.4-0.2,0.6c0,0.1-0.2,0-0.2,0.1c0,0.1,0.1,0.2,0.1,0.2c-0.2,0.1-0.7,0.2-0.3,0.4c-0.4,0.1-0.3-0.3-0.4-0.3
		c-0.1-0.1-0.5,0.1-0.3-0.2c0.2-0.1,0.4,0.1,0.4-0.1c-0.2,0.1-0.1-0.2-0.2-0.2l0-0.1l-0.1-0.1c0-0.2-0.3-0.2-0.2-0.4h0.1v-0.1
		c0.1,0,0.1,0.1,0.2,0.1c0-0.1,0-0.2,0-0.4c0.1,0.1,0.1,0.1,0.2-0.1l0.2,0l0-0.2c0.3-0.3,0.4,0.1,0.5,0.2c0-0.1-0.1-0.3,0.1-0.2
		c0,0-0.1,0.1-0.1,0.2c0.2,0,0.2-0.2,0.4-0.2c0,0.3,0.4,0.2,0.5,0c-1.2,0.2,0.4-1-0.5-1.4c0.2-0.2,0.4,0.3,0.5-0.1
		c-0.3,0,0-0.2,0.1-0.3c-0.3-0.1-0.4,0-0.1,0.1c-0.1,0.1-0.2,0-0.3-0.1c0-0.2,0.3,0,0.2-0.2c-0.4-0.1-0.4,0.1-0.6,0.2
		c0-0.1-0.1-0.1-0.1-0.2c0.2,0,0.8-0.2,0.4-0.4c-0.1,0.4-0.4,0-0.5-0.1c0.4,0.2,0.3-0.3,0.7-0.4c-0.1,0-0.2,0-0.2-0.1
		c0.4-0.2,0.7-0.7-0.1-0.6c0-0.3-0.2-0.4-0.4-0.4c-0.1,0.2,0.1,0.3,0.2,0.4c-0.3-0.1,0,0.2-0.3,0.2c-0.2,0-0.3-0.3-0.2-0.5
		c0.1,0.1,0.1,0.3,0.2,0.3c0-0.1,0-0.1,0.1-0.1c0.1,0,0.1,0,0.1-0.1c0,0-0.4-0.3-0.4-0.4c0.1-0.2,0.6,0,0.8-0.1
		c0.2-0.2,0.1-0.5,0.1-1c0,0,0.1,0,0.1,0c0-0.1-0.1-0.2-0.1-0.3c0,0,0.1,0.1,0.1,0.1c0.1-0.8-0.2-1.1-0.1-1.5
		c-0.3,0-0.8,0.2-0.6,0.4c-0.5,0-0.3-0.2-0.1-0.2c-0.2,0-0.5,0.1-0.7-0.1c0,0.1,0.2,0.3-0.1,0.2c0-0.1,0-0.2,0.1-0.2l0-0.2L85.8,44
		c0-0.1,0.1-0.1,0.1-0.2c-0.2-0.1,0,0.2-0.2,0.1c0-0.4,0.5-0.1,0.4-0.4c0,0.1-0.1,0.1-0.2,0.1c0-0.1,0-0.2,0-0.3
		c0.2,0.2,0.4-0.1,0.2-0.2c-0.1,0.4-0.5,0.2-0.7,0.2c-0.2,0-0.1,0.2-0.2,0.1c0,0,0-0.2-0.1-0.2c-0.3,0.1-0.1,0.3-0.4,0.6
		c0-0.6-0.9-0.4-0.6-0.9l0.3,0L84.3,42.5z M89.8,42.3c0.3,0.1,0.2-0.3,0.4-0.1c-0.1-0.2-0.2-0.3-0.1-0.5c-0.4,0.3-0.5-0.3-0.9,0.1
		c0-0.1,0-0.2,0-0.2c-0.3,0.1-0.6,0.3-0.9,0.5c0.2,0,0.3-0.1,0.4-0.1c-0.1,0.3,0,0,0.1,0.2c0,0-0.1,0,0,0.1c0.1-0.1,0-0.2-0.1-0.2
		c0.3,0,0.3,0.1,0.5,0.2c-0.2,0-0.2,0.5,0.2,0.4c0.1-0.2-0.2,0-0.2-0.2c0.4-0.4,0.3,0.2,0.2,0.2c0.2,0.1,0.3-0.1,0.4,0.1
		C90,42.4,89.8,42.5,89.8,42.3z M65.6,42.3c0-0.1,0-0.2-0.1-0.2c-0.5,0.1-1-0.1-1.1,0.4c0-0.1,0.1-0.1,0.1,0c-0.1,0-0.2,0-0.1,0.1
		c0.1,0.3,0,0.3,0.1,0.6c0-0.2,0.1-0.2,0.2-0.2c0.1,0.1,0,0.1,0.1,0.2c-0.5-0.1,0.2,0.7-0.4,0.6c0.2,0,0,0.4,0.2,0.4
		c0-0.2-0.1-0.2,0.1-0.2c0.1,0.2,0.3,0.4,0.6,0.4c0-0.2-0.2-0.2-0.3-0.3c0.1,0,0.1,0,0.1-0.1c0.2,0.2,0.2,0.3,0.5,0.1
		c-0.5-0.3-0.6-0.1-0.7-0.4c0.2,0,0.3,0,0.4-0.1c-0.2-0.1-0.2-0.3-0.1-0.6c-0.1-0.2-0.2,0.1-0.2-0.1c0.2,0,0.3-0.3,0.4-0.1
		c-0.3,0,0,0.2-0.1,0.4C65.5,43,65.3,41.9,65.6,42.3z M73.9,43.4c0.1-0.3,0.2,0.1,0.3,0.1c0-0.2,0.2-0.2,0.2-0.4
		c-0.1-0.1-0.2,0.2-0.2,0c0.1-0.1,0.1,0,0.2-0.1c-0.1,0-0.1-0.1-0.1-0.2c-0.5,0-0.6-0.4-0.3-0.7c-0.5,0.1-0.6,0.6-1.1,0.2
		c0.2-0.1,0.3,0.1,0.4-0.1c-0.1-0.2-0.4-0.1-0.5-0.1c0.2,0.5-0.2,0.6,0.1,0.8c-0.3,0,0,0.1,0.1,0.3l-0.2,0.1l0.2,0.1
		c-0.1,0.4-0.9,0.3-0.4,0c-0.2,0.1,0.1,0.2,0.1-0.1c-0.3,0.1-0.4-0.1-0.6-0.2c0,0,0,0.1,0,0.1c-0.1,0-0.1,0-0.1,0.1
		c0.1,0,0.3,0,0.2,0.2c-0.1,0-0.1,0-0.2,0c0.2,0.2,0.4,0.5,1,0.1c0,0,0.3,0.1,0.2,0.2c0-0.4-0.7,0.6-0.9,0.6
		c0.5-0.2-0.6-0.3-0.5-0.4c-0.2,0.2,0,0.6,0.2,0.8c0.1-0.1-0.2-0.4,0.1-0.6c0.3,0.1,0,0.4,0.4,0.4c0-0.6,0.2-0.2,0.5-0.4
		c0,0.5,0.8,0.3,0.4-0.1c0.2,0,0.3,0.1,0.5,0.2c0-0.2-0.1-0.7,0.2-0.7c-0.1,0-0.3,0-0.2-0.2l0.1-0.1L73.9,43.4z M71.2,43
		c0.1,0.1,0.5,0.1,0.5,0.4c0-0.2,0.2-0.3,0.1-0.5C71.7,43,71.6,43,71.4,43c-0.1-0.1,0.2-0.2,0-0.2c-0.2,0.5-0.3-0.4,0.1-0.1
		C71.1,42,70.9,42.6,71.2,43z M60,42.9c0.1,0,0.1,0.1,0.2,0.1c0-0.1-0.1-0.1-0.1-0.2c0.3,0,0.2,0.3,0.4,0.3c0.1-0.3-0.1-0.6-0.4-0.7
		C60.3,42.8,60.1,42.5,60,42.9z M75.1,44c0-0.1,0.1,0,0.1,0c-0.1-0.4,0-0.7,0.2-1.1c-0.4,0-0.4,0.5-0.7,0.6
		C75.1,43.5,74.9,44,75.1,44z M77.1,43.2c-0.1,0-0.2,0-0.2,0c-0.1,0.2,0,0.7,0.2,0.7C77.1,43.6,77,43.7,77.1,43.2z M100.4,43.9
		c0.1,0,0.2-0.2,0.1-0.2c0,0.2-0.3,0-0.3-0.1c0.2,0.1,0.2-0.2,0.1-0.2c0,0.2-0.1-0.1-0.2-0.1c-0.1,0.4,0,0.5-0.2,0.6
		c0.7,0,0.3,0.5,0.2,0.8c0.1,0,0.1,0,0.2,0.1c0.1-0.1,0.1-0.3,0.2-0.2c0.1,0.2-0.3,0.2-0.1,0.3c0.2-0.2,0.5-0.2,0.2-0.6
		c0.2,0,0.3,0,0.3-0.1C100.4,44.2,100.9,43.9,100.4,43.9z M96.4,45.5c0,0.5,1.1,0.4,0.9,0.1c0.1,0,0.2,0,0.2,0.1
		c-0.1,0.1-0.1,0.1-0.2,0.2c0.4,0,0.2-0.3,0.4-0.4c0.2,0.3,0.3,0.1,0.7,0.4c-0.1-0.8-0.6-0.8,0.1-1.1c-0.1,0-0.1,0-0.1-0.1
		c0.2-0.2,1,0.1,1.1-0.2c0,0-0.3,0.1-0.3,0c0.2-0.1,0.6-0.2,0.5-0.4c-0.2,0.1-0.5-0.1-0.2-0.3c-0.4,0.1-0.7,0-0.9-0.1
		c0,0.1,0.1,0.3-0.1,0.3c-0.1,0-0.3-0.2-0.3-0.1c0.1,0.2-0.4,0.1-0.1,0.4c-0.3-0.1-0.4,0.2-0.7,0.1c0.5,0.6,0,0.7-0.4,0.2l-0.3,0
		l0,0.3c-0.2,0.3-0.4,0.3-0.4-0.1c-0.2,0-0.7,0.2-0.9,0c0,0-0.1-0.4-0.1-0.4c-0.1-0.1-0.1-0.4-0.1-0.4c-0.4-0.2-1.6,0.5-1.9-0.1
		c0,0.1,0,0.3,0.1,0.4c0.1,0.1,1.9,0,1.5,0.7c0,0.1-0.4,0.1-0.4,0.1c0,0.5,0.7,0.8,1.2,0.6c0.1-0.1,0.1-0.5,0.4-0.5
		c0,0,0.1,0.1,0.2-0.1c0,0.1,0,0.2,0,0.2l-0.2,0.2L96.4,45.5z M57.3,44.7c0-0.3,0.4-0.2,0.5-0.5c-0.2-0.1-0.3-0.3-0.6-0.2
		c0-0.1,0-0.1-0.1-0.2c0.1-0.1,0.2-0.1,0.2-0.2c-0.2,0-0.6,0.1-0.9,0.1c-0.5-0.1-0.5,0.2-0.2,0.7c0-0.4,0.3-0.8,0.4-0.3
		c-0.1-0.1-0.3,0-0.2,0.2c0.2,0.1,0.3,0.1,0.2,0.4c0.4,0.1,0.5-0.2,0.7-0.4C57.5,44.5,57.1,44.6,57.3,44.7z M79,44.2
		c0,0-0.2,0-0.2-0.1c0,0,0.2-0.1,0-0.3c-0.1-0.1-0.7-0.1-0.7,0.2c0.3,0.1,0.6-0.3,0.6,0.2c-0.1,0-0.2,0-0.3-0.1
		C78.6,44.6,78.9,44.4,79,44.2z M70,44.7c0.2,0.3,0.8,0,0.7,0.5c0.3,0,0-0.2,0.2-0.3c0,0.3,0.3,0,0.3-0.1c-0.3-0.2-0.5-0.3-0.9-0.1
		c0-0.1-0.1-0.1-0.1-0.2c0.2-0.1,0.2,0.1,0.3,0.1C70.4,44.1,70.2,44.6,70,44.7z M78.9,44.9c0.1-0.3-0.5-0.2-0.2,0.1
		c-0.3,0-0.5,0.7-0.3,1c-0.1,0-0.2-0.1-0.3-0.1c-0.2,0.3,0.4,0.3,0.6,0.4c0-0.1-0.1-0.3,0.1-0.3c0,0.1,0,0.2,0.1,0.2
		c0,0,0.1-0.1,0.1-0.1c0-0.3-0.4-0.2-0.4-0.6c0.1,0,0.1-0.1,0.1-0.1c0.2,0.4,0.4,0.2,0.6-0.1c-0.1,0.5,0.3,0.7,0.5,0.9
		c0,0,0.1-0.3,0-0.4c-0.1,0.1-0.3,0.1-0.4,0c0-0.1,0.1-0.1,0.1-0.2c0.3-0.1,0.2-0.1,0.2-0.2c-0.1,0.1,0-0.5,0.4-0.2
		c-0.1-0.3-0.3-0.2-0.5-0.4c0.1,0.1,0.3,0,0.2-0.1c0,0-0.1,0.1-0.1,0c0.1,0,0-0.1-0.1-0.1c0.1,0.2-0.2,0.3-0.2,0.1
		c0.1,0,0.2-0.3,0.1-0.4c-0.1,0.3-0.2,0.5-0.5,0.3C79.1,44.7,79.1,44.9,78.9,44.9z M68.2,44.8C68.2,44.8,68.1,44.8,68.2,44.8
		c0.2,0.1,0.2,0.2,0.3,0.4c0,0,0.1-0.2,0.2-0.1c0.1,0.1-0.2,0.6,0.3,0.7c-0.1-0.3-0.1-0.4-0.2-0.6c0.2-0.1,0.2,0.1,0.3,0.1
		c0-0.1,0-0.2,0-0.2C68.7,45.1,68.6,44.4,68.2,44.8z M73.6,45.3c0,0.2,0.2,0.1,0.1,0.4c-0.3,0-0.5,0.6-0.1,0.7
		c-0.3-0.1-0.5,0-0.3-0.2c-0.3,0-0.3,0.4-0.6,0.2c-0.1,0.3,0.2,0.3,0.2,0.5c-0.5,0-0.2,0.3-0.2,0.4c0.1-0.1,0.1-0.1,0.2-0.2
		c-0.1,0.3,0.3,0.2,0.3,0.2c0,0,0,0.3,0,0.2c0.4,0.1,0.7-0.2,1.1-0.1c-0.2,0,0.3,0.5,0.4,0.1c-0.2-0.4,0.7-0.4,0.2-0.8
		c0.1,0,0.3,0.1,0.2,0c-0.1-0.2-0.4,0-0.4-0.1c0.1-0.1,0.2-0.2,0.1-0.3c-0.3,0.2-0.1-0.3-0.1-0.3c0-0.1-0.2,0-0.2-0.1
		c0-0.2,0.2-0.3,0.4-0.2c0,0,0,0.1,0.1,0.1c0.1-0.3-0.3-0.1-0.4-0.2c0.1,0,0.1-0.1,0.1-0.2c-0.1,0.1-0.3,0.3-0.5,0.4
		C74.1,45.3,73.9,45.4,73.6,45.3z M71.8,45.9c0-0.2,0.2-0.4,0-0.4c-0.2-0.1-0.6,0.3-0.4,0.5c0.1-0.2,0.1-0.1,0.2-0.2
		c0.2,0.2-0.3,0.1-0.2,0.4c0.1,0,0.1-0.1,0.2-0.1c0,0.1-0.1,0.5,0.1,0.7c0.1-0.2,0.1-0.2,0-0.4c0.1,0,0.1,0,0.2,0
		c-0.3,0.6-0.1,0.6,0.2,0.9c0.1-0.1,0.2-0.1,0.1-0.3c-0.2-0.1-0.4,0.1-0.4-0.1C72.2,46.7,71.8,46.1,71.8,45.9z M101.4,45.7
		c-0.2,0.2-0.3,0.1-0.4,0.1c0,0,0,0.3,0,0.2c-0.1,0.1-0.8-0.4-0.7,0.1c-0.1,0-0.1,0.1-0.2,0.1c0-0.2,0.1-0.1,0.1-0.2
		c-0.4,0-0.8,0.2-0.6,0.6c-0.1-0.1-0.3,0-0.3,0.1c0.2,0,0.1,0.2,0.2,0.2c0.1-0.2,0.2-0.4,0.3-0.4c0.2,0,0.2,0.3,0.4,0.4
		c0.4,0.2,0.5-0.1,0.7-0.1C101.9,47.4,101.2,46.2,101.4,45.7z M63.1,46.8c0-0.3,0.2-0.3,0.1-0.6c0.1,0.2,0.3,0.1,0.4-0.1
		c0.1,0.4-0.4,0.2-0.2,0.5c0.6-0.2,0.3-0.6-0.2-0.8C63,46.2,62.7,46.4,63.1,46.8z M68.8,45.9c0.2,0.2,0.3,0.2,0.4,0.4
		C69.7,46,69.1,45.8,68.8,45.9z M66.1,46.6c0.2,0.2,0,0.3-0.1,0.5c0.4,0,0.4,0.3,0.2,0.6c0.3-0.1,0.3,0.3,0.4,0.1
		c-0.1,0-0.1-0.3,0-0.2c0.2,0.2,0.3,0.2,0.3,0c0.2,0,0.1,0.3,0.1,0.4c0.4-0.1,0.2-0.6,0.4-0.4c0-0.2-0.2-0.1-0.2-0.2
		c0.2-0.3,0-0.3,0.1-0.6c-0.1,0-0.1,0-0.2,0c-0.1,0.4-0.3,0.5-0.4,0.6c0.3-0.2-0.2-0.2-0.2-0.4c0,0.1,0.2,0.1,0.2,0.1
		c0,0,0-0.3-0.1-0.2c0,0,0.2,0,0.2,0c0.1-0.3-0.2-0.6-0.6-0.4c0-0.1-0.2,0-0.1-0.2c0,0,0.1,0,0-0.1C66,46.4,66.6,46.7,66.1,46.6z
		 M70.4,46.5c-0.1-0.2-0.3-0.5-0.4-0.4c0.3,0.1,0,0.3,0,0.4c0.2,0,0.1-0.2,0.3-0.2c0,0.3-0.3,0.2,0.1,0.4c0-0.2,0.3,0,0.4-0.2
		c-0.1,0-0.2-0.5-0.2-0.4C70.6,46.4,70.5,46.5,70.4,46.5z M59.1,46.5c0.1,0.3,0.4,0.3,0.6,0.6c0-0.2,0.5-0.5,0.2-0.2
		c0.3,0,0.2-0.2,0.1-0.3c0-0.2,0.2-0.1,0.2-0.2c-0.1,0-0.1-0.1-0.2-0.1c0,0.3-0.5,0.3-0.4,0.1c0,0,0.1,0,0-0.1
		C59.3,46.4,59.3,46.6,59.1,46.5z M99.3,47c-0.2,0.2-0.4,0.5-0.7,0.2c0,0,0.1,0.2,0.2,0.3c0,0,0.5,0.1,0.4,0.1
		c0.4,0,0.5-0.1,0.2-0.4c-0.1,0.1,0.1,0.2-0.1,0.2C99,47.3,99.6,47.2,99.3,47z M65.1,49.6c0.1,0,0.2,0,0.3,0
		c-0.1-0.4-0.1-0.7-0.5-0.6c0-0.1,0.1-0.1,0.1-0.2c-0.6,0.5-0.7-0.4-0.2-0.7c0,0.2,0.1,0.7,0.3,0.4c-0.5-0.1,0.1-0.2-0.1-0.1
		c0.1,0,0.2-0.1,0.1-0.1c0.5-0.3,0-0.2,0.1-0.7c-0.3,0-0.5,0.1-0.4,0.4c-0.3-0.1-0.3,0.4-0.5-0.2c0.2,0,0.5-0.1,0.6-0.4
		c-0.3-0.1-0.2,0.2-0.4,0.2c0.1-0.1-0.2-0.3-0.3-0.4c0.3,0.3,0.1,0.5-0.1,0.8c0.5,0.1-0.1,1.4,0.7,0.9c-0.1,0.1-0.1,0.3-0.2,0.4
		C65.1,48.9,65.5,49.3,65.1,49.6z M93.1,48.3c0.4,0.2,0.7-0.1,1,0c0-0.6-0.5,0.1-0.6,0.1c-0.4,0,0-0.2-0.2-0.6
		C93.2,48.1,93.3,48.2,93.1,48.3z M73,48.2c0,0.2,0.1,0.3,0.2,0.4c-0.1,0-0.2,0-0.2,0.1c0.2,0.3,0.3,0,0.6,0.2
		c-0.1-0.3,0.3-0.4,0.1-0.6c-0.1,0.1-0.1,0.3-0.2,0.4c0-0.2,0-0.3-0.1-0.6c0.1,0,0.1,0.1,0.2,0.1C73.6,47.9,73.3,48.4,73,48.2z
		 M67,49.4c0.2-0.3,0.1,0.2,0.4,0c-0.1-0.4-0.4-0.4,0.1-0.6c0,0.1,0,0.2,0,0.4c0.4-0.2,0.1-0.7-0.4-0.5c0-0.2,0-0.3-0.1-0.3
		c0.1,0.2-0.1,0.5-0.3,0.3c-0.2,0.2,0.1,0.4-0.1,0.6c-0.2-0.2,0-0.4-0.4-0.4c0,0.2-0.1,0.3,0,0.4L66,49.4v0.3
		c-0.1,0.1,0,0.4,0.1,0.7c0.1-0.2,0.3-0.2,0.4-0.3c-0.1,0,0-0.1,0-0.1c-0.1-0.1-0.2,0.2-0.2,0c0.1-0.2,0.4-0.1,0.2,0.1
		c0.1,0,0.2-0.1,0.2-0.2l0.3-0.1L67,49.4z M62.7,50.5c0,0,0.1,0.2,0.2,0.1c0.1-0.2-0.1-0.3-0.1-0.4c0-0.1,0.4-0.2,0.2-0.5
		c0,0.1-0.3,0.2-0.3,0.1c0-0.5,0.6-0.7,0.5-1.1c0,0.1,0,0.2-0.1,0.2c-0.2-0.5-0.7-0.3-0.8,0c0.1,0,0.3-0.1,0.4,0.1
		c-0.1,0-0.1,0.2-0.2,0.4c0.2,0,0.3,0.1,0.2,0.3c-0.1,0-0.4-0.1-0.4,0.1c0.9,0.2-0.3,1,0,0c-0.2,0.1-0.4,0.3-0.6,0.2
		c-0.1,0.6,0.9,0.5,0.4,0.7C62.5,50.9,62.7,50.5,62.7,50.5z M78.8,49.5c0.3,0,0.4,0.1,0.6-0.2c-0.3,0.1-0.5-0.1-0.8-0.1
		C78.7,49.4,78.7,49.5,78.8,49.5c-0.1,0.1-0.1,0.1-0.2,0.1c-0.1,0,0-0.4-0.2-0.3C78.4,49.8,79.3,50.1,78.8,49.5z M100.7,49.7
		c0.1,0,0.3,0.3,0.4,0.1c-0.1-0.1-0.1-0.3-0.1-0.4c-0.1,0.2-0.3-0.1-0.4-0.1c-0.2,0-0.5,0.2-0.6,0.2c0,0-0.1-0.1-0.2-0.1
		c-0.2,0.1,0.2,0.2,0,0.2c0,0-0.1-0.2-0.1-0.1C100,49.8,100.5,49.9,100.7,49.7z M98.2,49.7c-0.1-0.2-0.7-0.5-1.1-0.2
		c0.2,0.2,0.3,0.3,0.2,0.4c0.2-0.1,0.4,0.1,0.6-0.1C97.7,50.2,98.4,49.8,98.2,49.7z M73.3,50.7c-0.1-0.2-0.4-0.6-0.2-1
		c-0.2-0.1-0.1,0.2-0.3,0.2c0-0.2-0.2-0.3-0.2-0.1C73.1,49.9,72.6,50.7,73.3,50.7z M88.3,50c-0.2,0.2,0.2,0,0.2,0.3
		c0,0.3-0.5,0.4-0.4,0.6c0.1,0.3,0.6,0,0.6-0.2c-0.1,0.2,0.1,0.3,0.2,0.5c0.1-0.1,0.1-0.2,0-0.3c0.3-0.1,0.1,0.1,0.4,0
		c-0.1-0.3,0-1-0.3-0.6c-0.1,0-0.3-0.5-0.2-0.3c0.2,0.1-0.4,0.2-0.4,0.1c0,0,1-0.1,0.2-0.1C88.4,49.9,88.4,50,88.3,50z M75.3,50.7
		c0.4,0.7,0.7,0.1,0.4-0.4c-0.2,0.4-0.5,0-0.7,0.4C75.2,50.9,75.2,50.8,75.3,50.7z M80.9,52c0.2,0.4,0.8-0.1,0.4-0.2
		c0.1,0.2-0.2,0.2-0.2,0.1c0.6-0.4,0.1-0.4,0.2-0.7c-0.2,0.1-0.3,0.2-0.5,0.5C81,51.7,81.2,52.2,80.9,52z M72,52
		c-0.2-0.3-0.4-0.2-0.6-0.4c-0.1,0.3,0.3,0.2,0.4,0.3c-0.2,0-0.1,0.3-0.2,0.4c0.2,0,0.2-0.3,0.6-0.2c-0.1-0.3-0.2-0.3,0-0.5
		c-0.1-0.2-0.4,0-0.4,0.1C71.9,51.7,72.2,51.8,72,52z M68.6,52.5c0.3-0.1,0.1,0.1,0.1,0.2c0,0,0.1,0,0.1,0c0,0,0.1,0.1,0.1,0
		c-0.2-0.1,0.1-0.1,0.1,0c0.1-0.2-0.2,0-0.1-0.2c0.3,0.2,0.3-0.3,0.5-0.4c-0.2-0.1-0.4,0-0.5-0.2c0.2-0.1,0.2-0.1,0.5,0
		c0-0.1-0.2-0.3-0.3-0.3c0,0-0.4,0.3-0.4,0.2c-0.1,0.4,0.3,0.2,0.6,0.4C69.1,52.4,68.5,52.1,68.6,52.5z M71.4,53.1
		c0.5,0,0.9-0.3,1.1-0.6c-0.6,0.2-0.9-0.1-1.1,0C71.6,52.6,71.2,52.9,71.4,53.1z M69,52.9c0.1,0.1,0.4,0.1,0.4,0.2
		c0,0.2-0.2,0.2-0.2,0.4c0.7-0.1,0.9,0,1.1-0.4c-0.5,0.3-0.6-0.5-1.1-0.4C69.3,52.8,69.1,52.7,69,52.9z M74.1,54.5
		c0.1,0.1,0.3,0,0.4-0.1c-0.1,0.4,0.7,0.4,0.4-0.1C74.8,54.8,74.3,54,74.1,54.5z M76.8,54.7c0,0.2,0,0.3,0.1,0.4
		c0.3-0.2,0.7-0.1,0.7-0.4c0,0.1,0.1,0.1,0.2,0.1c-0.1-0.3-0.5-0.1-0.6,0.1C77.3,54.6,77,55,76.8,54.7z M78.7,55
		c-0.2,0.3-0.1,0.6-0.4,0.9c0.4,0.1,0.5-0.2,0.9,0c0.3-0.2-0.2-0.3,0-0.6c-0.2,0-0.2,0.1-0.3,0.1c-0.1-0.1,0.2-0.2,0-0.2
		c-0.1,0.1-0.1,0.2-0.3,0.2c0-0.1,0-0.2,0-0.2c0.3,0.1,0.4-0.3,0.4-0.5C78.9,54.8,78.8,54.9,78.7,55z M73.3,55.4
		c0.2-0.1-0.1-0.3,0.1-0.3c0.1,0.3,0.4,0.4,0.5,0.7c-0.1,0-0.2-0.1-0.2,0c0.4,0.1,0.6-0.2,0.3-0.4c0.5,0,0.2-0.6,0-0.4
		c0.1,0,0.1,0.1,0.1,0.2c-0.3-0.2-0.2,0-0.4,0.1c-0.1-0.5,0.3-0.4-0.1-0.6c0,0.2,0,0.3-0.2,0.2c0-0.3-0.1-0.1-0.2-0.2
		c0,0.2,0,0.3,0.1,0.4c-0.2,0.1-0.2,0-0.2,0.1C73.1,55.2,73,55.5,73.3,55.4z M83.5,55.5c-0.1,0.1,0.2,0.6-0.3,0.4
		c0-0.1,0.2-0.1,0.2-0.2c-0.2-0.1-0.3,0.2-0.6,0.2c0.2,0,0.7,0.1,0.4,0.4c0.1-0.1,0.2,0.2,0.2,0c-0.2-0.3,0.3-0.3,0.2,0
		c0-0.3,0.2-0.3,0-0.5c0.2-0.2,0.2,0.1,0.4,0.1c0.1-0.2-0.2-0.1-0.2-0.2c0.4-0.3,0.2,0.4,0.3,0.2C84.7,55.4,83.7,55.4,83.5,55.5z
		 M77.1,55.7c-0.1,0,0-0.2-0.2-0.1c0,0.1,0,0.2,0,0.2c0.2-0.1,0.4,0,0.6,0.1c0,0.1-0.2,0-0.2,0.1c0.3,0.2,0.2-0.5,0.5-0.2
		c0-0.1,0-0.2,0-0.2C77.3,55.4,77,55.3,77.1,55.7z M85.1,55.5c-0.1,0.4-0.3,0-0.6,0.1c0,0.2,0.1,0.2,0.1,0.4c-0.1,0-0.1-0.1-0.2-0.1
		c0,0,0.1-0.1,0-0.1C84.1,56.3,85.5,56,85.1,55.5z M100.6,56.8c0.1,0,0.2-0.6,0-0.6c0.7-0.7-0.3-0.5-0.7-0.7c0,0.2,0.1,0.2,0.2,0.3
		c-0.8-0.2-0.1,1.3,0.2,0.7c-0.2,0-0.2,0.1-0.2-0.1C100.2,56.4,100.4,56.9,100.6,56.8z M78.8,56c0,0.7,0.4,0.3,0.7,0.3
		c-0.2-0.2,0.2-0.4,0-0.6C79.4,56.1,79.2,56.1,78.8,56z M77,57c0,0.1,0,0.2,0.1,0.2c0-0.1,0.2-0.2,0.2-0.1c-0.1,0.1-0.2,0.3-0.7,0.6
		c0-0.2,0-0.3-0.1-0.3c-0.1,0.1-0.1,0.1,0.1,0.1c-0.1,0.7,1.2,0.2,1.1,0.9c0.2-0.2,0-0.2,0-0.5c0.4,0.2,0.3,0,0.4-0.3
		c-0.1,0-0.1-0.1-0.2-0.1c-0.2,0.1,0.1,0.2-0.1,0.3c0,0-0.1,0-0.1,0c-0.2-0.5,0.1-0.4,0.4-0.4c0-0.1-0.1-0.1-0.1-0.2
		c-0.4,0-0.4,0.1-0.5,0.2c0-0.2-0.1-0.2-0.2-0.1c0.1-0.4,0.2-0.3,0.5-0.2c-0.2-0.2,0.2-0.5,0-0.4C77.6,57.1,77.2,56.9,77,57z
		 M80.1,57.9c0.2-0.2-0.1-0.4-0.4-0.5c0,0,0-0.1,0-0.1c0.1,0,0.4,0.1,0.3,0c-0.3-0.4-0.4,0.2-0.8,0c0.1,0,0.2,0,0.2-0.1
		C79.2,57.3,79,57,79,57.1C79.3,57.7,79.8,57.4,80.1,57.9z"/>
	<path d="M82.6,31.9L82.4,32c-0.1-0.1-0.3-0.1-0.4-0.4c0.1-0.2,0.3,0.1,0.3-0.1c-0.1-0.4-0.3-0.1-0.6-0.2c-0.3-0.1-0.3-0.5-0.6-0.2
		c0,0-0.1-0.1-0.1-0.1c0.1,0,0.1,0.1,0.2,0.1c0-0.2-0.2-0.2-0.3-0.4c0.2-0.2,0.1-0.3,0.3-0.1c0.1-0.2-0.2-0.4,0.1-0.4
		c0,0.2,0.1,0.4,0.2,0.4c0.1-0.2-0.2-0.4-0.1-0.6c0,0.1,0,0.2,0.1,0.2c0.2-0.5,1.2,0.2,0.5,0.4c0.7,0,1.2,0.7,0.5,0.8
		c0.3,0.2,0.9-0.1,0.6-0.3c0.2,0.2,0.4,0.3,0.6,0.4c-0.4-0.1-0.2,0.3-0.3,0.4c-0.2,0-0.2-0.2-0.4-0.2c0.2,0.5,0.7,0.3,0.6,0.7
		c0,0.1-0.3,0-0.3,0.1c0,0,0.2,0.4-0.1,0.3c0-0.2,0.1-0.3-0.1-0.3c-0.1,0.4-0.4-0.1-0.6-0.2L82.6,31.9z"/>
	<path d="M91.7,39.2l0-0.2c0.2,0.1,0.9-0.2,1.1-0.2c0.4,0,0.6,0.3,0.8,0.2c0.2-0.1,0-0.4-0.2-0.4c0-0.3,0.5,0.1,0.7,0.2
		c-0.6,0.3,0.1,0.7,0.2,0.4c0.1,0.3-1.1,0.3-0.4,0.7c-0.6,0.5-1,0-1.9,0.1c0-0.2,0-0.4-0.2-0.4L91.7,39.2z"/>
	<path d="M91.2,29.8l0.2,0.1c0,0.4-0.2,0.5-0.4,0.7c0.1,0.1,0.2,0.1,0.2,0.2c-0.1,0.3-0.7-0.2-0.5-0.4c-0.2-0.1-0.4-0.1-0.2-0.3
		c-0.1-0.2-0.1,0.2-0.2,0c0.2-0.3,0.2-0.2-0.1-0.4c0.1-0.2,0.3-0.2,0.4-0.3c-0.1,0.1-0.2-0.1-0.1-0.1c0.1-0.1,0.7,0,0.8,0.4
		L91.2,29.8z"/>
	<path d="M84,43.7v-0.3c0.5-0.1,0.5,0.7,0.1,0.9c0.2,0.7-0.4,0.3-0.6,0.1c0,0.2,0.2,0.1,0.2,0.3c-0.1,0-0.1,0.1-0.1,0.1
		c-0.3-0.1-0.3-0.6,0.1-0.7c-0.1,0.1-0.1,0.4,0.1,0.4c0.1-0.4,0-0.5-0.4-0.5c0.2-0.2,0.4-0.1,0.6-0.4L84,43.7z"/>
	<path d="M85.7,49.6l0,0.3c-0.6,0.5-0.3-0.9,0-1c-0.3-0.1-0.3-0.2-0.2-0.4c0,0.1,0.5-0.1,0.7,0.3c0.1,0.2-0.3,0.3,0.1,0.4
		c0.1-0.1,0-0.3,0.1-0.4c0.3,0,0.1,0.4,0.2,0.5c-0.3,0-0.6,0.2-0.3,0.5c-0.1,0,0,0.1-0.1,0.1c0-0.1-0.1-0.4-0.3-0.2L85.7,49.6z"/>
	<path d="M85.5,45.2l0.2,0c0.2,0,0.6,0,0.3-0.3c0.1,0,0.3-0.1,0.3,0.1c-0.1,0-0.2,0-0.2,0.1c0.1,0.1,0.2,0.1,0.3,0.1
		c0.1-0.1-0.2-0.2,0-0.2c0.2,0.2,0.3,0.2,0.6,0.1c0.2,0.3-0.4,0.7-0.1,1c0-0.2,0-0.4,0.2-0.3c-0.2,0.2,0.2,0.5-0.1,0.6l-0.2-0.1
		l0.1,0.2c-0.1,0.2-0.2-0.1-0.4-0.1c0,0.3,0.4,0.2,0.1,0.5c-0.1-0.4-0.6,0-0.7-0.2c0-0.1,0.2,0,0.2-0.1c-0.2-0.3-0.9,0.7-1.2,0
		c0-0.1,0.2-0.2,0.2-0.4C85,46,85,46.2,85,46.3c-0.1-0.1-0.7-0.4-0.7-0.4c0.1-0.2,0.3,0,0.6-0.2c-0.4,0.1-0.1-0.4-0.1-0.4
		c0.1,0.3,0.6,0.2,0.7,0.5c-0.1-0.1,0.1-0.4-0.1-0.5c-0.1,0,0,0.2-0.1,0.2c0-0.1,0-0.1-0.1-0.1c0.3-0.2-0.3-0.3,0.2-0.4L85.5,45.2z"
		/>
	<path d="M102.7,39.4c0,0.1,0,0.1-0.1,0.1c-0.1,0.3,0.1,0.2,0.1,0.4c-0.1-0.1-0.4,0.2-0.3-0.2c-0.2-0.1,0,0.2-0.2,0.1
		c0.1-0.2,0-0.2-0.2-0.3C102.3,39.2,102.4,39.8,102.7,39.4z"/>
	<path d="M76.6,22.1C77.9,22.4,75.9,22.9,76.6,22.1L76.6,22.1z"/>
	<path d="M74,24.6c0.3,0.1,0.4-0.1,0.6-0.1c0.1,0.2-0.2,0-0.1,0.2c0-0.3,1.1,0.4,0.5,0.5c-0.4,0.1-0.3-0.3-0.5-0.4
		C74.4,24.8,73.9,25,74,24.6z"/>
	<path d="M85.1,24.8c-0.1,0.5-0.3,0.6-0.6,0.6c0.1-0.1,0.1-0.2,0-0.2c-0.1,0-0.2,0.1-0.2,0.2C84.3,24.9,85,25,85.1,24.8z"/>
	<path d="M71.1,30.1C71.1,30.1,71.1,30.1,71.1,30.1c0,0.1,0.2,0.1,0.2,0.1c-0.1-0.2,0.1-0.4-0.2-0.2c0.2-0.6,0.3,0.3,0.5,0.2
		C71.7,30.4,70.8,30.9,71.1,30.1z"/>
	<path d="M81.1,33.2c0,0.1,0,0.1,0.1,0.1c0,0.3-0.5,0.2-0.6,0.2c0,0-0.1,0.2-0.1,0.2c-0.3-0.1-0.6-0.6-0.7-0.8
		c0.5,0.1,0.4-0.7,0.9-0.2c-0.1,0.1-0.1,0.3-0.2,0.4c0.1,0.1,0.2,0.2,0.3,0.2C80.5,32.9,80.8,33.4,81.1,33.2z"/>
	<path d="M87,34.8c-0.2,0,0.1-0.4,0.2-0.5c0.5,0.6,0.8-0.1,1.4,0.2c0.1,0.1,0.1,0.3,0.3,0.3c-0.1,0.1-0.4,0.3-0.6,0.2
		c0.2,0.4-0.1,0.3-0.2,0.6c0.5,0.3-0.1,0.6,0.2,1.1c-0.3,0,0-0.8-0.7-0.7c0.1-0.2-0.1-0.4-0.1-0.6c-0.3,0.3-0.6-0.3-0.4-0.5
		c0.1,0.1,0.1,0.2,0.2,0.2c-0.1-0.2,0.1-0.4-0.2-0.4c0.2-0.2,0.2,0.2,0.3,0.1C87.7,34.8,87.1,34.2,87,34.8z"/>
	<path d="M89.3,35.1c0,0,0.3-0.2,0.1,0c-0.1,0.1-0.7,0.6-0.9,0.2C88.4,35,88.9,35.1,89,35c0.3-0.1-0.4-0.2,0.3-0.1
		C89.2,34.9,89.3,35.1,89.3,35.1z"/>
	<path d="M83.6,52.9C83.5,52.9,83.6,52.8,83.6,52.9c0-0.1,0-0.1,0-0.2c0.1,0.1,0.2,0.2,0.3,0.3c0.2-0.1-0.2-0.2-0.1-0.4
		c0.1,0.1,0.2,0.1,0.4,0.1c0-0.1-0.1-0.1-0.1-0.2c0.1,0,0.1,0,0.2,0C84.3,53,84,53.4,83.6,52.9z"/>
	<path d="M84.5,49.2c0.2,0.1,0.1,0.6,0.1,0.6c0.1,0.2,0.5,0.4,0.5,0.9c-0.6,0.1-0.3-0.2-0.6-0.4c-0.2,0,0.1,0.1,0,0.2
		c-0.1,0-0.2,0-0.2,0c0.2-0.3,0.5-0.6,0-0.8C84.4,49.5,84.3,49.4,84.5,49.2z"/>
	<path d="M84.7,49.8c-0.2-0.3,0.4-0.2,0.1-0.6C85.4,49.2,85.3,49.9,84.7,49.8z"/>
	<path d="M85,48c-0.1,0.1-0.4,0.1-0.4,0.5c0.2,0,0.1-0.3,0.4-0.2c-0.2,0.3-0.4,1.1-0.7,0.8c0.2-0.2,0.4-0.2,0.5-0.4
		c-0.4,0-0.6,0.1-0.6-0.4c0.1-0.2,0.1,0.2,0.2,0.2C84.4,48.2,84.7,47.7,85,48z"/>
	<path d="M84.8,46.5c0.1,0.1-0.1,0.3-0.2,0.4c0,0.1,0.3,0,0.4,0.1C84.7,47.6,84.2,46.5,84.8,46.5z"/>
	<path d="M84,49c-0.1,0-0.1,0.1-0.2,0.1c0.4,0.2,0.1,0.5-0.1,0.8c-0.2,0,0-0.3-0.2-0.3c0.1,0,0.1-0.2,0.2,0c0.1,0,0-0.1,0.1-0.1
		c-0.2-0.2-0.2,0-0.4,0c0-0.2,0.3-0.1,0.3-0.3c-0.1,0-0.4,0-0.4-0.2c0.2,0,0.4,0.1,0.3-0.1C83.9,48.8,84,48.9,84,49
		C84.1,49.1,84,49,84,49z"/>
	<path d="M83.1,49.5c0.1,0.1,0.1,0,0.3,0c0,0.1,0,0.2,0,0.2C83,49.6,83.1,50.1,83.1,49.5c-0.3,0-0.3,0.2-0.5,0.2
		c0.1-0.4,0.7-0.3,0.6-0.7c-0.2,0.1-0.2,0.3-0.6,0.3c0.3-0.5,0.4-0.5,0.7-0.4C83.2,49.1,83.4,49.3,83.1,49.5z"/>
	<path d="M86.7,50c0-0.2,0.3-0.3,0.4-0.3c0.2,0.1-0.1,0.2-0.2,0.2c-0.1,0.3,0.3,0.4,0.1,0.7c-0.1-0.1-0.4-0.2-0.4-0.3
		C86.5,50.2,86.7,50.1,86.7,50c-0.1,0-0.5-0.3,0-0.4C86.6,49.8,86.4,49.7,86.7,50z"/>
	<path d="M87.2,29.9c0,0.1,0.3-0.1,0.2,0.2c-0.3,0-0.2,0-0.4,0c-0.2,0-1,0-1,0.1c-0.6-0.4,1.2-1.6,1.1-0.7c0.3-0.1,0.7-0.1,0.7,0.2
		C87.6,29.8,87.4,29.8,87.2,29.9z"/>
	<path d="M86.8,32.6c0-0.1,0.1-0.1,0.2-0.1c0,0.3-0.1,0.4-0.1,0.9c-0.2,0-0.2-0.2-0.2-0.3c-0.1,0-0.1,0.2-0.2,0.1
		C86.1,32.8,87,33,86.8,32.6z"/>
	<path d="M81,54.1c0.2-0.2-0.4-0.3-0.1-0.6c-0.1,0-0.2,0-0.2,0.1c0-0.6,0.3-0.1,0.4,0.1c0,0,0.2-0.1,0.2-0.1
		C81.2,53.7,81.3,54,81,54.1z"/>
	<g>
		<path fill="none" stroke="#000000" stroke-width="0.4805" stroke-linecap="round" d="M74.1,23.4c0.5,0.3,0.3-0.5,0.8-0.4"/>
		<path fill="none" stroke="#000000" stroke-width="0.2432" stroke-linecap="round" d="M71.6,27.6c0.2,0.5,0.6,0.6,1.1,0.5"/>
		<path fill="none" stroke="#000000" stroke-width="0.1717" stroke-linecap="round" d="M69,29.1c-0.2,0-1-0.1-0.6,0.2"/>
		<path fill="none" stroke="#000000" stroke-width="0.3402" stroke-linecap="round" d="M78.6,33.8c0.5,0,1,0.3,1.2,0.7"/>
		<path fill="none" stroke="#000000" stroke-width="0.3401" stroke-linecap="round" d="M81.6,33.8c0.1-0.7-0.9-1.2-0.2-1.7
			c0.4-0.3,0.9,0.3,1.3-0.2"/>
		<path fill="none" stroke="#000000" stroke-width="0.2063" stroke-linecap="round" d="M84.3,34.2c-0.3-0.4-0.7,0.3-0.9,0"/>
		<path fill="none" stroke="#000000" stroke-width="0.4363" stroke-linecap="round" d="M91,38.3c0,0.5,0.1,0.9,0.7,0.8"/>
		<path fill="none" stroke="#000000" stroke-width="0.3046" stroke-linecap="round" d="M91.2,29.8c0.3,0,1,0,0.9-0.5"/>
		<path fill="none" stroke="#000000" stroke-width="0.4701" stroke-linecap="round" d="M58.4,26.9c-0.4,0.5-0.7-0.3-1.2-0.2"/>
		<path fill="none" stroke="#000000" stroke-width="0.2804" stroke-linecap="round" d="M61.4,26.1c-0.4,0.6,0.7,1,1.2,0.8
			c0.1,0.1,0.1,0.3,0.2,0.3"/>
		<path fill="none" stroke="#000000" stroke-width="0.3018" stroke-linecap="round" d="M63.2,28.7c-0.2,0.2-1.2,0.7-1.3,0.1"/>
		<path fill="none" stroke="#000000" stroke-width="0.2653" stroke-linecap="round" d="M67.2,37.1c-0.3-0.3-0.8,0.1-1-0.4"/>
		<path fill="none" stroke="#000000" stroke-width="0.6804" stroke-linecap="round" d="M75.2,40.3c0.2,0,0.4,0,0.6-0.1"/>
		<path fill="none" stroke="#000000" stroke-width="0.1966" stroke-linecap="round" d="M73.1,40c-0.1-0.4-0.2-0.9,0.2-1.1"/>
		<path fill="none" stroke="#000000" stroke-width="0.5657" stroke-linecap="round" d="M75.2,40.3c-0.1-0.1-0.2-0.1-0.4-0.2"/>
		<path fill="none" stroke="#000000" stroke-width="0.3201" stroke-linecap="round" d="M75.2,40.3c0.2,0.5,0.2,1.1-0.1,1.6"/>
		<path fill="none" stroke="#000000" stroke-width="0.2967" stroke-linecap="round" d="M83.4,42.8c0.3,0.1,0.7-0.3,0.9,0"/>
		<path fill="none" stroke="#000000" stroke-width="0.2964" stroke-linecap="round" d="M72.8,43.4c0.5-0.2,0.8-0.3,1.2,0.1"/>
		<path fill="none" stroke="#000000" stroke-width="0.4463" stroke-linecap="round" d="M82.3,44.4c0.3-0.4,0.9-0.7,0.6-1.2"/>
		<path fill="none" stroke="#000000" stroke-width="0.2768" stroke-linecap="round" d="M83.4,42.8c0,0.4,0.5,0.5,0.6,0.9"/>
		<path fill="none" stroke="#000000" stroke-width="0.5029" stroke-linecap="round" d="M83.4,42.8c0,0-0.1-0.1-0.1-0.1"/>
		<path fill="none" stroke="#000000" stroke-width="0.3948" stroke-linecap="round" d="M83.8,46c-0.1,0.6-1,0.8-0.9-0.1"/>
		<path fill="none" stroke="#000000" stroke-width="0.3366" stroke-linecap="round" d="M81,47.9c0.1,0.4-0.3,0.8,0.1,1.1"/>
		<path fill="none" stroke="#000000" stroke-width="0.4519" stroke-linecap="round" d="M81.7,49.7c-0.1,0.7,0.9,0.9,1.4,0.9
			c0.4,0,0.6,0.1,0.4,0.8"/>
		<path fill="none" stroke="#000000" stroke-width="0.3019" stroke-linecap="round" d="M83.1,52.1c-0.4,0.4,0.2,0.5,0.3,0.7
			c0.2,0.3,0.2,0.6,0.4,0.8c0,0,0.2,0,0.2,0c0.2,0.2,0.5,0.6,0.8,0.4"/>
		<path fill="none" stroke="#000000" stroke-width="0.3432" stroke-linecap="round" d="M84.5,52.6c0.5,0,0.8-0.2,1.4-0.3"/>
		<path fill="none" stroke="#000000" stroke-width="0.1248" stroke-linecap="round" d="M85,51.6c0,0.5,0.3,0.5,0.6,0.3"/>
		<path fill="none" stroke="#000000" stroke-width="0.3774" stroke-linecap="round" d="M86.2,51.5c-0.5,0-0.9-0.3-0.7-0.7
			c0.1-0.2,0.2,0,0.5-0.1c0.5-0.3-0.1-0.6-0.2-1.1"/>
		<path fill="none" stroke="#000000" stroke-width="0.2662" stroke-linecap="round" d="M86.7,46.9c0.3-0.1,0.6-0.6,0.2-0.8"/>
		<path fill="none" stroke="#000000" stroke-width="0.3914" stroke-linecap="round" d="M85.5,45.2c0-0.3-0.3-0.6-0.4-0.8
			c0.3-0.1,0.6-0.2,0.9-0.1"/>
		<path fill="none" stroke="#000000" stroke-width="0.4646" stroke-linecap="round" d="M96.2,45.3c0.6,0.3,0.9-0.6,0.5-1"/>
		<path fill="none" stroke="#000000" stroke-width="0.4812" stroke-linecap="round" d="M81.6,47.4c0.3-0.2,0.6-0.7,0.5-1.1"/>
		<path fill="none" stroke="#000000" stroke-width="0.3629" stroke-linecap="round" d="M80.8,47.9c0.1,0,0.1,0,0.2,0"/>
		<path fill="none" stroke="#000000" stroke-width="0.2876" stroke-linecap="round" d="M81,47.9c0.1-0.3,0.4-0.3,0.6-0.6"/>
		<path fill="none" stroke="#000000" stroke-width="0.2768" stroke-linecap="round" d="M81.6,47.4c-0.3-0.4-0.6-0.8-0.8-1.3"/>
		<path fill="none" stroke="#000000" stroke-width="0.7415" stroke-linecap="round" d="M67,49.7c-0.3-0.2-0.7-0.1-1.1-0.3"/>
		<path fill="none" stroke="#000000" stroke-width="0.4379" stroke-linecap="round" d="M78.6,52.1c-0.3-0.2-0.7-0.2-1-0.4"/>
		<path fill="none" stroke="#000000" stroke-width="0.3738" stroke-linecap="round" d="M80,53.3c0.3-0.4-0.1-0.6,0.4-1.1"/>
		<path fill="none" stroke="#000000" stroke-width="0.1833" stroke-linecap="round" d="M77.1,51.5c-0.7,0.3-0.1-0.5-0.5-0.7"/>
		<path fill="none" stroke="#000000" stroke-width="0.279" stroke-linecap="round" d="M81.9,52.5c0.3,0.3,0.5,0.7,0.8,1"/>
		<path fill="none" stroke="#000000" stroke-width="0.2944" stroke-linecap="round" d="M80.9,55.1c-0.5-0.6,0.2-0.6,0.6-0.3"/>
		<path fill="none" stroke="#000000" stroke-width="0.3656" stroke-linecap="round" d="M89.4,36.5c-0.2,0.3-1,0.2-0.5-0.2"/>
		<path fill="none" stroke="#000000" stroke-width="0.231" stroke-linecap="round" d="M65.8,29.1c0-0.5,0.8-0.6,0.5-1"/>
		<path fill="none" stroke="#000000" stroke-width="0.1989" stroke-linecap="round" d="M84.2,47.5c0.5,0.3-0.6,0.7-0.5,0.2"/>
	</g>
</g>
</svg>
