<?xml version="1.0" encoding="utf-8"?>
<!-- Generator: Adobe Illustrator 18.0.0, SVG Export Plug-In . SVG Version: 6.00 Build 0)  -->
<!DOCTYPE svg PUBLIC "-//W3C//DTD SVG 1.1//EN" "http://www.w3.org/Graphics/SVG/1.1/DTD/svg11.dtd">
<svg version="1.1" id="Capa_1" xmlns="http://www.w3.org/2000/svg" xmlns:xlink="http://www.w3.org/1999/xlink" x="0px" y="0px"
	 viewBox="0 0 125.5 110.4" enable-background="new 0 0 125.5 110.4" xml:space="preserve">
<g>
	<path d="M39.8,44.9c0.4-0.5,0.7,0.3,1,0.3c-0.1,0.2-0.2,0.4-0.3,0.6C40.2,45.6,40.2,45.1,39.8,44.9z"/>
	<path fill="#FFFFFF" d="M54,47.8c0.4,0.2,0.6,0.2,1,0c-0.3,0.9-0.7,0.3-1.3,0.9C53.6,48.1,54.2,48.3,54,47.8z"/>
	<path fill="#FFFFFF" d="M53.5,48.2c0.3,0.1,0.1,0.9,0,1C53,49,53.6,48.6,53.5,48.2z"/>
	<path fill="#FFFFFF" d="M54.6,50.1c0.2,0,0.4,0,0.6,0c-0.2,0.5-0.5,0.8-1,1c0.5-0.5-0.7-0.2-0.4-0.9c0.1,0,0.1,0.2,0.1,0.3
		C54.6,50.4,54.9,50.7,54.6,50.1z"/>
	<path fill="#FFFFFF" d="M41,51.2c0.5,0.2,0.7,0.6,1,0.9c0,0.4-0.5,0.4-0.6,0.7C41.5,52.2,40.6,51.8,41,51.2z"/>
	<path fill="#FFFFFF" d="M50,53c-0.1-0.1-0.3-0.2-0.6-0.1C49.4,52.4,50.1,52.5,50,53z"/>
	<path fill="#FFFFFF" d="M52,52.6c0.1,0,0.3,0,0.4,0c0.1,0.3-0.3,0.2-0.3,0.4C52,53,52,52.7,52,52.6z"/>
	<path d="M27.1,54.1c0.1,0,0.3,0,0.4,0c0,0.2-0.1,0.2-0.1,0.4c-0.1,0-0.2,0-0.3,0C27.1,54.4,27.1,54.3,27.1,54.1z"/>
	<path fill="#FFFFFF" d="M34.9,56c0.4-0.2,0.4,0.6,0,0.4C34.9,56.3,34.9,56.2,34.9,56z"/>
	<path d="M50.7,58.1c0.2,0.5,0.5,0.3,0.9,0.4c-0.1,0.1-0.4,0.7,0.1,0.6c-0.3,0.2-0.6,0.3-1,0.4c0.3-0.6,0.2-0.8-0.3-1.2
		C50.4,58.2,50.7,58.3,50.7,58.1z"/>
	<path fill="#FFFFFF" d="M67.9,58.3c0.3,0,0.3,0.2,0.3,0.6C68,58.9,67.9,58.7,67.9,58.3z"/>
	<path fill="#FFFFFF" d="M100.1,58.3c0.4-0.2,0.4,0.6,0,0.4C100.1,58.6,100.1,58.5,100.1,58.3z"/>
	<path fill="#FFFFFF" d="M26.9,58.9c-0.4,0.1-0.3-0.3-0.6-0.3C26.4,58.3,27.1,58.6,26.9,58.9z"/>
	<path fill="#FFFFFF" d="M27.5,59.5c-0.4,0.1-0.3-0.3-0.6-0.3C27,58.9,27.7,59.1,27.5,59.5z"/>
	<path fill="#FFFFFF" d="M26.6,59.4c0.2,0.3,0.5,0.4,0.6,0.9c-0.2-0.1-0.4-0.2-0.7-0.1C26.7,59.6,26.5,59.7,26.6,59.4z"/>
	<path d="M53.9,59.9c0.4-0.2,0.4,0.6,0,0.4C53.9,60.2,53.9,60.1,53.9,59.9z"/>
	<path fill="#FFFFFF" d="M57.1,61.1c0.4-0.6,0.9,0.7,1.2-0.1c0.3,0.5-0.4,0.6-0.3,1.2C57.7,61.7,57.5,61.3,57.1,61.1z"/>
	<path fill="#FFFFFF" d="M59,65.6c-0.2,0-0.4,0-0.6,0C58.3,65,59,65.1,59,65.6z"/>
	<path fill="#FFFFFF" d="M59.4,66.2C59,66,58.9,66.3,58.5,66C58.7,65.7,59.4,65.6,59.4,66.2z"/>
	<path d="M47.9,66.8c0.3,0,0.4,0.2,0.9,0.1c-0.1,0.5-0.1,0.6,0,1.2c-0.3,0-0.3-0.2-0.6-0.1c0.5,0.7-0.4,1.1-0.1,1.6
		c-0.8-0.2-0.8,0.4-1.3,0.1c-0.2,0.6,0.6,0,0.4,0.6c-0.5-0.1-0.7-0.1-1.2-0.4c0-0.3,0-0.6,0-0.9c0.7-0.6,1,0,1.3-0.9
		c0.4,0,0.4,0.4,0.6,0.6C48.3,68,48.1,67.4,47.9,66.8z M46.4,69.5c0.1,0,0.2,0,0.3,0c0-0.2,0-0.4,0-0.6c-0.1,0-0.2,0-0.3,0
		C46.4,69.1,46.4,69.3,46.4,69.5z"/>
	<path d="M49.1,67.5c0.3,0,0.3,0.4,0.3,0.7C49,68.2,48.9,67.7,49.1,67.5z"/>
	<path d="M42,68.8c0.7,0.3,1.4,0.7,1.7,1.3c-0.9-0.2-1.3-0.6-2.2-0.1C41.7,69.6,41.9,69.2,42,68.8z"/>
	<path fill="#FFFFFF" d="M46.4,68.9c0.1,0,0.2,0,0.3,0c0,0.2,0,0.4,0,0.6c-0.1,0-0.2,0-0.3,0C46.4,69.3,46.4,69.1,46.4,68.9z"/>
	<path d="M54.6,74.9c-0.2,0.1,0,0.5-0.4,0.4C54.2,75,54.3,74.8,54.6,74.9z"/>
	<path fill="#FFFFFF" d="M51,76.6c-0.1,0.2-0.3,0.3-0.6,0.3C50.3,76.5,50.7,76.6,51,76.6z"/>
	<path d="M86.1,86.5c0.2,0.1,0.5,0.2,0.4,0.6C86.3,86.9,86,86.8,86.1,86.5z"/>
	<path d="M27.4,58.8c-0.1-0.1-0.3,0.1-0.4-0.1c-0.2-0.2-0.1-0.6-0.3-0.7c-0.4-0.3-1-0.2-1.3-0.4c0.1,0.7,1,1.1,0.1,1.6
		c-0.5,0.4,0-0.3-0.3-0.3c-0.3,0.3-1,0.7-1.4,0.3c-0.3,0.2,0.2,0.8-0.1,1.2c-0.7-0.2-1.9,0-2-0.7c-0.5,0.1-1,0.1-1.4,0
		c0.5,1,0.7,2.1,0.7,3.2c0.4,0.4,1,0.3,1.4,0.8c-0.4,0.7,0.6,2.2-0.9,2.6c0.5,0.8,0.7,1.7,1,2.9c0.2-0.2,0.7-0.1,0.6,0.4
		c1-0.9,2.5-1.6,3.2-1.2c0.3-1.2,0-3.2,1.2-3.9c-0.3-0.7-0.3-0.9,0-1.4c-0.1-0.2-0.2,0.1-0.4,0c0.5-0.5,0.2-1.4,0.3-2
		C27.9,60.4,28.1,59.4,27.4,58.8z M27.5,59.5c-0.4,0.1-0.3-0.3-0.6-0.3C27,58.9,27.7,59.1,27.5,59.5z M26.9,58.9
		c-0.4,0.1-0.3-0.3-0.6-0.3C26.4,58.3,27.1,58.6,26.9,58.9z M26.5,60.1c0.2-0.5,0-0.4,0.1-0.7c0.2,0.3,0.5,0.4,0.6,0.9
		C27.1,60.1,26.8,60,26.5,60.1z"/>
	<path d="M82.7,20.1c0.2-0.2,0.2-0.6,0.4-0.9c0.4,0.4,0.8-0.3,0.9-0.7c0.6,0.2,0.7,0.1,0.7-0.6c0.6,0.1,0.6-0.3,0.7-0.6
		c0.3,0.6,0.2-0.1,0.7-0.1c-0.1,0.3,0.3,0.2,0.3,0.4c0.2,0,0.1-0.3,0.1-0.4c0.7,0,1,0.2,1.4,0.4c0.3,0,0.1-0.5,0.1-0.7
		c0.3,0.8,0.8-0.5,1.2,0c0.7-0.2,0.4-1.4,1.4-1.2c-0.1-0.3-0.4-0.3-0.3-0.7c0.2-0.1,1,0.1,0.9-0.4c1,0,1.4,0.4,2.3,0.7
		c0.6-0.1,0.8-0.6,1.3-0.7c-0.1,0.4,1.4,0.2,1.4,1.2c0.9-0.6,1.8,1.7,1.6,2.2c0,0.3,0.5,0.1,0.6,0.3c-0.5,3.7,3.4,4.9,2.5,8
		c0.2,0.6,0.5,1,1,1.2c-0.6,0.5,0.9,1.1,0.1,1.2c1.4,0.4,2.3-0.3,3.2,0.3c-0.3,0.3,0,0.4,0,0.7c0.3-0.5,0.3-0.1,0.3,0.4
		c0.7-0.4,0.7,0,1.6,0c-0.3,0.7,0.1,1.3-0.7,1.6c0.5,0.7,0.1,1.2-0.4,1.6c0.7,0.4,0.3,1.3-0.1,1.7c0.7,0.6-0.4,2,0.4,2.5
		c0,0.2-0.6,0.3,0,0.3c-0.2,1.2-1.3,2-1.2,3c-1.8,0.7,0.3,4.2-0.9,6.1c-1.2-0.1-0.7,1.2-1.6,1c-0.1,0.7-0.2,1.7,0.4,2
		c-0.7,0.8-1,2.8-0.3,3.5c0,0.1-0.4,0.6,0,0.6c-0.5-0.1-0.5,0-0.4,1c-0.4,0-0.1,0.7-0.9,0.7c0.1,0.3,0.8,0.5,0.4,0.9
		c-0.5-0.6-0.1,0.2-0.1,0.7c-0.7-0.1-0.3,0.2-0.3,0.6c-0.2,0-0.4,0-0.6,0c0.1,0.1,0.1,0.3,0.3,0.3c-2.7,1.2-1.1,5.5-1.6,7.5
		c-1.4,0.4-1.2,1.5-0.7,2.8c-0.7,0.2,0.2,1.7-0.6,1.3c0.4,1-0.7,1.1-0.1,2.2c-0.5-0.1-0.2,0.5-0.4,0.6c-0.4-0.7-1.1,0-1.7,0.3
		c0.3,2-0.1,3.7,0,5.4c-0.2,0.2-0.7-0.2-0.7,0.4c-0.3-0.3-0.6-0.6-1.2-0.6c-0.3,0.1-0.2,0.6-0.7,0.4c-0.4,2.4-3.2,0.8-4.3,2.6
		c0,0-0.2,1.7-0.6,0.9c-0.4,0.2,0.1,0.6,0,1c-0.4,0-0.5-1-0.6,0c-0.7,0.1-0.5-0.6-1.2-0.4c-0.1-0.2,0.2-0.7-0.1-0.7
		c-0.2,0.1,0,0.3-0.1,0.7c-0.3-0.4-0.7-0.6-0.7-1.2c-0.4-0.1-0.3,0.3-0.4,0.4c-0.2-0.1-0.2-0.5-0.4-0.6c-0.3,0.2,0.1,0.5-0.1,0.9
		c-0.6-0.5-1.1,0.2-1,0.9c-0.4-0.1-0.2-0.2-0.1-0.6c-0.6,0.5-0.7-0.8-1,0c-0.5-0.1,0.1-0.7-0.4-1c-0.3,0-0.1,0.5-0.3,0.6
		c-0.6-0.3-1-0.3-1.6,0c0-0.2,0-0.4,0-0.6c0.2,0,0.5,0,0.7,0c-0.5-0.4-1.5-0.7-2-0.6c0.3-0.2,0.3-0.6,0.6-0.9
		c-0.2-0.3-0.5,0-0.9,0.3c-0.1,0.4,0.2,0.4,0.1,0.9c-0.5,0.1-0.3-0.7-0.7-0.7c-0.6,0-0.7,0.7-1.2,0.1c0.3,1.1-1,0.5-0.7,1.6
		c-0.3,0-0.3-0.4-0.3-0.7c-0.3,0-0.2,0.4-0.6,0.3c0.2-0.2,0.2-0.4,0-0.6c-0.4,0-0.8,0.7-0.7-0.1c-0.4,0.1-0.4,0.6-1,0.4
		c0.3,0.7,1.2,0.5,1,1.3c0.2-0.1,0.3-0.4,0.3-0.7c0.3-0.1-0.1,0.7,0.4,0.4c0.4-0.1-0.1-0.3,0-0.6c0.5,0.3,0.7,1.1,1.4,0.7
		c-0.1,0.6,0.5,0.4,0.3,1c-0.5,0.2-0.3-0.4-0.7-0.3c0-0.1,0.2-0.1,0.3-0.1c0.1-0.4-0.7,0.1-0.6-0.3c-0.2,0-0.1,0.3-0.1,0.4
		c-1.2,0-1.6-0.6-2.8-0.4c0-0.3,0.5-0.1,0.6-0.4c-0.2-0.1-0.3-0.2-0.7-0.3c0.6-0.1-0.1-0.6,0.3-0.9c-0.1-0.1-0.3-0.2-0.4-0.3
		c-0.4-0.3,0.2,0,0.4,0c0.1-0.6-0.6-0.1-0.9-0.1c0.2-0.5-0.6-1.2-1-1.2c0.1-1.2-0.6-0.9-1.7-1.3c0-0.3,0.2-0.3,0.1-0.6
		c-1.4,0.4-2.9-1.2-3.5,0.1c-0.3-1.1-2.2,0.7-3-0.3c-0.5,0.7-1.5,0.2-2.2,0.4c0.1-0.7-0.7,0-0.3-0.6c-0.4,0-0.3,0.2-0.6,0
		c-1.1,1.2-1.7,0.6-2.9,0.1c-0.2-0.3,0-0.2,0-0.6c-0.3-0.1-0.3,0.2-0.3,0.4c-0.9-1.1-2.1,0.8-2.9-0.3c-0.2,0.3-0.4,0.5-0.6,0.9
		c-0.7-0.2-1.3,0.6-2.2,0.7c0.2-0.2,0.1-0.2,0-0.4c-0.1,0.2-0.5,0-0.4,0.4c-0.2-0.2-0.6-0.2-0.6-0.6c-0.7,0.1-0.7,0.1-1.3,0
		c0.6-0.3,0.1-0.2,0.3-1c0.1-0.1,0.3-0.2,0.6-0.1c-0.8-2.1,2.2-1.6,2.9-0.7c0.5-0.7,0.2-0.5,0.7-0.4c0.5,0.3,0.7,0.8,0.9,1.3
		c0.6-0.4,0.9-0.2,1.4-0.6c0.1-0.5-0.7-0.1-0.6-0.6c0.7,0.3,0.2-0.6,0.7-0.4c0-0.2-0.3-0.1-0.4-0.1c0.1-0.5,0.6-0.7,0.7-1.2
		c1.1,0.2,1.2-1.2,2-0.1c0.4-0.1-0.2-0.4,0-0.7c0.8,0,0.7-0.1,1.4,0c0.1-0.5,0.6-0.3,0.3-0.6c0.3-0.1,0.7,0.1,1.2,0.1
		c0.2-0.3-0.2-0.8,0.4-1c-0.2-0.1,0-0.5-0.4-0.4c0.1-0.2,0.2-0.4,0.3-0.6c0.3,0.6,0.5-0.1,0.4-0.7c0.2,0,0.2,0.1,0.4,0.1
		c0.4-0.8-0.9-0.7-1.4-0.7c0.4-0.7-0.1-1.3,0.3-2c-0.1-0.5-1.2,0-0.9-1c-0.4,0.8-0.9,0-1.4-0.1c-0.1,0.5,0.4,0.3,0.3,0.9
		c-0.6,0-0.1,0.1-0.1,0.4c-1.1,0.1-1.5,0.2-2.3-0.6c0-0.3,0.2-0.5,0.1-1c0.5,0.2,0.6,0.3,1.2,0c-0.4-0.3,0.2-0.7-0.1-1
		c-0.4,0.7-1-0.3-1.2,0.3c-0.2,0.1-0.4-0.6-0.4-0.1c-0.2-0.1,0-0.3-0.1-0.7c0.1-0.1,0.3-0.1,0.3-0.3c0.3,0,0.5,0,0.6,0.3
		c0.5-0.2-0.2-0.9,0.1-1c-0.4,0-0.3,0.2-0.6,0c0-0.4,0.1-0.9-0.3-0.9c0-0.3,0.4-0.2,0.4-0.4c0.1,0.2,0.1,0.2,0.4,0.4
		c0.7-1.8-2.2-0.8-2.5-2.6c0-0.3-0.4,0.2-0.6-0.1c0.4-0.6,0-0.2,0-1c-0.5,0.1,0,0.3-0.3,0.6c-0.5,0.1-1.1-1-1.3-0.3
		c-0.1,0-0.1-0.1-0.3-0.1c0-0.1-0.1-0.1-0.1-0.1c0-0.3,0.5-0.1,0.6-0.3c0-0.4-0.6-0.1-0.4-0.6c0.1,0.1,0.3,0.2,0.6,0.1
		c0.2-0.9-0.8-0.6-0.7-1.3c-0.6,0.3-1,0.6-1.7,0.7c0.1-0.7-0.9-0.2-1.2-0.6c-0.2,0.1-0.3,0.4-0.3,0.7c-0.5-0.1-0.6,0.3-0.9,0
		c0-0.3,0.4-0.3,0.6-0.1c0-0.7-0.9,0.1-1-0.3c-0.2,0-0.1,0.4-0.1,0.6c-0.2-0.5-1.2-0.3-1.6-0.1c0.1,0.2,0.2,0.3,0.4,0.3
		c-0.3,0.5-0.7-0.2-0.7-0.4c-0.3,0.3-0.5,0.2-0.9,0c0.5,0.5-0.5,0.7-0.1,1c-0.5,0.5-1.4-0.6-1.7,0.3c-0.3-0.1-0.4-0.4-0.9-0.3
		c0.1-0.5,0.5,0.1,0.6-0.4c-0.2,0-0.6-0.1-0.9-0.4c0.3,0.9-1.1,0.3-1.3,1c-0.3-0.3-0.6-0.1-0.7-0.3c0,0.6-0.7,0.4-0.9,0.9
		c-0.8-0.2-0.9,0.1-1.6,0.4c-0.9-0.4-1.1-0.6-2.5-0.6c0.6-0.8-1-1.1-1.2-2.2c-0.2,0-0.3,0-0.3,0.1c-0.3-0.1,0.4-0.7-0.4-0.6
		c-0.4-1.9-2.3-3-3.2-1.2c-0.2,0-0.5,0-0.7,0c0.4-0.3,0.2-0.8-0.4-0.9c-0.2,0.1,0.1,0.3-0.1,0.3c-0.5-0.5-0.6-0.4-0.7-0.9
		c-0.3,0.3-0.4,0-0.7,0c0.8,0-0.3-1,0.4-1.4c-0.9-0.9,0.8-1.1,0.9-1.9c0.9,0.2,1.7-0.6,2.3-0.9c0.1,0.2,0.4,0.4,0.9,0.3
		c-0.1-0.4-0.1-0.3,0-0.7c1,0.7,2.8-1.2,3.3-0.7c0.3-0.6,1.2-0.5,1.3-1.3c0.9,0,1.5-0.1,2.6,0.3c0-0.1-0.2-0.1-0.3-0.1
		c0.7-1.7,2.1-1.1,2.9-1.4c-0.6,0.3,0.1,0.2,0.1,0.7c0.4,0,0.6-0.2,0.6-0.6c0.3,0.1,0.7,0.1,1,0.3c0.4-0.1-0.1-0.5,0-0.7
		c0.9-0.2,0.9-0.3,1.2-0.9c0.1,0.2,0.7,0,0.6,0.4c0.6,0.2,1.1-1.1,1.4,0c0.4,0,0.4-0.3,0.6-0.4c-0.4,0-0.5-0.3-0.3-0.7
		c-0.4,0.2-0.3-0.2-0.7-0.1c0.2-1.2,1.8-0.5,2-1.4c0.4,0.1,0.2,0.2,0.1,0.6c0.4,0,0.9-0.8,1.4-0.3c0.4-0.2,0.3-0.5,0.1-0.9
		c0.2,0.1,0.6,0.1,0.3,0.4c0.6,0,1-0.5,2-0.4c0,0.2-0.1,0.2-0.1,0.4c0.3,0.1,0.3-0.2,0.3-0.4c0.5,0.1,0.4,0.4,0.6-0.1
		c0.3,0.2,0.3,0.7,0.9,0.6c-0.1,0.2-0.3,0.2-0.3,0.4c0.5,0.1,0.2-0.5,0.6-0.4c-0.1-0.1-0.3-0.2-0.3-0.4c0.6,0,0-0.2,0.3-0.4
		c0.4,0,0.7,0,0.9,0.1c0.1,0.2-0.1,0.3-0.3,0.3c0.1,0.3,0.6,0.4,0.6-0.1c0.3,0.3,0.4,0.1,0.7,0.3c-0.2,0.6,0.4,0.4,0.3,1
		c0.4-0.3,1,0,1.4-0.6c-0.1,0.5,0.5,0.2,0.7,0.3c0.1,0.5-0.3,0.2-0.4,0.1c-0.2,0.3,0.2,0.7,0.3,0.3c0.2,0,0.1,0.4,0.3,0.4
		c0.3-0.2-0.1-0.4,0.1-0.7c0.3-0.3,0.5,0.3,0.4-0.4c1.5-0.3,2.5-0.1,3.5-0.9c-0.3,0.5-0.1,0.7,0.6,0.6c0.1-0.3,0.1-0.9,0.7-0.4
		c-0.5-0.6,0.8-0.4,0.6-1.2c0.2,0,0.2,0.1,0.4,0.1c0.3-0.4-0.1-0.9-0.1-1.4c0.2-0.2,0.8,0,0.6-0.6c2,0.3,2.7-1.1,4.2-1.3
		c0.2,0,0.1-0.4,0.1-0.6c0.4,0.4,1,0.1,0.7-0.6c0.3-0.1,0.3,0.2,0.3,0.4c0.4-0.2,0.3-0.9,0.6-0.1c0.2-0.3,0.1-1.3,0.7-1.4
		c-1.3-1.7-1-2.9-1-5.1c0.3,0.4,0.8,0.2,1-0.3c0.4,0.2,0.9-0.2,1.3,0.1c0-0.3-0.2-0.3-0.1-0.6c0.5,0.2,0.6,0,0.6-0.6
		c0.3,0.2,0.2,0,0.6,0c-0.1-0.2,0.5-0.7,0.1-1c0.6,0,1.8-0.3,2-1.2c0.3,0.3,0.4,0,0.7,0c-0.1-0.1-0.3-0.2-0.4-0.3
		c0.3-0.3,1.2-0.2,1,0.1c0.1,0,0.1-0.1,0.3-0.1c-0.2-0.5,0.9-0.4,1.2-0.9c-0.1-0.2-0.2,0.1-0.4,0c0.2-0.8,1.2-0.9,0.9-2.2
		c0.6,0.1,0.5-0.8,0.9-1.3c0.2,0,0.4,0,0.6,0c-0.5-0.5,0.5-0.2,0.3-0.9c0.5-0.2,0.1,0.5,0.4,0.4c0.3-0.1,0-0.7,0.4-0.3
		c0.1-0.4-0.1-0.5-0.1-0.9c0.3-0.1,0.4,0.1,0.6,0.1C82.5,19.9,82.4,19.7,82.7,20.1z M57.9,62.1c-0.1-0.5,0.6-0.7,0.3-1.2
		c-0.2,0.8-0.8-0.4-1.2,0.1C57.5,61.3,57.7,61.7,57.9,62.1z M53.7,48.6c0.6-0.6,1,0,1.3-0.9c-0.4,0.2-0.6,0.2-1,0
		C54.2,48.3,53.6,48.1,53.7,48.6z M53.5,49.2c0.1-0.1,0.3-0.9,0-1C53.6,48.6,53,49,53.5,49.2z M53.9,50.5c0-0.1,0-0.3-0.1-0.3
		c-0.2,0.7,1,0.3,0.4,0.9c0.5-0.2,0.9-0.5,1-1c-0.2,0-0.4,0-0.6,0C54.9,50.7,54.6,50.4,53.9,50.5z M41.4,52.8
		c0.1-0.3,0.6-0.3,0.6-0.7c-0.3-0.3-0.6-0.7-1-0.9C40.6,51.8,41.5,52.2,41.4,52.8z M42,52.4c0.1,0.5-0.1,0.7-0.6,0.6
		c0.1,0.5-0.1,0.6-0.4,0.7c-0.1,0.3,0.4,0.8,0.6,0.4c-0.5,0.1-0.2-0.3,0-0.3c0.9,0.4,0.9-0.4,1.4,0c0,0.3,0,0.6,0.1,0.7
		c0.5-0.3,0.7-0.1,1.3-0.1c0-0.4-0.3-0.7,0-1c-1-0.3-1.3-0.7-2.2-0.6c0.2-0.1,0.6-0.7,0.1-0.7C42.5,52.4,42.3,52.5,42,52.4z
		 M46.5,53.7c0-0.3-0.2-0.3-0.3-0.4c0.2,0,0.5,0,0.7,0c0.2-0.6-0.6-0.1-0.6-0.4c0.2,0,0.4,0,0.6,0c0-1.1-0.9-0.2-1.3-0.6
		c0.1,0.9-0.7,0.8-0.6,1.3c-0.3,0-0.3-0.4-0.3-0.7c-0.2,0-0.5,0-0.7,0c0.1,0.5,0.7,0.6,0.9,1c0.3-0.1,0.7-1,1-0.6
		c0,0.2-0.2,0.2-0.4,0.1C45.5,54.1,46.1,53.7,46.5,53.7z M49.4,52.8c0.3,0,0.5,0,0.6,0.1C50.1,52.5,49.4,52.4,49.4,52.8z M52.2,53
		c0-0.2,0.4-0.1,0.3-0.4c-0.1,0-0.3,0-0.4,0C52,52.7,52,53,52.2,53z M34.2,55c0.6-0.4,0.4,0.6,0.6,0.7c0.5-0.4,0.7,0.7,1.3,0.1
		c-0.8-0.2-0.2-1.2-0.6-1.9c-0.6,0-0.6-0.1-0.9-0.6C34,53.8,34.4,54.8,34.2,55z M53.7,57.3c0.6-0.5,2.1-0.3,2.9-0.1
		c0.6-1.4-1.4-1.6-1.9-1.3c-0.1,0.3,0.2,1-0.1,1c0.1-0.4-0.3-0.3-0.6-0.3C54.2,57.2,53.6,56.9,53.7,57.3z M34.9,56.5
		c0.4,0.2,0.4-0.6,0-0.4C34.9,56.2,34.9,56.3,34.9,56.5z M68.2,58.9c0-0.3,0-0.5-0.3-0.6C67.9,58.7,68,58.9,68.2,58.9z M100.1,58.8
		c0.4,0.2,0.4-0.6,0-0.4C100.1,58.5,100.1,58.6,100.1,58.8z M58.8,61.5c0.4-0.1,0.4,0.2,0.7,0.1c0-0.2,0-0.5,0.3-0.4
		c-0.1,0.6,0.7,0.5,0.4,1.3c0.3,0,0.5,0,0.6,0.1c0.2-0.3,0.2-0.7,0.7-0.6c0.1-0.7,0-0.8,0.3-1.3c-0.5-0.1-0.9-0.2-0.9-0.9
		C59.5,59.2,58,60,58.8,61.5z M58.4,65.6c0.2,0,0.4,0,0.6,0C59,65.1,58.3,65,58.4,65.6z M58.5,66c0.4,0.3,0.4-0.1,0.9,0.1
		C59.4,65.6,58.7,65.7,58.5,66z M50.4,76.9c0.3,0,0.5-0.1,0.6-0.3C50.7,76.6,50.3,76.5,50.4,76.9z"/>
	<path fill="#FFFFFF" d="M42.4,52.1c0.4,0,0.1,0.6-0.1,0.7c0.8-0.2,1.2,0.2,2.2,0.6c-0.3,0.3,0,0.6,0,1c-0.6,0-0.8-0.1-1.3,0.1
		C43,54.4,43,54.2,43,53.9c-0.6-0.4-0.6,0.4-1.4,0c-0.2,0-0.5,0.4,0,0.3c-0.1,0.4-0.6-0.1-0.6-0.4c0.3-0.1,0.5-0.2,0.4-0.7
		c0.5,0.1,0.7-0.1,0.6-0.6C42.3,52.5,42.5,52.4,42.4,52.1z"/>
	<path fill="#FFFFFF" d="M45.5,53.4c0.2,0,0.4,0,0.4-0.1c-0.3-0.4-0.7,0.5-1,0.6c-0.2-0.4-0.7-0.5-0.9-1c0.2,0,0.5,0,0.7,0
		c0,0.4,0,0.7,0.3,0.7c-0.1-0.5,0.7-0.4,0.6-1.3c0.4,0.4,1.3-0.5,1.3,0.6c-0.2,0-0.4,0-0.6,0c0,0.4,0.8-0.1,0.6,0.4
		c-0.2,0-0.5,0-0.7,0c0.1,0.1,0.3,0.2,0.3,0.4C46.1,53.7,45.5,54.1,45.5,53.4z"/>
	<path fill="#FFFFFF" d="M34.6,53.4c0.3,0.5,0.3,0.5,0.9,0.6c0.4,0.7-0.2,1.7,0.6,1.9c-0.6,0.6-0.8-0.5-1.3-0.1
		c-0.2-0.2,0-1.1-0.6-0.7C34.4,54.8,34,53.8,34.6,53.4z"/>
	<path fill="#FFFFFF" d="M54,56.6c0.3,0,0.7-0.1,0.6,0.3c0.3-0.1,0.1-0.7,0.1-1c0.5-0.3,2.5-0.1,1.9,1.3c-0.8-0.2-2.3-0.3-2.9,0.1
		C53.6,56.9,54.2,57.2,54,56.6z"/>
	<path d="M33.3,59.7c-0.4,0.7-1.8,0.4-2-0.3c-0.2,0.1-0.2,0.5-0.3,0.7c-0.2-0.4-0.4-0.6-0.7-0.9c0.4-0.3,0.5-0.5,0.6-0.9
		c-0.8-0.5-1.4-0.3-1.6-1.4c0.5-0.1,0.9,0,1.6-0.4c0.4,0.8,1.5,0.7,2.2,0.6c0.1,0.5,0.4,0.8,1,0.9c0,0.8-0.7,0-0.7,0.6
		c0.2,0.1,0.3,0.2,0.7,0.3c-0.3,0.1-0.6,0.3-0.9,0.6c0,0.2,0.4,0.1,0.6,0.1c-0.2,0.3,0,0.4-0.3,0.7c-0.2-0.1-0.1-0.3,0.1-0.3
		C33.5,59.8,33.5,59.7,33.3,59.7z"/>
	<path d="M51.6,61.4c-0.1-0.1,0.2-0.6,0.1-0.9c0.3,0,0.3,0.2,0.6,0.1c0.2,0.3-0.4,0.5,0,0.6C52.4,61.6,51.6,60.9,51.6,61.4z"/>
	<path d="M50.1,61.4c0.1-0.3-0.7-0.5-0.6,0c-0.5-0.7,1-0.8,1.4-0.3c-0.1,0.1-0.2,0.2-0.1,0.4c-0.6,0-0.8,0.3-1.4,0.1
		C49.4,61.4,49.8,61.4,50.1,61.4z"/>
	<path d="M47.8,64.7c-0.7,0.4,0.2,0.6,0,1.3c-0.5-0.4-0.5,0.3-1,0.3C46.5,65.4,47.1,64.9,47.8,64.7z"/>
	<path d="M47.9,70.1c-0.2,0-0.4,0.1-0.4,0.3c-0.6-0.1,0.5-0.4,0-0.4c0.1-0.4,0.5,0.1,0.6,0.1C48.1,70.3,47.9,70.2,47.9,70.1z"/>
	<path d="M45.6,77.8c0,0.2,0.1,0.1,0.1,0c0.2,0,0.1,0.3,0.1,0.4c0.4-0.3,0.7-0.4,1.3-0.3c-0.2,0.5,0.4,0.3,0.3,0.7
		c-0.2-0.1-0.3,0.1-0.3,0.3c-0.6-0.4-1.6,0.7-1.9-0.6c-0.1,0.1-0.2,0.3-0.3,0.4c-0.1-0.2,0.2-1.2,0.7-1.2
		C45.8,77.7,45.7,77.8,45.6,77.8z"/>
	<path fill="#FFFFFF" d="M61,59.9c-0.1,0.7,0.4,0.8,0.9,0.9c-0.3,0.5-0.1,0.6-0.3,1.3C61,62,61,62.4,60.8,62.7
		c-0.1-0.1-0.3-0.2-0.6-0.1c0.3-0.8-0.5-0.7-0.4-1.3c-0.3-0.1-0.3,0.2-0.3,0.4c-0.3,0.1-0.3-0.3-0.7-0.1C58,60,59.5,59.2,61,59.9z"
		/>
	<path d="M54.3,65.7c0.3,0.4,1.2,1,1.6,0.9c0.4,0.7-0.9,0-1,0.6c-0.6,0.2-0.6-0.3-1-0.3c0-0.3,0-0.6,0-0.9
		C54.2,66.1,54.3,66,54.3,65.7z"/>
	<path d="M31.6,83.1c0,0.2,0.1,0.1,0.1,0c0.3,0,0.1,0.6,0.1,0.9c-0.8,0.2-0.7-0.5-1.4-0.3c-0.3,0-0.3,0.4-0.4,0.6
		c-0.5-0.1-0.8,0.3-1,0c0.7-0.6,0-0.3,0-1.2c0.5,0.2,0.9,0,1.2-0.3c0.4,0.1,0.6,0.3,1,0.4c0.1-0.4-0.3-0.3-0.6-0.3
		c0.1-0.4,0.2-0.7,0.4-1c0.3,0.3,0.9,0.5,1.4,0.6C32.4,83,31.9,83,31.6,83.1z"/>
</g>
</svg>
