<?xml version="1.0" encoding="utf-8"?>
<!-- Generator: Adobe Illustrator 18.0.0, SVG Export Plug-In . SVG Version: 6.00 Build 0)  -->
<!DOCTYPE svg PUBLIC "-//W3C//DTD SVG 1.1//EN" "http://www.w3.org/Graphics/SVG/1.1/DTD/svg11.dtd">
<svg version="1.1" id="Capa_1" xmlns="http://www.w3.org/2000/svg" xmlns:xlink="http://www.w3.org/1999/xlink" x="0px" y="0px"
	 viewBox="0 0 125.5 110.4" enable-background="new 0 0 125.5 110.4" xml:space="preserve">
<g>
	<path d="M72.5,15.7c-0.5,0.3,0,0.2,0.5,0.2c0.4,1.6-0.8,1.8-2,2.1c0.3-0.5-0.3-0.1-0.6-0.5c0.4-0.4,0.2-0.7,0.2-1.3
		C71.2,16.1,71.5,15.3,72.5,15.7z"/>
	<path d="M51.1,21.8c-0.2-0.6-0.2-0.6-0.2-1.3C52.7,17.9,53.7,22,51.1,21.8z"/>
	<path d="M29.2,28.9c-0.6-0.9-0.9-2.1-0.8-3.6C32.9,20.2,37.2,29.9,29.2,28.9z"/>
	<path d="M82.6,24.2c0.2,0.1,0,0.6,0.2,0.7c-0.6,0.5-2,2.1-3.5,1.4C79.2,24.8,81,24,82.6,24.2z"/>
	<path d="M82.8,35c-0.6-0.1-0.5-1.3-1.2-1c0-1.1,0-1.7,0.2-2.5C85.1,29.7,83,34.1,82.8,35z"/>
	<path d="M34.5,34.3c1.5,0.8,0.4,2.6-1,2.4c-0.1-0.2-0.3-0.3-0.3-0.6C33.4,35.4,33.9,34.8,34.5,34.3z"/>
	<path d="M26.7,38.4c-0.1,0.4-0.7,0.2-0.5,0.9c-0.5-0.2-0.1,0.5-0.7,0.3c-0.1,0.5-0.1,0.7-0.2,1.2c-0.6-0.9-1.3-0.4-2.4-0.8
		C22.7,37.7,25.7,37.8,26.7,38.4z"/>
	<path d="M93.7,39.2c0.4,0.6,0.8,1.3,1.5,1.7c0.2,0,0.1-0.4,0.5-0.3c-0.2,0.6-0.1,0.4,0.3,0.2c1.1,1-0.2,2.7,0,3.9
		c-0.2-0.1-0.2,0.2-0.2,0.3c-1.6,1.3-4.9,3.3-6.3,1.3c-0.2,0.1-0.2,0.3-0.5,0.1c0.1-0.1,0.1-0.3,0.1-0.5c-0.2-0.3-0.9-0.1-0.9-0.8
		c-0.6,0.2-0.9-0.5-1.3-0.8c0-0.9-0.3-2.1-0.2-2.8c0.3-0.3,0.8-0.6,1-1c0.4,0.2,0.6,0.1,0.6-0.2c1.4,0.3,2.4-1.6,3.8-0.7
		C92.6,39.2,93.3,39.1,93.7,39.2z"/>
	<path d="M79.6,43.3c-0.6,0.5-1.1-0.6-1.7-0.1c-0.3-0.4,0.2-0.4,0.5-0.5c-0.3-0.2,0.2-0.6-0.1-0.7c1.9-2.7,4.6-0.8,3,2.2
		c0,0.2,0.4,0.1,0.5,0.2c-0.2,0.2-0.1,0.5-0.6,0.5C81.2,44.3,80.1,44.1,79.6,43.3z"/>
	<path d="M20.2,42c-0.1,0.6,0.2,0.8,0.3,1.2c0.4,0.1,0.4-0.1,0.7-0.1c0.8,0.4,1.2,1.3,0.6,2.2c-0.2-0.1-0.4,0.1-0.6-0.3
		c-0.6,0.5-1.5,0.7-2,1.4c-0.4,0.1-0.1-0.4-0.6-0.2c0-0.7,0.6-1.5-0.3-1.6c0.3-0.3-0.2-0.7-0.5-0.8c0.3-0.8-0.3-1.6,0-2.2
		c0.6,0.1,1,0.3,1.5,0.1C19.4,42,19.6,41.8,20.2,42z"/>
	<path d="M25.5,41.7c0.2,0.5-0.2,1.2-0.2,1.5C24.8,43,25.1,42.1,25.5,41.7z"/>
	<path d="M27.4,43.8c0.4,0.1,0.4,0.5,0.6,0.8c-0.1,0.1-0.4,0-0.3,0.3c-0.3,0-0.4-0.2-0.6-0.2C27,44.2,27.2,44,27.4,43.8z"/>
	<path d="M85.1,45.2c0.3,0.2-0.5,0.6,0.2,0.6c-0.2,0.6,0.1,1.8-0.6,2.4c-1-0.2-2.1,0.2-2.9-0.2c0-0.4,0.5-0.9,0-1
		c0.1-0.2,0.2-0.2,0.5-0.2c-0.1-0.3-0.2-0.6-0.1-1c0.1-0.1,0.2-0.1,0.2-0.2c0.3,0,0.4,0,0.5,0.2c0.3,0,0.2-0.4,0.3-0.6
		C83.9,45,84.3,45.2,85.1,45.2z"/>
	<path d="M107.3,46c-0.3,0.3-0.3,1.1-0.8,0.8c-0.6,1.5-2.7,2.7-4,1.5C101.2,46,105.8,44.2,107.3,46z"/>
	<path d="M27.2,50.4c0.1,0.7-0.7,0.9-0.9,0.6C26.3,50.4,26.7,50.1,27.2,50.4z"/>
	<path fill="#FFFFFF" d="M67.9,51.2c0,0.1,0,0.2,0,0.3c-0.2,0-0.6,0.1-0.5-0.2C67.6,51.3,67.7,51.2,67.9,51.2z"/>
	<path fill="#FFFFFF" d="M68.7,51.6c-0.2,0.7-0.3,0.8-0.2,1.4c-0.3-0.2-0.5-0.3-0.3-0.7c-0.2,0.1-0.4,0.3-0.3,0.7
		c-0.4-0.1-0.2-0.1-0.6,0c0.3-0.2,0.4-0.9,0.1-1.2C67.5,51.5,68.2,51.9,68.7,51.6z"/>
	<path fill="#FFFFFF" d="M68.6,52.2c0.5,0,0.3,0.4,0.2,0.7C68.6,52.8,68.6,52.5,68.6,52.2z"/>
	<path d="M111.1,59.7c0.2,2.4-2.7,2.5-3.5,1.3C107.6,58.9,110.4,57.6,111.1,59.7z"/>
	<path d="M40,61.8c-0.3,0.4,0.6,0.4,0.8,0.6c-0.2,1.1-1.6,0.6-2,1.2c-0.2-0.4-0.5,0-0.8-0.2c0.2-0.3,0.4-0.5,0.3-1
		C38.9,62.1,39.3,62,40,61.8z"/>
	<path d="M95.4,63.7c0.1,2.1-1.4,2.9-2.5,3.3C91.3,66,93.1,63.2,95.4,63.7z"/>
	<path d="M81.5,64.4c1.4,1.3-0.6,3.3-2.3,2.4c0.4-0.8,1.2-1.3,1.6-2.1c0.3,0.2,0.5-0.1,0.6,0.3C81.6,65.1,81.4,64.6,81.5,64.4z"/>
	<path d="M69.8,69.9c-0.1-0.1-0.2-0.3-0.2-0.1c-0.2-0.6-0.4-1.1-0.8-1.5c-0.1-0.9,0.6-1.1,0.8-1.7c0.4,0,1-0.2,1.5-0.2
		c0.2,0.1,0.2,0.2,0.1,0.3c0.1,0.3,0.2-0.3,0.5-0.1c0.1,0,0.1,0.7,0.2,0.3c0.3,0.9-0.1,1.4-0.5,2.1C70.5,69,70,69.6,69.8,69.9z"/>
	<path fill="#FFFFFF" d="M31.5,67.9c-0.1,0.4-0.4,0.1-0.6,0C31,67.4,31.1,67.9,31.5,67.9z"/>
	<path fill="#FFFFFF" d="M29.4,70.1c-0.2,0-0.4,0-0.6,0c-0.2-0.3,0.1-0.4-0.2-0.6c0.2-0.3,0.9-0.3,0.6-0.8c0.5,0.1,0.9,0.7,0.7,1
		c-0.2,0-0.1-0.4-0.3-0.3C28.9,69.7,29.2,69.8,29.4,70.1z"/>
	<path fill="#FFFFFF" d="M30.3,69.4c-0.4-0.1,0.1-0.5-0.6-0.3C29.8,68.5,30.7,69.1,30.3,69.4z"/>
	<path fill="#FFFFFF" d="M29.6,69.6c0,0.2,0,0.4,0,0.6c-0.2,0,0-0.5-0.3-0.5C29.3,69.6,29.5,69.6,29.6,69.6z"/>
	<path d="M78,70.9c-0.3,1.5-3.1,1.7-2.5-0.5c0.5-0.2,0.4-0.4,0.8-0.8c0.7,0.1,0.8,0.3,1.5,0.5C77.9,70.5,77.7,70.6,78,70.9z"/>
	<path d="M84.3,70.1c1-0.2,2.1,1.5,2,2.9C84,76.9,80.2,71.1,84.3,70.1z"/>
	<path d="M43.8,71.1c0.6,0,0.5,0.5,0.8,0.6c-0.2,0.7-0.9,1-1.6,0.8C42.7,71.7,43.6,71.7,43.8,71.1z"/>
	<path d="M47.9,79.8c-0.8,0.3-2.7,0.6-3,1.6c-0.5,0-0.8,0.2-1,0.2c-0.5-0.4-0.3-1.8-0.1-2.6c0.7-0.1,0.9,0.3,1.2,0.6
		c0.3-0.3-0.3-0.4-0.1-0.9C46.3,78,48.9,77.7,47.9,79.8z"/>
	<path d="M66,83.9C67.4,89.9,60.4,83.3,66,83.9L66,83.9z"/>
	<path d="M52.8,86.3c-0.1,0.7-0.1,2.2-1.6,2.1c-0.1-0.2,0.1-0.7-0.2-0.2c-0.6-0.4-0.8-1.2-1-2C50.9,85.8,52.2,85.2,52.8,86.3z"/>
	<path d="M61.3,20.3c0.1,0,0.1,0.1,0,0.1c0.1,0.4,0.4,0,0.7,0.3c0.7,1.9-1.8,2.3-2.1,2.8C58.9,22.7,60.1,20.8,61.3,20.3z"/>
	<path d="M63.2,30.4c2.3,2.4,3.6-0.8,4.7-2c0.1-0.4-0.4-0.1-0.2-0.5c1.7,0.5,2.2-1.6,3.2-1.8c-0.2-0.5,0.2-0.9,0.3-1.3
		c0.5-0.1,0.1,0.6,0.2,0.9c-0.1-0.1-0.2-0.1-0.2,0c0.4,1,1.9,1.1,3.3,1.2c0.2,0.2-0.1,0.2-0.1,0.5c0.7,0.3,1.3,0.5,1.6-0.2
		c0,0.8,0.9,0.6,0.9,1.4c-1.5,0.1-1.8,1.5-2.2,2.8c-0.4,0.1-0.7,0-0.8,0.6c-1.4,0.1-3,1.5-2.3,3c-0.5,0.5,0.2,1.2,0.7,1.5
		c-0.2,3.5-5.7,2-4.8,6c0.2,0.1,0.4-0.1,0.9,0c-0.1,0.1-0.1,0.2-0.1,0.3c1.2-0.2,3.4-0.4,5.2,0.3c0.6-0.5,1.2,0.4,1.7-0.1
		c0.3,0.1,0.2,0.6,0.8,0.5c-0.1,0.2-0.2,0.3-0.3,0.3c0.3,0.7,0.4,2.9,1.2,3.7c-0.8,2.8-4,4.3-6.5,3.8c-0.3,0.1-0.1,0.2-0.1,0.5
		c-0.6,0-0.6-0.5-1.2-0.6C68.8,51.4,69,51.7,69,52c0.3,0,0.1-0.5,0.6-0.5c-0.5,1-1.4,3.1-0.2,4c-0.4,0.3-1,0-1.6,0.3
		c0-0.2-0.1-0.3-0.1-0.5c-0.2,0-0.1,0.3-0.1,0.5c-0.6,0.1-0.8-0.8-1.4-0.3c-0.2-0.6-2.1-1.8-2.8-0.7c-0.7-0.1-1.5-0.1-1.7-0.9
		c-0.6,0.6-1.4-0.4-1.8,0.2c-2.6-0.2-5.1,3.3-8.6,1.5c-1.1,0-2,0.4-2.8,0.7c-0.8-0.5-2.6-0.5-2.3-1.6c-2.1-1.2-9.1,0.7-11.6-0.9
		c-0.5,0.2-1.8,0-2.5,0.3c-0.7-0.7-1.4-1.3-2.2-1.7C30,51,31,50,29.5,49.1c0-0.9-0.2-1.6,0-2.4c3.7-1.2,0.5-5.9,4.3-7.1
		c3.7,3.8,5.2-1.1,6.9-3.5c0.4-0.5,1.3-0.8,1.7-1.4c1.6-2.4,1.4-5.1,5.2-5.1c0.9,1,2.7,0,3.3-0.3c0.8,0.1,1.1,0.3,1.8,0
		c0,0.1,0,0.2,0,0.3c0.6-0.4,0.7-0.5,1.5-0.6c0.3,0.5,0.5,1.1,1.3,1.2c-0.1,0.2-0.1,0.4,0,0.6c0.2-0.1,0.3-0.2,0.3-0.3
		c0.3,0.4,1.7,0.1,1.4,1.2C58.6,32.4,60.7,31.1,63.2,30.4z M67.4,51.3c-0.1,0.3,0.3,0.2,0.5,0.2c0-0.1,0-0.2,0-0.3
		C67.7,51.2,67.6,51.3,67.4,51.3z M67.3,51.9c0.3,0.2,0.2,0.9-0.1,1.2c0.4-0.1,0.2-0.1,0.6,0c-0.1-0.4,0.1-0.6,0.3-0.7
		c-0.2,0.4,0.1,0.5,0.3,0.7c-0.1-0.6,0-0.7,0.2-1.4C68.2,51.9,67.5,51.5,67.3,51.9z M68.8,52.9c0.1-0.3,0.2-0.7-0.2-0.7
		C68.6,52.5,68.6,52.8,68.8,52.9z"/>
	<path d="M38.3,31.8c0.3,0.2-1.2,1.1-1.3,0.2c0.1,0,0.1,0,0.1,0.1c0.5-0.5,0.4-0.5,1-0.8C38.1,31.7,38,32.1,38.3,31.8z"/>
	<path d="M89.8,56.1c0-0.2,0.2-0.2,0.2-0.3c-0.4,0-0.3,0.1-0.7,0c-1.7-2,2.9-4,3.7-1.6c0.1-0.1,0.2-0.1,0.2-0.2
		C93.9,55.7,91.2,56.4,89.8,56.1z"/>
	<path d="M24,64.8c-0.1-0.2-0.2-0.3-0.2-0.5c-1.6-0.2-3.3-1.5-4.4-3.3c-4.2-1.9,0.5-5.8,3.2-6.5c3.7-0.9,7.6,3.6,5.1,7.7
		c0.2,1.1-1.3,2.7-2.2,2.3c-0.1,0.2-0.3,0.2-0.5,0.3C25,64.6,24.5,64.7,24,64.8z"/>
	<path d="M74.7,56.1c0.1,0.1-0.3,0.6,0,0.8c-0.6,0.4-2.3,1.9-2.8,3.1c-0.7-0.1-1.2-1-2-0.5c0.1-0.4,0.1-0.8,0.2-1.2
		c0.1,0,0.1,0.2,0.1,0.3c0.3-0.2,0.5-0.5,0.5-1c0.7,0.2,1.4-0.4,2.1-0.6C72.7,56.8,74.3,56.3,74.7,56.1z"/>
	<path d="M81.7,63.7c0.2-0.1,0.2,0,0.3,0c-0.5-0.7,0.3-0.9,0.1-1.8c0.8,0,1.3-0.6,2.4-0.2C84.8,63,81.5,65.5,81.7,63.7z"/>
	<path d="M65.4,63.5c0.3,0.1-0.3,0.2-0.1,0.5c0.2,0,0.2-0.3,0.3-0.5c0.6,0,0.7-0.2,1.4-0.1c-0.1,0.4,0.2,0.4,0.1,0.8
		c-0.2-0.1-0.5,0.2-0.2,0.2c-0.2,0-0.4,0.2-0.8,0.3c0-0.1,0-0.2,0-0.3c-0.3,0.4-0.7,0-1-0.1c0-0.2,0-0.4,0-0.6
		C65.2,63.7,65.3,63.7,65.4,63.5z"/>
	<path d="M35.2,64.8c0-0.1,0.2,0.6,0.2,1c-0.4,0-0.4,0.4-0.7,0.5c0,0.2,0.3,0.2,0.2,0.6c-0.2-0.2-0.3,0-0.6,0c0,0.4,0.6,1,0,1.3
		c1.9,2.1,3.3-1.1,4.6-2c0.2,0.2,0,0.7,0.3,0.8c0,1.2-0.4,2.3-1.3,2.7C37.2,69,36.4,70,36,70.5c-0.2,0-0.2-0.3-0.6-0.2
		c-1.4-1.7-6.1-0.4-6,2.2c-0.8,0-1.3-0.7-2-0.2c-0.3-0.7,0.1-1.8,0-2.4c0.5,0.2,0.3-0.1,0.5-0.3c-0.1-0.4-0.2-0.1-0.6-0.1
		c0.1-0.1,0.1-0.3,0.1-0.5c-0.2,0-0.2,0.1-0.5,0.1c0-0.2-0.1-0.3-0.2-0.3c0-0.2,0.9-0.3,0.2-0.5c0.3-0.6,1.5-1,1.5-1.5
		c0.6,0,0.9-0.1,1.4-0.5c0,0.2,0.1,0.3,0.1,0.5c0.3-0.3,1-0.6,1.3-0.5c-0.2,0.3-0.2,0.3-0.2,0.9c0.2,0.2,0.3,0.3,0.5,0.6
		c0.1-0.6,0.9-0.7,0.7-1.3C33.3,66.8,34.1,65.3,35.2,64.8z M30.9,67.9c0.2,0.1,0.5,0.4,0.6,0C31.1,67.9,31,67.4,30.9,67.9z
		 M28.6,69.3c0.1-0.3-0.3-0.6,0-0.6c0.1,0,0.1,0,0.1-0.1C28.2,68.5,28.2,69.3,28.6,69.3z M29.3,69.7c0.3-0.1,0.1,0.4,0.3,0.5
		c0-0.2,0-0.4,0-0.6C29.5,69.6,29.3,69.6,29.3,69.7z M29.5,69.4c0.3,0,0.1,0.3,0.3,0.3c0.2-0.3-0.2-1-0.7-1c0.3,0.5-0.3,0.5-0.6,0.8
		c0.4,0.1,0.1,0.2,0.2,0.6c0.2,0,0.4,0,0.6,0C29.2,69.8,28.9,69.7,29.5,69.4z M29.7,69c0.7-0.1,0.2,0.2,0.6,0.3
		C30.7,69.1,29.8,68.5,29.7,69z"/>
	<path d="M60.1,73.3c-0.9-0.5,0.5-1.3,0.1-2.1c-0.1,0.1-0.3,0.1-0.5,0.1c-0.5-1.9-2.9-1.5-4-2.1c0.6-0.8,0.4-2,1.7-2.2
		c0.1-0.6,0.9-1.3,1.5-1.7c0.1,0.2,0.4,0.6,0.1,0.8c0.2,0.5,0.7,0.1,0.9,0.7c0.6-0.2,1.3-0.2,1.5-0.8c0.2,0.4,0.5,0.1,0.7-0.1
		c0.5,0.6,0.8,1.4,0.9,2.4c-0.3,0.2-0.4,0.5-0.8,0.6c0.1,0.1,0.1,0.2,0.2,0.2c-0.8,0.5-2.1,1.5-2,3c0,0.1,0.3,0.2,0.3,0
		c0.3,0.2-0.3,0.3,0,0.7c-0.3,0.1-0.6,0.3-0.6,0.5C60.1,73.7,60.3,72.9,60.1,73.3z"/>
	<path fill="#FFFFFF" d="M28.7,68.6c0,0.1,0,0.1-0.1,0.1c-0.3,0,0.1,0.3,0,0.6C28.2,69.3,28.2,68.5,28.7,68.6z"/>
	<path d="M48.8,74.2c-0.3,0,0.8-0.3,0.6,0.2c0.3-0.8,1.3-0.2,1.7-0.9c0.4,0.1-0.1,0.4,0.5,0.3c0.1,0.4-0.7,0.2-0.8,1.4
		c-0.7,0.1-1.6,0.1-2.4-0.2C48,74.4,49,74.4,48.8,74.2z"/>
	<path d="M71.6,81.4c-1.3-1.7,2.1-2.9,1.8-5.1c2.5-1.2,4.5,0.4,4.1,1.6C79.9,81.5,72,86.8,71.6,81.4z"/>
	<path d="M44.3,78.3c0.4,0.4-0.5,0.4-0.5,0.5C43.4,78.5,44.3,78.6,44.3,78.3z"/>
	<path d="M29.3,74.6c0.3,0.4,0.5,0.9,1.3,0.8c0.2,0.4,0.2,0.4,0.3,0.8c-0.5,0.1-0.2,0.3-0.3,0.7c-0.5,0.2-2.2,0.4-2.3-1.2
		C28.8,75.6,29.1,75.1,29.3,74.6z"/>
	<path d="M63.3,80c0.3,1.9-2.9,4-3.8,1.6C59.5,78.8,61.6,78.8,63.3,80z"/>
	<path d="M35.4,86.4c-0.2,0.9-0.6,1.6-1.7,1.6c-0.1-0.1-0.2-0.2-0.3-0.3C33.3,86.5,34.5,86.1,35.4,86.4z"/>
</g>
</svg>
